<?xml version="1.0" encoding="utf-8" standalone="no"?>
<!DOCTYPE svg PUBLIC "-//W3C//DTD SVG 1.1//EN"
  "http://www.w3.org/Graphics/SVG/1.1/DTD/svg11.dtd">
<!-- Created with matplotlib (https://matplotlib.org/) -->
<svg height="270.01625pt" version="1.1" viewBox="0 0 561.370312 270.01625" width="561.370312pt" xmlns="http://www.w3.org/2000/svg" xmlns:xlink="http://www.w3.org/1999/xlink">
 <defs>
  <style type="text/css">
*{stroke-linecap:butt;stroke-linejoin:round;}
  </style>
 </defs>
 <g id="figure_1">
  <g id="patch_1">
   <path d="M 0 270.01625 
L 561.370312 270.01625 
L 561.370312 0 
L 0 0 
z
" style="fill:#ffffff;"/>
  </g>
  <g id="axes_1">
   <g id="patch_2">
    <path d="M 160.070312 232.46 
L 550.670313 232.46 
L 550.670313 10.7 
L 160.070312 10.7 
z
" style="fill:#ffffff;"/>
   </g>
   <g id="matplotlib.axis_1">
    <g id="xtick_1">
     <g id="line2d_1">
      <path clip-path="url(#pd15a02bae0)" d="M 537.594162 232.46 
L 537.594162 10.7 
" style="fill:none;stroke:#b0b0b0;stroke-dasharray:2.96,1.28;stroke-dashoffset:0;stroke-width:0.8;"/>
     </g>
     <g id="line2d_2">
      <defs>
       <path d="M 0 0 
L 0 3.5 
" id="m20c2b80e22" style="stroke:#000000;stroke-width:0.8;"/>
      </defs>
      <g>
       <use style="stroke:#000000;stroke-width:0.8;" x="537.594162" xlink:href="#m20c2b80e22" y="232.46"/>
      </g>
     </g>
     <g id="text_1">
      <!-- −20 -->
      <defs>
       <path d="M 10.59375 35.5 
L 73.1875 35.5 
L 73.1875 27.203125 
L 10.59375 27.203125 
z
" id="DejaVuSans-8722"/>
       <path d="M 19.1875 8.296875 
L 53.609375 8.296875 
L 53.609375 0 
L 7.328125 0 
L 7.328125 8.296875 
Q 12.9375 14.109375 22.625 23.890625 
Q 32.328125 33.6875 34.8125 36.53125 
Q 39.546875 41.84375 41.421875 45.53125 
Q 43.3125 49.21875 43.3125 52.78125 
Q 43.3125 58.59375 39.234375 62.25 
Q 35.15625 65.921875 28.609375 65.921875 
Q 23.96875 65.921875 18.8125 64.3125 
Q 13.671875 62.703125 7.8125 59.421875 
L 7.8125 69.390625 
Q 13.765625 71.78125 18.9375 73 
Q 24.125 74.21875 28.421875 74.21875 
Q 39.75 74.21875 46.484375 68.546875 
Q 53.21875 62.890625 53.21875 53.421875 
Q 53.21875 48.921875 51.53125 44.890625 
Q 49.859375 40.875 45.40625 35.40625 
Q 44.1875 33.984375 37.640625 27.21875 
Q 31.109375 20.453125 19.1875 8.296875 
z
" id="DejaVuSans-50"/>
       <path d="M 31.78125 66.40625 
Q 24.171875 66.40625 20.328125 58.90625 
Q 16.5 51.421875 16.5 36.375 
Q 16.5 21.390625 20.328125 13.890625 
Q 24.171875 6.390625 31.78125 6.390625 
Q 39.453125 6.390625 43.28125 13.890625 
Q 47.125 21.390625 47.125 36.375 
Q 47.125 51.421875 43.28125 58.90625 
Q 39.453125 66.40625 31.78125 66.40625 
z
M 31.78125 74.21875 
Q 44.046875 74.21875 50.515625 64.515625 
Q 56.984375 54.828125 56.984375 36.375 
Q 56.984375 17.96875 50.515625 8.265625 
Q 44.046875 -1.421875 31.78125 -1.421875 
Q 19.53125 -1.421875 13.0625 8.265625 
Q 6.59375 17.96875 6.59375 36.375 
Q 6.59375 54.828125 13.0625 64.515625 
Q 19.53125 74.21875 31.78125 74.21875 
z
" id="DejaVuSans-48"/>
      </defs>
      <g transform="translate(527.041818 247.058437)scale(0.1 -0.1)">
       <use xlink:href="#DejaVuSans-8722"/>
       <use x="83.789062" xlink:href="#DejaVuSans-50"/>
       <use x="147.412109" xlink:href="#DejaVuSans-48"/>
      </g>
     </g>
    </g>
    <g id="xtick_2">
     <g id="line2d_3">
      <path clip-path="url(#pd15a02bae0)" d="M 484.867391 232.46 
L 484.867391 10.7 
" style="fill:none;stroke:#b0b0b0;stroke-dasharray:2.96,1.28;stroke-dashoffset:0;stroke-width:0.8;"/>
     </g>
     <g id="line2d_4">
      <g>
       <use style="stroke:#000000;stroke-width:0.8;" x="484.867391" xlink:href="#m20c2b80e22" y="232.46"/>
      </g>
     </g>
     <g id="text_2">
      <!-- 0 -->
      <g transform="translate(481.686141 247.058437)scale(0.1 -0.1)">
       <use xlink:href="#DejaVuSans-48"/>
      </g>
     </g>
    </g>
    <g id="xtick_3">
     <g id="line2d_5">
      <path clip-path="url(#pd15a02bae0)" d="M 432.14062 232.46 
L 432.14062 10.7 
" style="fill:none;stroke:#b0b0b0;stroke-dasharray:2.96,1.28;stroke-dashoffset:0;stroke-width:0.8;"/>
     </g>
     <g id="line2d_6">
      <g>
       <use style="stroke:#000000;stroke-width:0.8;" x="432.14062" xlink:href="#m20c2b80e22" y="232.46"/>
      </g>
     </g>
     <g id="text_3">
      <!-- 20 -->
      <g transform="translate(425.77812 247.058437)scale(0.1 -0.1)">
       <use xlink:href="#DejaVuSans-50"/>
       <use x="63.623047" xlink:href="#DejaVuSans-48"/>
      </g>
     </g>
    </g>
    <g id="xtick_4">
     <g id="line2d_7">
      <path clip-path="url(#pd15a02bae0)" d="M 379.413849 232.46 
L 379.413849 10.7 
" style="fill:none;stroke:#b0b0b0;stroke-dasharray:2.96,1.28;stroke-dashoffset:0;stroke-width:0.8;"/>
     </g>
     <g id="line2d_8">
      <g>
       <use style="stroke:#000000;stroke-width:0.8;" x="379.413849" xlink:href="#m20c2b80e22" y="232.46"/>
      </g>
     </g>
     <g id="text_4">
      <!-- 40 -->
      <defs>
       <path d="M 37.796875 64.3125 
L 12.890625 25.390625 
L 37.796875 25.390625 
z
M 35.203125 72.90625 
L 47.609375 72.90625 
L 47.609375 25.390625 
L 58.015625 25.390625 
L 58.015625 17.1875 
L 47.609375 17.1875 
L 47.609375 0 
L 37.796875 0 
L 37.796875 17.1875 
L 4.890625 17.1875 
L 4.890625 26.703125 
z
" id="DejaVuSans-52"/>
      </defs>
      <g transform="translate(373.051349 247.058437)scale(0.1 -0.1)">
       <use xlink:href="#DejaVuSans-52"/>
       <use x="63.623047" xlink:href="#DejaVuSans-48"/>
      </g>
     </g>
    </g>
    <g id="xtick_5">
     <g id="line2d_9">
      <path clip-path="url(#pd15a02bae0)" d="M 326.687078 232.46 
L 326.687078 10.7 
" style="fill:none;stroke:#b0b0b0;stroke-dasharray:2.96,1.28;stroke-dashoffset:0;stroke-width:0.8;"/>
     </g>
     <g id="line2d_10">
      <g>
       <use style="stroke:#000000;stroke-width:0.8;" x="326.687078" xlink:href="#m20c2b80e22" y="232.46"/>
      </g>
     </g>
     <g id="text_5">
      <!-- 60 -->
      <defs>
       <path d="M 33.015625 40.375 
Q 26.375 40.375 22.484375 35.828125 
Q 18.609375 31.296875 18.609375 23.390625 
Q 18.609375 15.53125 22.484375 10.953125 
Q 26.375 6.390625 33.015625 6.390625 
Q 39.65625 6.390625 43.53125 10.953125 
Q 47.40625 15.53125 47.40625 23.390625 
Q 47.40625 31.296875 43.53125 35.828125 
Q 39.65625 40.375 33.015625 40.375 
z
M 52.59375 71.296875 
L 52.59375 62.3125 
Q 48.875 64.0625 45.09375 64.984375 
Q 41.3125 65.921875 37.59375 65.921875 
Q 27.828125 65.921875 22.671875 59.328125 
Q 17.53125 52.734375 16.796875 39.40625 
Q 19.671875 43.65625 24.015625 45.921875 
Q 28.375 48.1875 33.59375 48.1875 
Q 44.578125 48.1875 50.953125 41.515625 
Q 57.328125 34.859375 57.328125 23.390625 
Q 57.328125 12.15625 50.6875 5.359375 
Q 44.046875 -1.421875 33.015625 -1.421875 
Q 20.359375 -1.421875 13.671875 8.265625 
Q 6.984375 17.96875 6.984375 36.375 
Q 6.984375 53.65625 15.1875 63.9375 
Q 23.390625 74.21875 37.203125 74.21875 
Q 40.921875 74.21875 44.703125 73.484375 
Q 48.484375 72.75 52.59375 71.296875 
z
" id="DejaVuSans-54"/>
      </defs>
      <g transform="translate(320.324578 247.058437)scale(0.1 -0.1)">
       <use xlink:href="#DejaVuSans-54"/>
       <use x="63.623047" xlink:href="#DejaVuSans-48"/>
      </g>
     </g>
    </g>
    <g id="xtick_6">
     <g id="line2d_11">
      <path clip-path="url(#pd15a02bae0)" d="M 273.960307 232.46 
L 273.960307 10.7 
" style="fill:none;stroke:#b0b0b0;stroke-dasharray:2.96,1.28;stroke-dashoffset:0;stroke-width:0.8;"/>
     </g>
     <g id="line2d_12">
      <g>
       <use style="stroke:#000000;stroke-width:0.8;" x="273.960307" xlink:href="#m20c2b80e22" y="232.46"/>
      </g>
     </g>
     <g id="text_6">
      <!-- 80 -->
      <defs>
       <path d="M 31.78125 34.625 
Q 24.75 34.625 20.71875 30.859375 
Q 16.703125 27.09375 16.703125 20.515625 
Q 16.703125 13.921875 20.71875 10.15625 
Q 24.75 6.390625 31.78125 6.390625 
Q 38.8125 6.390625 42.859375 10.171875 
Q 46.921875 13.96875 46.921875 20.515625 
Q 46.921875 27.09375 42.890625 30.859375 
Q 38.875 34.625 31.78125 34.625 
z
M 21.921875 38.8125 
Q 15.578125 40.375 12.03125 44.71875 
Q 8.5 49.078125 8.5 55.328125 
Q 8.5 64.0625 14.71875 69.140625 
Q 20.953125 74.21875 31.78125 74.21875 
Q 42.671875 74.21875 48.875 69.140625 
Q 55.078125 64.0625 55.078125 55.328125 
Q 55.078125 49.078125 51.53125 44.71875 
Q 48 40.375 41.703125 38.8125 
Q 48.828125 37.15625 52.796875 32.3125 
Q 56.78125 27.484375 56.78125 20.515625 
Q 56.78125 9.90625 50.3125 4.234375 
Q 43.84375 -1.421875 31.78125 -1.421875 
Q 19.734375 -1.421875 13.25 4.234375 
Q 6.78125 9.90625 6.78125 20.515625 
Q 6.78125 27.484375 10.78125 32.3125 
Q 14.796875 37.15625 21.921875 38.8125 
z
M 18.3125 54.390625 
Q 18.3125 48.734375 21.84375 45.5625 
Q 25.390625 42.390625 31.78125 42.390625 
Q 38.140625 42.390625 41.71875 45.5625 
Q 45.3125 48.734375 45.3125 54.390625 
Q 45.3125 60.0625 41.71875 63.234375 
Q 38.140625 66.40625 31.78125 66.40625 
Q 25.390625 66.40625 21.84375 63.234375 
Q 18.3125 60.0625 18.3125 54.390625 
z
" id="DejaVuSans-56"/>
      </defs>
      <g transform="translate(267.597807 247.058437)scale(0.1 -0.1)">
       <use xlink:href="#DejaVuSans-56"/>
       <use x="63.623047" xlink:href="#DejaVuSans-48"/>
      </g>
     </g>
    </g>
    <g id="xtick_7">
     <g id="line2d_13">
      <path clip-path="url(#pd15a02bae0)" d="M 221.233536 232.46 
L 221.233536 10.7 
" style="fill:none;stroke:#b0b0b0;stroke-dasharray:2.96,1.28;stroke-dashoffset:0;stroke-width:0.8;"/>
     </g>
     <g id="line2d_14">
      <g>
       <use style="stroke:#000000;stroke-width:0.8;" x="221.233536" xlink:href="#m20c2b80e22" y="232.46"/>
      </g>
     </g>
     <g id="text_7">
      <!-- 100 -->
      <defs>
       <path d="M 12.40625 8.296875 
L 28.515625 8.296875 
L 28.515625 63.921875 
L 10.984375 60.40625 
L 10.984375 69.390625 
L 28.421875 72.90625 
L 38.28125 72.90625 
L 38.28125 8.296875 
L 54.390625 8.296875 
L 54.390625 0 
L 12.40625 0 
z
" id="DejaVuSans-49"/>
      </defs>
      <g transform="translate(211.689786 247.058437)scale(0.1 -0.1)">
       <use xlink:href="#DejaVuSans-49"/>
       <use x="63.623047" xlink:href="#DejaVuSans-48"/>
       <use x="127.246094" xlink:href="#DejaVuSans-48"/>
      </g>
     </g>
    </g>
    <g id="xtick_8">
     <g id="line2d_15">
      <path clip-path="url(#pd15a02bae0)" d="M 168.506765 232.46 
L 168.506765 10.7 
" style="fill:none;stroke:#b0b0b0;stroke-dasharray:2.96,1.28;stroke-dashoffset:0;stroke-width:0.8;"/>
     </g>
     <g id="line2d_16">
      <g>
       <use style="stroke:#000000;stroke-width:0.8;" x="168.506765" xlink:href="#m20c2b80e22" y="232.46"/>
      </g>
     </g>
     <g id="text_8">
      <!-- 120 -->
      <g transform="translate(158.963015 247.058437)scale(0.1 -0.1)">
       <use xlink:href="#DejaVuSans-49"/>
       <use x="63.623047" xlink:href="#DejaVuSans-50"/>
       <use x="127.246094" xlink:href="#DejaVuSans-48"/>
      </g>
     </g>
    </g>
    <g id="text_9">
     <!-- Relative difference in validation miss rate (%) -->
     <defs>
      <path d="M 47.90625 36.1875 
Q 51.3125 35.25 53.78125 33.03125 
Q 56.25 30.8125 58.203125 26.8125 
L 68.796875 5.171875 
L 77.6875 5.171875 
L 77.6875 0 
L 60.5 0 
L 49.125 23.1875 
Q 45.84375 29.9375 43.109375 31.90625 
Q 40.375 33.890625 35.59375 33.890625 
L 24.703125 33.890625 
L 24.703125 5.171875 
L 35.015625 5.171875 
L 35.015625 0 
L 5.515625 0 
L 5.515625 5.171875 
L 14.796875 5.171875 
L 14.796875 67.671875 
L 5.515625 67.671875 
L 5.515625 72.90625 
L 42.484375 72.90625 
Q 53.125 72.90625 58.90625 67.828125 
Q 64.703125 62.75 64.703125 53.421875 
Q 64.703125 45.90625 60.46875 41.578125 
Q 56.25 37.25 47.90625 36.1875 
z
M 24.703125 39.109375 
L 39.109375 39.109375 
Q 46.484375 39.109375 50 42.59375 
Q 53.515625 46.09375 53.515625 53.421875 
Q 53.515625 60.75 50 64.203125 
Q 46.484375 67.671875 39.109375 67.671875 
L 24.703125 67.671875 
z
" id="DejaVuSerif-82"/>
      <path d="M 54.203125 25 
L 15.484375 25 
L 15.484375 24.609375 
Q 15.484375 14.109375 19.4375 8.765625 
Q 23.390625 3.421875 31.109375 3.421875 
Q 37.015625 3.421875 40.796875 6.515625 
Q 44.578125 9.625 46.09375 15.71875 
L 53.328125 15.71875 
Q 51.171875 7.171875 45.375 2.875 
Q 39.59375 -1.421875 30.171875 -1.421875 
Q 18.796875 -1.421875 11.890625 6.078125 
Q 4.984375 13.578125 4.984375 25.984375 
Q 4.984375 38.28125 11.765625 45.796875 
Q 18.5625 53.328125 29.59375 53.328125 
Q 41.359375 53.328125 47.65625 46.0625 
Q 53.953125 38.8125 54.203125 25 
z
M 43.609375 30.171875 
Q 43.3125 39.265625 39.765625 43.875 
Q 36.234375 48.484375 29.59375 48.484375 
Q 23.390625 48.484375 19.828125 43.84375 
Q 16.265625 39.203125 15.484375 30.171875 
z
" id="DejaVuSerif-101"/>
      <path d="M 20.515625 5.171875 
L 29 5.171875 
L 29 0 
L 2.875 0 
L 2.875 5.171875 
L 11.53125 5.171875 
L 11.53125 70.796875 
L 2.875 70.796875 
L 2.875 75.984375 
L 20.515625 75.984375 
z
" id="DejaVuSerif-108"/>
      <path d="M 39.796875 16.3125 
L 39.796875 27.296875 
L 28.21875 27.296875 
Q 21.53125 27.296875 18.25 24.40625 
Q 14.984375 21.53125 14.984375 15.578125 
Q 14.984375 10.15625 18.296875 6.984375 
Q 21.625 3.8125 27.296875 3.8125 
Q 32.90625 3.8125 36.34375 7.28125 
Q 39.796875 10.75 39.796875 16.3125 
z
M 48.78125 32.421875 
L 48.78125 5.171875 
L 56.78125 5.171875 
L 56.78125 0 
L 39.796875 0 
L 39.796875 5.609375 
Q 36.8125 2 32.90625 0.28125 
Q 29 -1.421875 23.78125 -1.421875 
Q 15.140625 -1.421875 10.0625 3.171875 
Q 4.984375 7.765625 4.984375 15.578125 
Q 4.984375 23.640625 10.796875 28.078125 
Q 16.609375 32.515625 27.203125 32.515625 
L 39.796875 32.515625 
L 39.796875 36.078125 
Q 39.796875 42 36.203125 45.234375 
Q 32.625 48.484375 26.125 48.484375 
Q 20.75 48.484375 17.578125 46.046875 
Q 14.40625 43.609375 13.625 38.8125 
L 8.984375 38.8125 
L 8.984375 49.3125 
Q 13.671875 51.3125 18.09375 52.3125 
Q 22.515625 53.328125 26.703125 53.328125 
Q 37.5 53.328125 43.140625 47.96875 
Q 48.78125 42.625 48.78125 32.421875 
z
" id="DejaVuSerif-97"/>
      <path d="M 10.796875 46.6875 
L 2.875 46.6875 
L 2.875 51.90625 
L 10.796875 51.90625 
L 10.796875 68.015625 
L 19.828125 68.015625 
L 19.828125 51.90625 
L 36.71875 51.90625 
L 36.71875 46.6875 
L 19.828125 46.6875 
L 19.828125 13.71875 
Q 19.828125 7.125 21.09375 5.265625 
Q 22.359375 3.421875 25.78125 3.421875 
Q 29.296875 3.421875 30.90625 5.484375 
Q 32.515625 7.5625 32.625 12.203125 
L 39.40625 12.203125 
Q 39.015625 5.125 35.546875 1.84375 
Q 32.078125 -1.421875 25 -1.421875 
Q 17.234375 -1.421875 14.015625 2.015625 
Q 10.796875 5.46875 10.796875 13.71875 
z
" id="DejaVuSerif-116"/>
      <path d="M 9.71875 68.015625 
Q 9.71875 70.265625 11.34375 71.921875 
Q 12.984375 73.578125 15.28125 73.578125 
Q 17.53125 73.578125 19.15625 71.921875 
Q 20.796875 70.265625 20.796875 68.015625 
Q 20.796875 65.71875 19.1875 64.109375 
Q 17.578125 62.5 15.28125 62.5 
Q 12.984375 62.5 11.34375 64.109375 
Q 9.71875 65.71875 9.71875 68.015625 
z
M 21.1875 5.171875 
L 29.6875 5.171875 
L 29.6875 0 
L 3.609375 0 
L 3.609375 5.171875 
L 12.203125 5.171875 
L 12.203125 46.6875 
L 3.609375 46.6875 
L 3.609375 51.90625 
L 21.1875 51.90625 
z
" id="DejaVuSerif-105"/>
      <path d="M 24.703125 0 
L 5.609375 46.6875 
L -0.296875 46.6875 
L -0.296875 51.90625 
L 23.578125 51.90625 
L 23.578125 46.6875 
L 15.28125 46.6875 
L 29.890625 10.984375 
L 44.484375 46.6875 
L 36.71875 46.6875 
L 36.71875 51.90625 
L 56.203125 51.90625 
L 56.203125 46.6875 
L 50.390625 46.6875 
L 31.296875 0 
z
" id="DejaVuSerif-118"/>
      <path id="DejaVuSerif-32"/>
      <path d="M 52.484375 5.171875 
L 61.078125 5.171875 
L 61.078125 0 
L 43.5 0 
L 43.5 8.109375 
Q 40.875 3.21875 36.796875 0.890625 
Q 32.71875 -1.421875 26.703125 -1.421875 
Q 17.140625 -1.421875 11.0625 6.171875 
Q 4.984375 13.765625 4.984375 25.984375 
Q 4.984375 38.1875 11.03125 45.75 
Q 17.09375 53.328125 26.703125 53.328125 
Q 32.71875 53.328125 36.796875 51 
Q 40.875 48.6875 43.5 43.796875 
L 43.5 70.796875 
L 35.015625 70.796875 
L 35.015625 75.984375 
L 52.484375 75.984375 
z
M 43.5 23.390625 
L 43.5 28.515625 
Q 43.5 37.84375 39.90625 42.765625 
Q 36.328125 47.703125 29.5 47.703125 
Q 22.5625 47.703125 19.015625 42.234375 
Q 15.484375 36.765625 15.484375 25.984375 
Q 15.484375 15.234375 19.015625 9.71875 
Q 22.5625 4.203125 29.5 4.203125 
Q 36.328125 4.203125 39.90625 9.109375 
Q 43.5 14.015625 43.5 23.390625 
z
" id="DejaVuSerif-100"/>
      <path d="M 43.015625 63.71875 
L 38.28125 63.71875 
Q 38.234375 67.390625 36.203125 69.28125 
Q 34.1875 71.1875 30.328125 71.1875 
Q 25.296875 71.1875 23.234375 68.421875 
Q 21.1875 65.671875 21.1875 58.59375 
L 21.1875 51.90625 
L 35.6875 51.90625 
L 35.6875 46.6875 
L 21.1875 46.6875 
L 21.1875 5.171875 
L 32.71875 5.171875 
L 32.71875 0 
L 3.609375 0 
L 3.609375 5.171875 
L 12.203125 5.171875 
L 12.203125 46.6875 
L 3.609375 46.6875 
L 3.609375 51.90625 
L 12.203125 51.90625 
L 12.203125 58.40625 
Q 12.203125 67.09375 16.71875 71.53125 
Q 21.234375 75.984375 29.984375 75.984375 
Q 33.25 75.984375 36.515625 75.390625 
Q 39.796875 74.8125 43.015625 73.578125 
z
" id="DejaVuSerif-102"/>
      <path d="M 47.796875 52 
L 47.796875 39.015625 
L 42.625 39.015625 
Q 42.390625 42.875 40.484375 44.78125 
Q 38.578125 46.6875 34.90625 46.6875 
Q 28.265625 46.6875 24.71875 42.09375 
Q 21.1875 37.5 21.1875 28.90625 
L 21.1875 5.171875 
L 31.59375 5.171875 
L 31.59375 0 
L 4.109375 0 
L 4.109375 5.171875 
L 12.203125 5.171875 
L 12.203125 46.78125 
L 3.609375 46.78125 
L 3.609375 51.90625 
L 21.1875 51.90625 
L 21.1875 42.671875 
Q 23.828125 48.09375 27.96875 50.703125 
Q 32.125 53.328125 38.09375 53.328125 
Q 40.28125 53.328125 42.703125 52.984375 
Q 45.125 52.640625 47.796875 52 
z
" id="DejaVuSerif-114"/>
      <path d="M 4.109375 0 
L 4.109375 5.171875 
L 12.203125 5.171875 
L 12.203125 46.6875 
L 3.609375 46.6875 
L 3.609375 51.90625 
L 21.1875 51.90625 
L 21.1875 42.671875 
Q 23.6875 47.953125 27.65625 50.640625 
Q 31.640625 53.328125 36.921875 53.328125 
Q 45.515625 53.328125 49.5625 48.390625 
Q 53.609375 43.453125 53.609375 33.015625 
L 53.609375 5.171875 
L 61.625 5.171875 
L 61.625 0 
L 36.8125 0 
L 36.8125 5.171875 
L 44.578125 5.171875 
L 44.578125 30.171875 
Q 44.578125 39.703125 42.234375 43.234375 
Q 39.890625 46.78125 33.984375 46.78125 
Q 27.734375 46.78125 24.453125 42.203125 
Q 21.1875 37.640625 21.1875 28.90625 
L 21.1875 5.171875 
L 29 5.171875 
L 29 0 
z
" id="DejaVuSerif-110"/>
      <path d="M 51.421875 15.578125 
Q 49.515625 7.28125 44.09375 2.921875 
Q 38.671875 -1.421875 30.078125 -1.421875 
Q 18.75 -1.421875 11.859375 6.078125 
Q 4.984375 13.578125 4.984375 25.984375 
Q 4.984375 38.421875 11.859375 45.875 
Q 18.75 53.328125 30.078125 53.328125 
Q 35.015625 53.328125 39.890625 52.171875 
Q 44.78125 51.03125 49.703125 48.6875 
L 49.703125 35.40625 
L 44.484375 35.40625 
Q 43.453125 42.234375 40.015625 45.359375 
Q 36.578125 48.484375 30.171875 48.484375 
Q 22.90625 48.484375 19.1875 42.84375 
Q 15.484375 37.203125 15.484375 25.984375 
Q 15.484375 14.75 19.171875 9.078125 
Q 22.859375 3.421875 30.171875 3.421875 
Q 35.984375 3.421875 39.453125 6.4375 
Q 42.921875 9.46875 44.1875 15.578125 
z
" id="DejaVuSerif-99"/>
      <path d="M 30.078125 3.421875 
Q 37.3125 3.421875 40.984375 9.125 
Q 44.671875 14.84375 44.671875 25.984375 
Q 44.671875 37.109375 40.984375 42.796875 
Q 37.3125 48.484375 30.078125 48.484375 
Q 22.859375 48.484375 19.171875 42.796875 
Q 15.484375 37.109375 15.484375 25.984375 
Q 15.484375 14.84375 19.1875 9.125 
Q 22.90625 3.421875 30.078125 3.421875 
z
M 30.078125 -1.421875 
Q 18.75 -1.421875 11.859375 6.078125 
Q 4.984375 13.578125 4.984375 25.984375 
Q 4.984375 38.375 11.84375 45.84375 
Q 18.703125 53.328125 30.078125 53.328125 
Q 41.453125 53.328125 48.3125 45.84375 
Q 55.171875 38.375 55.171875 25.984375 
Q 55.171875 13.578125 48.3125 6.078125 
Q 41.453125 -1.421875 30.078125 -1.421875 
z
" id="DejaVuSerif-111"/>
      <path d="M 51.8125 41.796875 
Q 54.390625 47.515625 58.421875 50.421875 
Q 62.453125 53.328125 67.828125 53.328125 
Q 75.984375 53.328125 79.984375 48.265625 
Q 83.984375 43.21875 83.984375 33.015625 
L 83.984375 5.171875 
L 92.09375 5.171875 
L 92.09375 0 
L 67.1875 0 
L 67.1875 5.171875 
L 75 5.171875 
L 75 31.984375 
Q 75 39.9375 72.65625 43.3125 
Q 70.3125 46.6875 64.890625 46.6875 
Q 58.890625 46.6875 55.734375 42.140625 
Q 52.59375 37.59375 52.59375 28.90625 
L 52.59375 5.171875 
L 60.40625 5.171875 
L 60.40625 0 
L 35.796875 0 
L 35.796875 5.171875 
L 43.609375 5.171875 
L 43.609375 32.328125 
Q 43.609375 40.09375 41.265625 43.390625 
Q 38.921875 46.6875 33.5 46.6875 
Q 27.484375 46.6875 24.328125 42.140625 
Q 21.1875 37.59375 21.1875 28.90625 
L 21.1875 5.171875 
L 29 5.171875 
L 29 0 
L 4.109375 0 
L 4.109375 5.171875 
L 12.203125 5.171875 
L 12.203125 46.78125 
L 3.609375 46.78125 
L 3.609375 51.90625 
L 21.1875 51.90625 
L 21.1875 42.671875 
Q 23.6875 47.859375 27.53125 50.59375 
Q 31.390625 53.328125 36.28125 53.328125 
Q 42.328125 53.328125 46.375 50.3125 
Q 50.4375 47.3125 51.8125 41.796875 
z
" id="DejaVuSerif-109"/>
      <path d="M 5.609375 2.875 
L 5.609375 14.984375 
L 10.796875 14.984375 
Q 10.984375 9.1875 14.421875 6.296875 
Q 17.875 3.421875 24.609375 3.421875 
Q 30.671875 3.421875 33.84375 5.6875 
Q 37.015625 7.953125 37.015625 12.3125 
Q 37.015625 15.71875 34.6875 17.8125 
Q 32.375 19.921875 24.90625 22.3125 
L 18.40625 24.515625 
Q 11.71875 26.65625 8.71875 29.875 
Q 5.71875 33.109375 5.71875 38.09375 
Q 5.71875 45.21875 10.9375 49.265625 
Q 16.15625 53.328125 25.390625 53.328125 
Q 29.5 53.328125 34.03125 52.25 
Q 38.578125 51.171875 43.40625 49.125 
L 43.40625 37.796875 
L 38.234375 37.796875 
Q 38.03125 42.828125 34.703125 45.65625 
Q 31.390625 48.484375 25.6875 48.484375 
Q 20.015625 48.484375 17.109375 46.484375 
Q 14.203125 44.484375 14.203125 40.484375 
Q 14.203125 37.203125 16.40625 35.21875 
Q 18.609375 33.25 25.203125 31.203125 
L 32.328125 29 
Q 39.703125 26.703125 42.9375 23.265625 
Q 46.1875 19.828125 46.1875 14.40625 
Q 46.1875 7.03125 40.546875 2.796875 
Q 34.90625 -1.421875 25 -1.421875 
Q 19.96875 -1.421875 15.1875 -0.34375 
Q 10.40625 0.734375 5.609375 2.875 
z
" id="DejaVuSerif-115"/>
      <path d="M 31.890625 -15.578125 
Q 20.015625 -10.25 13.953125 1.296875 
Q 7.90625 12.84375 7.90625 30.171875 
Q 7.90625 47.5625 13.953125 59.109375 
Q 20.015625 70.65625 31.890625 75.984375 
L 31.890625 71.1875 
Q 24.359375 66.015625 21.09375 56.609375 
Q 17.828125 47.21875 17.828125 30.171875 
Q 17.828125 13.1875 21.09375 3.78125 
Q 24.359375 -5.609375 31.890625 -10.796875 
z
" id="DejaVuSerif-40"/>
      <path d="M 22.40625 69.671875 
Q 18.109375 69.671875 15.6875 65.625 
Q 13.28125 61.578125 13.28125 54.296875 
Q 13.28125 47.125 15.75 43.015625 
Q 18.21875 38.921875 22.40625 38.921875 
Q 26.5625 38.921875 28.96875 43 
Q 31.390625 47.078125 31.390625 54.296875 
Q 31.390625 61.53125 28.96875 65.59375 
Q 26.5625 69.671875 22.40625 69.671875 
z
M 72.703125 33.890625 
Q 68.453125 33.890625 66.03125 29.78125 
Q 63.625 25.6875 63.625 18.40625 
Q 63.625 11.234375 66.0625 7.15625 
Q 68.5 3.078125 72.703125 3.078125 
Q 76.90625 3.078125 79.296875 7.15625 
Q 81.6875 11.234375 81.6875 18.40625 
Q 81.6875 25.640625 79.265625 29.765625 
Q 76.859375 33.890625 72.703125 33.890625 
z
M 72.703125 38.28125 
Q 80.421875 38.28125 84.953125 32.90625 
Q 89.5 27.546875 89.5 18.40625 
Q 89.5 9.28125 84.9375 3.921875 
Q 80.375 -1.421875 72.703125 -1.421875 
Q 64.890625 -1.421875 60.34375 3.921875 
Q 55.8125 9.28125 55.8125 18.40625 
Q 55.8125 27.59375 60.375 32.9375 
Q 64.9375 38.28125 72.703125 38.28125 
z
M 66.609375 74.21875 
L 74.03125 74.21875 
L 28.421875 -1.421875 
L 21 -1.421875 
z
M 22.3125 74.21875 
Q 30.03125 74.21875 34.609375 68.875 
Q 39.203125 63.53125 39.203125 54.390625 
Q 39.203125 45.171875 34.640625 39.84375 
Q 30.078125 34.515625 22.3125 34.515625 
Q 14.546875 34.515625 10.03125 39.859375 
Q 5.515625 45.21875 5.515625 54.390625 
Q 5.515625 63.484375 10.046875 68.84375 
Q 14.59375 74.21875 22.3125 74.21875 
z
" id="DejaVuSerif-37"/>
      <path d="M 7.078125 -15.578125 
L 7.078125 -10.796875 
Q 14.59375 -5.609375 17.890625 3.78125 
Q 21.1875 13.1875 21.1875 30.171875 
Q 21.1875 47.21875 17.890625 56.609375 
Q 14.59375 66.015625 7.078125 71.1875 
L 7.078125 75.984375 
Q 19 70.65625 25.046875 59.109375 
Q 31.109375 47.5625 31.109375 30.171875 
Q 31.109375 12.84375 25.046875 1.296875 
Q 19 -10.25 7.078125 -15.578125 
z
" id="DejaVuSerif-41"/>
     </defs>
     <g transform="translate(239.039062 260.736562)scale(0.1 -0.1)">
      <use xlink:href="#DejaVuSerif-82"/>
      <use x="75.292969" xlink:href="#DejaVuSerif-101"/>
      <use x="134.472656" xlink:href="#DejaVuSerif-108"/>
      <use x="166.455078" xlink:href="#DejaVuSerif-97"/>
      <use x="226.074219" xlink:href="#DejaVuSerif-116"/>
      <use x="266.259766" xlink:href="#DejaVuSerif-105"/>
      <use x="298.242188" xlink:href="#DejaVuSerif-118"/>
      <use x="354.736328" xlink:href="#DejaVuSerif-101"/>
      <use x="413.916016" xlink:href="#DejaVuSerif-32"/>
      <use x="445.703125" xlink:href="#DejaVuSerif-100"/>
      <use x="509.716797" xlink:href="#DejaVuSerif-105"/>
      <use x="541.699219" xlink:href="#DejaVuSerif-102"/>
      <use x="578.710938" xlink:href="#DejaVuSerif-102"/>
      <use x="615.722656" xlink:href="#DejaVuSerif-101"/>
      <use x="674.902344" xlink:href="#DejaVuSerif-114"/>
      <use x="722.705078" xlink:href="#DejaVuSerif-101"/>
      <use x="781.884766" xlink:href="#DejaVuSerif-110"/>
      <use x="846.289062" xlink:href="#DejaVuSerif-99"/>
      <use x="902.294922" xlink:href="#DejaVuSerif-101"/>
      <use x="961.474609" xlink:href="#DejaVuSerif-32"/>
      <use x="993.261719" xlink:href="#DejaVuSerif-105"/>
      <use x="1025.244141" xlink:href="#DejaVuSerif-110"/>
      <use x="1089.648438" xlink:href="#DejaVuSerif-32"/>
      <use x="1121.435547" xlink:href="#DejaVuSerif-118"/>
      <use x="1177.929688" xlink:href="#DejaVuSerif-97"/>
      <use x="1237.548828" xlink:href="#DejaVuSerif-108"/>
      <use x="1269.53125" xlink:href="#DejaVuSerif-105"/>
      <use x="1301.513672" xlink:href="#DejaVuSerif-100"/>
      <use x="1365.527344" xlink:href="#DejaVuSerif-97"/>
      <use x="1425.146484" xlink:href="#DejaVuSerif-116"/>
      <use x="1465.332031" xlink:href="#DejaVuSerif-105"/>
      <use x="1497.314453" xlink:href="#DejaVuSerif-111"/>
      <use x="1557.519531" xlink:href="#DejaVuSerif-110"/>
      <use x="1621.923828" xlink:href="#DejaVuSerif-32"/>
      <use x="1653.710938" xlink:href="#DejaVuSerif-109"/>
      <use x="1748.535156" xlink:href="#DejaVuSerif-105"/>
      <use x="1780.517578" xlink:href="#DejaVuSerif-115"/>
      <use x="1831.835938" xlink:href="#DejaVuSerif-115"/>
      <use x="1883.154297" xlink:href="#DejaVuSerif-32"/>
      <use x="1914.941406" xlink:href="#DejaVuSerif-114"/>
      <use x="1962.744141" xlink:href="#DejaVuSerif-97"/>
      <use x="2022.363281" xlink:href="#DejaVuSerif-116"/>
      <use x="2062.548828" xlink:href="#DejaVuSerif-101"/>
      <use x="2121.728516" xlink:href="#DejaVuSerif-32"/>
      <use x="2153.515625" xlink:href="#DejaVuSerif-40"/>
      <use x="2192.529297" xlink:href="#DejaVuSerif-37"/>
      <use x="2287.548828" xlink:href="#DejaVuSerif-41"/>
     </g>
    </g>
   </g>
   <g id="matplotlib.axis_2">
    <g id="ytick_1">
     <g id="line2d_17">
      <path clip-path="url(#pd15a02bae0)" d="M 160.070312 216.62 
L 550.670313 216.62 
" style="fill:none;stroke:#b0b0b0;stroke-dasharray:2.96,1.28;stroke-dashoffset:0;stroke-width:0.8;"/>
     </g>
     <g id="line2d_18">
      <defs>
       <path d="M 0 0 
L -3.5 0 
" id="m035dd7d61d" style="stroke:#000000;stroke-width:0.8;"/>
      </defs>
      <g>
       <use style="stroke:#000000;stroke-width:0.8;" x="160.070312" xlink:href="#m035dd7d61d" y="216.62"/>
      </g>
     </g>
     <g id="text_10">
      <!-- previous state of the art [57] -->
      <defs>
       <path d="M 20.515625 28.515625 
L 20.515625 23.390625 
Q 20.515625 14.015625 24.09375 9.109375 
Q 27.6875 4.203125 34.515625 4.203125 
Q 41.40625 4.203125 44.9375 9.71875 
Q 48.484375 15.234375 48.484375 25.984375 
Q 48.484375 36.765625 44.9375 42.234375 
Q 41.40625 47.703125 34.515625 47.703125 
Q 27.6875 47.703125 24.09375 42.765625 
Q 20.515625 37.84375 20.515625 28.515625 
z
M 11.53125 46.6875 
L 2.875 46.6875 
L 2.875 51.90625 
L 20.515625 51.90625 
L 20.515625 43.796875 
Q 23.140625 48.6875 27.21875 51 
Q 31.296875 53.328125 37.3125 53.328125 
Q 46.875 53.328125 52.921875 45.75 
Q 58.984375 38.1875 58.984375 25.984375 
Q 58.984375 13.765625 52.921875 6.171875 
Q 46.875 -1.421875 37.3125 -1.421875 
Q 31.296875 -1.421875 27.21875 0.890625 
Q 23.140625 3.21875 20.515625 8.109375 
L 20.515625 -15.578125 
L 29 -15.578125 
L 29 -20.796875 
L 2.875 -20.796875 
L 2.875 -15.578125 
L 11.53125 -15.578125 
z
" id="DejaVuSerif-112"/>
       <path d="M 35.40625 51.90625 
L 52.203125 51.90625 
L 52.203125 5.171875 
L 60.6875 5.171875 
L 60.6875 0 
L 43.21875 0 
L 43.21875 9.1875 
Q 40.71875 4 36.765625 1.28125 
Q 32.8125 -1.421875 27.59375 -1.421875 
Q 18.953125 -1.421875 14.875 3.484375 
Q 10.796875 8.40625 10.796875 18.890625 
L 10.796875 46.6875 
L 2.6875 46.6875 
L 2.6875 51.90625 
L 19.828125 51.90625 
L 19.828125 21.6875 
Q 19.828125 12.203125 22.140625 8.6875 
Q 24.46875 5.171875 30.421875 5.171875 
Q 36.671875 5.171875 39.9375 9.765625 
Q 43.21875 14.359375 43.21875 23.09375 
L 43.21875 46.6875 
L 35.40625 46.6875 
z
" id="DejaVuSerif-117"/>
       <path d="M 4.109375 0 
L 4.109375 5.171875 
L 12.203125 5.171875 
L 12.203125 70.796875 
L 3.609375 70.796875 
L 3.609375 75.984375 
L 21.1875 75.984375 
L 21.1875 42.671875 
Q 23.6875 47.953125 27.65625 50.640625 
Q 31.640625 53.328125 36.921875 53.328125 
Q 45.515625 53.328125 49.5625 48.390625 
Q 53.609375 43.453125 53.609375 33.015625 
L 53.609375 5.171875 
L 61.625 5.171875 
L 61.625 0 
L 36.8125 0 
L 36.8125 5.171875 
L 44.578125 5.171875 
L 44.578125 30.171875 
Q 44.578125 39.703125 42.25 43.1875 
Q 39.9375 46.6875 33.984375 46.6875 
Q 27.734375 46.6875 24.453125 42.140625 
Q 21.1875 37.59375 21.1875 28.90625 
L 21.1875 5.171875 
L 29 5.171875 
L 29 0 
z
" id="DejaVuSerif-104"/>
       <path d="M 8.59375 75.984375 
L 31.296875 75.984375 
L 31.296875 70.796875 
L 17.921875 70.796875 
L 17.921875 -8.015625 
L 31.296875 -8.015625 
L 31.296875 -13.1875 
L 8.59375 -13.1875 
z
" id="DejaVuSerif-91"/>
       <path d="M 50.296875 72.90625 
L 50.296875 64.890625 
L 16.890625 64.890625 
L 16.890625 44 
Q 19.4375 45.75 22.828125 46.625 
Q 26.21875 47.515625 30.421875 47.515625 
Q 42.234375 47.515625 49.0625 40.96875 
Q 55.90625 34.421875 55.90625 23.09375 
Q 55.90625 11.53125 49 5.046875 
Q 42.09375 -1.421875 29.59375 -1.421875 
Q 24.5625 -1.421875 19.28125 -0.1875 
Q 14.015625 1.03125 8.5 3.515625 
L 8.5 17.671875 
L 14.015625 17.671875 
Q 14.453125 10.75 18.421875 7.078125 
Q 22.40625 3.421875 29.59375 3.421875 
Q 37.3125 3.421875 41.453125 8.5 
Q 45.609375 13.578125 45.609375 23.09375 
Q 45.609375 32.5625 41.484375 37.609375 
Q 37.359375 42.671875 29.59375 42.671875 
Q 25.203125 42.671875 21.84375 41.109375 
Q 18.5 39.546875 15.921875 36.28125 
L 11.71875 36.28125 
L 11.71875 72.90625 
z
" id="DejaVuSerif-53"/>
       <path d="M 56.390625 67.921875 
L 27.875 0 
L 20.609375 0 
L 47.796875 64.890625 
L 14.109375 64.890625 
L 14.109375 55.90625 
L 8.40625 55.90625 
L 8.40625 72.90625 
L 56.390625 72.90625 
z
" id="DejaVuSerif-55"/>
       <path d="M 30.421875 75.984375 
L 30.421875 -13.1875 
L 7.71875 -13.1875 
L 7.71875 -8.015625 
L 21.09375 -8.015625 
L 21.09375 70.796875 
L 7.71875 70.796875 
L 7.71875 75.984375 
z
" id="DejaVuSerif-93"/>
      </defs>
      <g transform="translate(7.2 220.419219)scale(0.1 -0.1)">
       <use xlink:href="#DejaVuSerif-112"/>
       <use x="64.013672" xlink:href="#DejaVuSerif-114"/>
       <use x="111.816406" xlink:href="#DejaVuSerif-101"/>
       <use x="170.996094" xlink:href="#DejaVuSerif-118"/>
       <use x="227.490234" xlink:href="#DejaVuSerif-105"/>
       <use x="259.472656" xlink:href="#DejaVuSerif-111"/>
       <use x="319.677734" xlink:href="#DejaVuSerif-117"/>
       <use x="384.082031" xlink:href="#DejaVuSerif-115"/>
       <use x="435.400391" xlink:href="#DejaVuSerif-32"/>
       <use x="467.1875" xlink:href="#DejaVuSerif-115"/>
       <use x="518.505859" xlink:href="#DejaVuSerif-116"/>
       <use x="558.691406" xlink:href="#DejaVuSerif-97"/>
       <use x="618.310547" xlink:href="#DejaVuSerif-116"/>
       <use x="658.496094" xlink:href="#DejaVuSerif-101"/>
       <use x="717.675781" xlink:href="#DejaVuSerif-32"/>
       <use x="749.462891" xlink:href="#DejaVuSerif-111"/>
       <use x="809.667969" xlink:href="#DejaVuSerif-102"/>
       <use x="846.679688" xlink:href="#DejaVuSerif-32"/>
       <use x="878.466797" xlink:href="#DejaVuSerif-116"/>
       <use x="918.652344" xlink:href="#DejaVuSerif-104"/>
       <use x="983.056641" xlink:href="#DejaVuSerif-101"/>
       <use x="1042.236328" xlink:href="#DejaVuSerif-32"/>
       <use x="1074.023438" xlink:href="#DejaVuSerif-97"/>
       <use x="1133.642578" xlink:href="#DejaVuSerif-114"/>
       <use x="1181.445312" xlink:href="#DejaVuSerif-116"/>
       <use x="1221.630859" xlink:href="#DejaVuSerif-32"/>
       <use x="1253.417969" xlink:href="#DejaVuSerif-91"/>
       <use x="1292.431641" xlink:href="#DejaVuSerif-53"/>
       <use x="1356.054688" xlink:href="#DejaVuSerif-55"/>
       <use x="1419.677734" xlink:href="#DejaVuSerif-93"/>
      </g>
     </g>
    </g>
    <g id="ytick_2">
     <g id="line2d_19">
      <path clip-path="url(#pd15a02bae0)" d="M 160.070312 184.94 
L 550.670313 184.94 
" style="fill:none;stroke:#b0b0b0;stroke-dasharray:2.96,1.28;stroke-dashoffset:0;stroke-width:0.8;"/>
     </g>
     <g id="line2d_20">
      <g>
       <use style="stroke:#000000;stroke-width:0.8;" x="160.070312" xlink:href="#m035dd7d61d" y="184.94"/>
      </g>
     </g>
     <g id="text_11">
      <!-- PCEN -->
      <defs>
       <path d="M 24.703125 37.109375 
L 37.59375 37.109375 
Q 44.875 37.109375 48.671875 41.03125 
Q 52.484375 44.96875 52.484375 52.390625 
Q 52.484375 59.859375 48.671875 63.765625 
Q 44.875 67.671875 37.59375 67.671875 
L 24.703125 67.671875 
z
M 5.515625 0 
L 5.515625 5.171875 
L 14.796875 5.171875 
L 14.796875 67.671875 
L 5.515625 67.671875 
L 5.515625 72.90625 
L 39.984375 72.90625 
Q 50.921875 72.90625 57.3125 67.359375 
Q 63.71875 61.8125 63.71875 52.390625 
Q 63.71875 43.015625 57.3125 37.453125 
Q 50.921875 31.890625 39.984375 31.890625 
L 24.703125 31.890625 
L 24.703125 5.171875 
L 35.984375 5.171875 
L 35.984375 0 
z
" id="DejaVuSerif-80"/>
       <path d="M 70.515625 19.28125 
Q 67.28125 9.078125 59.6875 3.828125 
Q 52.09375 -1.421875 40.484375 -1.421875 
Q 33.34375 -1.421875 27.234375 1.015625 
Q 21.140625 3.46875 16.40625 8.203125 
Q 10.9375 13.671875 8.265625 20.625 
Q 5.609375 27.59375 5.609375 36.375 
Q 5.609375 53.375 15.421875 63.796875 
Q 25.25 74.21875 41.3125 74.21875 
Q 47.265625 74.21875 54 72.65625 
Q 60.75 71.09375 68.5 67.921875 
L 68.5 51.125 
L 62.984375 51.125 
Q 61.1875 60.296875 55.734375 64.640625 
Q 50.296875 69 40.484375 69 
Q 28.8125 69 22.796875 60.71875 
Q 16.796875 52.4375 16.796875 36.375 
Q 16.796875 20.359375 22.796875 12.078125 
Q 28.8125 3.8125 40.484375 3.8125 
Q 48.640625 3.8125 53.90625 7.6875 
Q 59.1875 11.578125 61.53125 19.28125 
z
" id="DejaVuSerif-67"/>
       <path d="M 5.515625 0 
L 5.515625 5.171875 
L 14.796875 5.171875 
L 14.796875 67.671875 
L 5.515625 67.671875 
L 5.515625 72.90625 
L 64.203125 72.90625 
L 64.203125 56.6875 
L 58.203125 56.6875 
L 58.203125 66.890625 
L 24.703125 66.890625 
L 24.703125 42.484375 
L 48.578125 42.484375 
L 48.578125 51.609375 
L 54.59375 51.609375 
L 54.59375 27.390625 
L 48.578125 27.390625 
L 48.578125 36.53125 
L 24.703125 36.53125 
L 24.703125 6 
L 58.984375 6 
L 58.984375 16.21875 
L 64.984375 16.21875 
L 64.984375 0 
z
" id="DejaVuSerif-69"/>
       <path d="M 4.890625 0 
L 4.890625 5.171875 
L 14.703125 5.171875 
L 14.703125 67.671875 
L 4.890625 67.671875 
L 4.890625 72.90625 
L 23.578125 72.90625 
L 67.28125 15.375 
L 67.28125 67.671875 
L 57.515625 67.671875 
L 57.515625 72.90625 
L 83.109375 72.90625 
L 83.109375 67.671875 
L 73.296875 67.671875 
L 73.296875 -1.421875 
L 67.390625 -1.421875 
L 20.703125 60.015625 
L 20.703125 5.171875 
L 30.515625 5.171875 
L 30.515625 0 
z
" id="DejaVuSerif-78"/>
      </defs>
      <g transform="translate(122.640625 177.328125)scale(0.1 -0.1)">
       <use xlink:href="#DejaVuSerif-80"/>
       <use x="67.285156" xlink:href="#DejaVuSerif-67"/>
       <use x="143.798828" xlink:href="#DejaVuSerif-69"/>
       <use x="216.796875" xlink:href="#DejaVuSerif-78"/>
      </g>
      <!-- replaced by -->
      <defs>
       <path d="M 11.53125 5.171875 
L 11.53125 70.796875 
L 2.875 70.796875 
L 2.875 75.984375 
L 20.515625 75.984375 
L 20.515625 43.796875 
Q 23.140625 48.6875 27.21875 51 
Q 31.296875 53.328125 37.3125 53.328125 
Q 46.875 53.328125 52.921875 45.75 
Q 58.984375 38.1875 58.984375 25.984375 
Q 58.984375 13.765625 52.921875 6.171875 
Q 46.875 -1.421875 37.3125 -1.421875 
Q 31.296875 -1.421875 27.21875 0.890625 
Q 23.140625 3.21875 20.515625 8.109375 
L 20.515625 0 
L 2.875 0 
L 2.875 5.171875 
z
M 20.515625 23.390625 
Q 20.515625 14.015625 24.09375 9.109375 
Q 27.6875 4.203125 34.515625 4.203125 
Q 41.40625 4.203125 44.9375 9.71875 
Q 48.484375 15.234375 48.484375 25.984375 
Q 48.484375 36.765625 44.9375 42.234375 
Q 41.40625 47.703125 34.515625 47.703125 
Q 27.6875 47.703125 24.09375 42.765625 
Q 20.515625 37.84375 20.515625 28.515625 
z
" id="DejaVuSerif-98"/>
       <path d="M 21.578125 -9.515625 
L 25 -0.875 
L 5.609375 46.6875 
L -0.296875 46.6875 
L -0.296875 51.90625 
L 23.578125 51.90625 
L 23.578125 46.6875 
L 15.28125 46.6875 
L 29.890625 10.984375 
L 44.484375 46.6875 
L 36.71875 46.6875 
L 36.71875 51.90625 
L 56.203125 51.90625 
L 56.203125 46.6875 
L 50.390625 46.6875 
L 26.609375 -11.71875 
Q 24.171875 -17.78125 21.1875 -20 
Q 18.21875 -22.21875 12.796875 -22.21875 
Q 10.5 -22.21875 8.078125 -21.828125 
Q 5.671875 -21.4375 3.21875 -20.703125 
L 3.21875 -10.796875 
L 7.8125 -10.796875 
Q 8.109375 -14.109375 9.5 -15.546875 
Q 10.890625 -17 13.8125 -17 
Q 16.5 -17 18.140625 -15.5 
Q 19.78125 -14.015625 21.578125 -9.515625 
z
" id="DejaVuSerif-121"/>
      </defs>
      <g transform="translate(93.659375 188.525937)scale(0.1 -0.1)">
       <use xlink:href="#DejaVuSerif-114"/>
       <use x="47.802734" xlink:href="#DejaVuSerif-101"/>
       <use x="106.982422" xlink:href="#DejaVuSerif-112"/>
       <use x="170.996094" xlink:href="#DejaVuSerif-108"/>
       <use x="202.978516" xlink:href="#DejaVuSerif-97"/>
       <use x="262.597656" xlink:href="#DejaVuSerif-99"/>
       <use x="318.603516" xlink:href="#DejaVuSerif-101"/>
       <use x="377.783203" xlink:href="#DejaVuSerif-100"/>
       <use x="441.796875" xlink:href="#DejaVuSerif-32"/>
       <use x="473.583984" xlink:href="#DejaVuSerif-98"/>
       <use x="537.597656" xlink:href="#DejaVuSerif-121"/>
      </g>
      <!-- log-mel frontend -->
      <defs>
       <path d="M 52.484375 46.6875 
L 52.484375 1.125 
Q 52.484375 -10.0625 46.328125 -16.140625 
Q 40.1875 -22.21875 28.8125 -22.21875 
Q 23.6875 -22.21875 19 -21.28125 
Q 14.3125 -20.359375 10.015625 -18.5 
L 10.015625 -7.625 
L 14.703125 -7.625 
Q 15.578125 -12.703125 18.84375 -15.046875 
Q 22.125 -17.390625 28.21875 -17.390625 
Q 36.140625 -17.390625 39.8125 -12.921875 
Q 43.5 -8.453125 43.5 1.125 
L 43.5 8.109375 
Q 40.875 3.21875 36.796875 0.890625 
Q 32.71875 -1.421875 26.703125 -1.421875 
Q 17.140625 -1.421875 11.0625 6.171875 
Q 4.984375 13.765625 4.984375 25.984375 
Q 4.984375 38.1875 11.03125 45.75 
Q 17.09375 53.328125 26.703125 53.328125 
Q 32.71875 53.328125 36.796875 51 
Q 40.875 48.6875 43.5 43.796875 
L 43.5 51.90625 
L 61.078125 51.90625 
L 61.078125 46.6875 
z
M 43.5 28.515625 
Q 43.5 37.84375 39.90625 42.765625 
Q 36.328125 47.703125 29.5 47.703125 
Q 22.5625 47.703125 19.015625 42.234375 
Q 15.484375 36.765625 15.484375 25.984375 
Q 15.484375 15.234375 19.015625 9.71875 
Q 22.5625 4.203125 29.5 4.203125 
Q 36.328125 4.203125 39.90625 9.109375 
Q 43.5 14.015625 43.5 23.390625 
z
" id="DejaVuSerif-103"/>
       <path d="M 4.390625 30.609375 
L 29.390625 30.609375 
L 29.390625 23 
L 4.390625 23 
z
" id="DejaVuSerif-45"/>
      </defs>
      <g transform="translate(68.570312 199.865937)scale(0.1 -0.1)">
       <use xlink:href="#DejaVuSerif-108"/>
       <use x="31.982422" xlink:href="#DejaVuSerif-111"/>
       <use x="92.1875" xlink:href="#DejaVuSerif-103"/>
       <use x="156.201172" xlink:href="#DejaVuSerif-45"/>
       <use x="189.990234" xlink:href="#DejaVuSerif-109"/>
       <use x="284.814453" xlink:href="#DejaVuSerif-101"/>
       <use x="343.994141" xlink:href="#DejaVuSerif-108"/>
       <use x="375.976562" xlink:href="#DejaVuSerif-32"/>
       <use x="407.763672" xlink:href="#DejaVuSerif-102"/>
       <use x="444.775391" xlink:href="#DejaVuSerif-114"/>
       <use x="492.578125" xlink:href="#DejaVuSerif-111"/>
       <use x="552.783203" xlink:href="#DejaVuSerif-110"/>
       <use x="617.1875" xlink:href="#DejaVuSerif-116"/>
       <use x="657.373047" xlink:href="#DejaVuSerif-101"/>
       <use x="716.552734" xlink:href="#DejaVuSerif-110"/>
       <use x="780.957031" xlink:href="#DejaVuSerif-100"/>
      </g>
     </g>
    </g>
    <g id="ytick_3">
     <g id="line2d_21">
      <path clip-path="url(#pd15a02bae0)" d="M 160.070312 153.26 
L 550.670313 153.26 
" style="fill:none;stroke:#b0b0b0;stroke-dasharray:2.96,1.28;stroke-dashoffset:0;stroke-width:0.8;"/>
     </g>
     <g id="line2d_22">
      <g>
       <use style="stroke:#000000;stroke-width:0.8;" x="160.070312" xlink:href="#m035dd7d61d" y="153.26"/>
      </g>
     </g>
     <g id="text_12">
      <!-- no context adaptation -->
      <defs>
       <path d="M 29.109375 31.6875 
L 39.984375 46.6875 
L 33.015625 46.6875 
L 33.015625 51.90625 
L 52.984375 51.90625 
L 52.984375 46.6875 
L 46.09375 46.6875 
L 32.171875 27.484375 
L 48.390625 5.171875 
L 55.171875 5.171875 
L 55.171875 0 
L 31.203125 0 
L 31.203125 5.171875 
L 37.796875 5.171875 
L 26.515625 20.703125 
L 15.1875 5.171875 
L 21.921875 5.171875 
L 21.921875 0 
L 2.203125 0 
L 2.203125 5.171875 
L 9.078125 5.171875 
L 23.390625 24.90625 
L 7.625 46.6875 
L 1.21875 46.6875 
L 1.21875 51.90625 
L 24.421875 51.90625 
L 24.421875 46.6875 
L 18.21875 46.6875 
z
" id="DejaVuSerif-120"/>
      </defs>
      <g transform="translate(42.209375 157.059219)scale(0.1 -0.1)">
       <use xlink:href="#DejaVuSerif-110"/>
       <use x="64.404297" xlink:href="#DejaVuSerif-111"/>
       <use x="124.609375" xlink:href="#DejaVuSerif-32"/>
       <use x="156.396484" xlink:href="#DejaVuSerif-99"/>
       <use x="212.402344" xlink:href="#DejaVuSerif-111"/>
       <use x="272.607422" xlink:href="#DejaVuSerif-110"/>
       <use x="337.011719" xlink:href="#DejaVuSerif-116"/>
       <use x="377.197266" xlink:href="#DejaVuSerif-101"/>
       <use x="436.376953" xlink:href="#DejaVuSerif-120"/>
       <use x="492.773438" xlink:href="#DejaVuSerif-116"/>
       <use x="532.958984" xlink:href="#DejaVuSerif-32"/>
       <use x="564.746094" xlink:href="#DejaVuSerif-97"/>
       <use x="624.365234" xlink:href="#DejaVuSerif-100"/>
       <use x="688.378906" xlink:href="#DejaVuSerif-97"/>
       <use x="747.998047" xlink:href="#DejaVuSerif-112"/>
       <use x="812.011719" xlink:href="#DejaVuSerif-116"/>
       <use x="852.197266" xlink:href="#DejaVuSerif-97"/>
       <use x="911.816406" xlink:href="#DejaVuSerif-116"/>
       <use x="952.001953" xlink:href="#DejaVuSerif-105"/>
       <use x="983.984375" xlink:href="#DejaVuSerif-111"/>
       <use x="1044.189453" xlink:href="#DejaVuSerif-110"/>
      </g>
     </g>
    </g>
    <g id="ytick_4">
     <g id="line2d_23">
      <path clip-path="url(#pd15a02bae0)" d="M 160.070312 121.58 
L 550.670313 121.58 
" style="fill:none;stroke:#b0b0b0;stroke-dasharray:2.96,1.28;stroke-dashoffset:0;stroke-width:0.8;"/>
     </g>
     <g id="line2d_24">
      <g>
       <use style="stroke:#000000;stroke-width:0.8;" x="160.070312" xlink:href="#m035dd7d61d" y="121.58"/>
      </g>
     </g>
     <g id="text_13">
      <!-- addition of noise -->
      <g transform="translate(68.640625 114.039219)scale(0.1 -0.1)">
       <use xlink:href="#DejaVuSerif-97"/>
       <use x="59.619141" xlink:href="#DejaVuSerif-100"/>
       <use x="123.632812" xlink:href="#DejaVuSerif-100"/>
       <use x="187.646484" xlink:href="#DejaVuSerif-105"/>
       <use x="219.628906" xlink:href="#DejaVuSerif-116"/>
       <use x="259.814453" xlink:href="#DejaVuSerif-105"/>
       <use x="291.796875" xlink:href="#DejaVuSerif-111"/>
       <use x="352.001953" xlink:href="#DejaVuSerif-110"/>
       <use x="416.40625" xlink:href="#DejaVuSerif-32"/>
       <use x="448.193359" xlink:href="#DejaVuSerif-111"/>
       <use x="508.398438" xlink:href="#DejaVuSerif-102"/>
       <use x="545.410156" xlink:href="#DejaVuSerif-32"/>
       <use x="577.197266" xlink:href="#DejaVuSerif-110"/>
       <use x="641.601562" xlink:href="#DejaVuSerif-111"/>
       <use x="701.806641" xlink:href="#DejaVuSerif-105"/>
       <use x="733.789062" xlink:href="#DejaVuSerif-115"/>
       <use x="785.107422" xlink:href="#DejaVuSerif-101"/>
      </g>
      <!-- to frontend but not to -->
      <g transform="translate(43.217187 125.237031)scale(0.1 -0.1)">
       <use xlink:href="#DejaVuSerif-116"/>
       <use x="40.185547" xlink:href="#DejaVuSerif-111"/>
       <use x="100.390625" xlink:href="#DejaVuSerif-32"/>
       <use x="132.177734" xlink:href="#DejaVuSerif-102"/>
       <use x="169.189453" xlink:href="#DejaVuSerif-114"/>
       <use x="216.992188" xlink:href="#DejaVuSerif-111"/>
       <use x="277.197266" xlink:href="#DejaVuSerif-110"/>
       <use x="341.601562" xlink:href="#DejaVuSerif-116"/>
       <use x="381.787109" xlink:href="#DejaVuSerif-101"/>
       <use x="440.966797" xlink:href="#DejaVuSerif-110"/>
       <use x="505.371094" xlink:href="#DejaVuSerif-100"/>
       <use x="569.384766" xlink:href="#DejaVuSerif-32"/>
       <use x="601.171875" xlink:href="#DejaVuSerif-98"/>
       <use x="665.185547" xlink:href="#DejaVuSerif-117"/>
       <use x="729.589844" xlink:href="#DejaVuSerif-116"/>
       <use x="769.775391" xlink:href="#DejaVuSerif-32"/>
       <use x="801.5625" xlink:href="#DejaVuSerif-110"/>
       <use x="865.966797" xlink:href="#DejaVuSerif-111"/>
       <use x="926.171875" xlink:href="#DejaVuSerif-116"/>
       <use x="966.357422" xlink:href="#DejaVuSerif-32"/>
       <use x="998.144531" xlink:href="#DejaVuSerif-116"/>
       <use x="1038.330078" xlink:href="#DejaVuSerif-111"/>
      </g>
      <!-- auxiliary features -->
      <g transform="translate(63.990625 136.434844)scale(0.1 -0.1)">
       <use xlink:href="#DejaVuSerif-97"/>
       <use x="59.619141" xlink:href="#DejaVuSerif-117"/>
       <use x="124.023438" xlink:href="#DejaVuSerif-120"/>
       <use x="180.419922" xlink:href="#DejaVuSerif-105"/>
       <use x="212.402344" xlink:href="#DejaVuSerif-108"/>
       <use x="244.384766" xlink:href="#DejaVuSerif-105"/>
       <use x="276.367188" xlink:href="#DejaVuSerif-97"/>
       <use x="335.986328" xlink:href="#DejaVuSerif-114"/>
       <use x="383.789062" xlink:href="#DejaVuSerif-121"/>
       <use x="440.283203" xlink:href="#DejaVuSerif-32"/>
       <use x="472.070312" xlink:href="#DejaVuSerif-102"/>
       <use x="509.082031" xlink:href="#DejaVuSerif-101"/>
       <use x="568.261719" xlink:href="#DejaVuSerif-97"/>
       <use x="627.880859" xlink:href="#DejaVuSerif-116"/>
       <use x="668.066406" xlink:href="#DejaVuSerif-117"/>
       <use x="732.470703" xlink:href="#DejaVuSerif-114"/>
       <use x="780.273438" xlink:href="#DejaVuSerif-101"/>
       <use x="839.453125" xlink:href="#DejaVuSerif-115"/>
      </g>
     </g>
    </g>
    <g id="ytick_5">
     <g id="line2d_25">
      <path clip-path="url(#pd15a02bae0)" d="M 160.070312 89.9 
L 550.670313 89.9 
" style="fill:none;stroke:#b0b0b0;stroke-dasharray:2.96,1.28;stroke-dashoffset:0;stroke-width:0.8;"/>
     </g>
     <g id="line2d_26">
      <g>
       <use style="stroke:#000000;stroke-width:0.8;" x="160.070312" xlink:href="#m035dd7d61d" y="89.9"/>
      </g>
     </g>
     <g id="text_14">
      <!-- no data augmentation -->
      <g transform="translate(41.601562 93.699219)scale(0.1 -0.1)">
       <use xlink:href="#DejaVuSerif-110"/>
       <use x="64.404297" xlink:href="#DejaVuSerif-111"/>
       <use x="124.609375" xlink:href="#DejaVuSerif-32"/>
       <use x="156.396484" xlink:href="#DejaVuSerif-100"/>
       <use x="220.410156" xlink:href="#DejaVuSerif-97"/>
       <use x="280.029297" xlink:href="#DejaVuSerif-116"/>
       <use x="320.214844" xlink:href="#DejaVuSerif-97"/>
       <use x="379.833984" xlink:href="#DejaVuSerif-32"/>
       <use x="411.621094" xlink:href="#DejaVuSerif-97"/>
       <use x="471.240234" xlink:href="#DejaVuSerif-117"/>
       <use x="535.644531" xlink:href="#DejaVuSerif-103"/>
       <use x="599.658203" xlink:href="#DejaVuSerif-109"/>
       <use x="694.482422" xlink:href="#DejaVuSerif-101"/>
       <use x="753.662109" xlink:href="#DejaVuSerif-110"/>
       <use x="818.066406" xlink:href="#DejaVuSerif-116"/>
       <use x="858.251953" xlink:href="#DejaVuSerif-97"/>
       <use x="917.871094" xlink:href="#DejaVuSerif-116"/>
       <use x="958.056641" xlink:href="#DejaVuSerif-105"/>
       <use x="990.039062" xlink:href="#DejaVuSerif-111"/>
       <use x="1050.244141" xlink:href="#DejaVuSerif-110"/>
      </g>
     </g>
    </g>
    <g id="ytick_6">
     <g id="line2d_27">
      <path clip-path="url(#pd15a02bae0)" d="M 160.070312 58.22 
L 550.670313 58.22 
" style="fill:none;stroke:#b0b0b0;stroke-dasharray:2.96,1.28;stroke-dashoffset:0;stroke-width:0.8;"/>
     </g>
     <g id="line2d_28">
      <g>
       <use style="stroke:#000000;stroke-width:0.8;" x="160.070312" xlink:href="#m035dd7d61d" y="58.22"/>
      </g>
     </g>
     <g id="text_15">
      <!-- adaptive threshold -->
      <g transform="translate(58.028125 50.750312)scale(0.1 -0.1)">
       <use xlink:href="#DejaVuSerif-97"/>
       <use x="59.619141" xlink:href="#DejaVuSerif-100"/>
       <use x="123.632812" xlink:href="#DejaVuSerif-97"/>
       <use x="183.251953" xlink:href="#DejaVuSerif-112"/>
       <use x="247.265625" xlink:href="#DejaVuSerif-116"/>
       <use x="287.451172" xlink:href="#DejaVuSerif-105"/>
       <use x="319.433594" xlink:href="#DejaVuSerif-118"/>
       <use x="375.927734" xlink:href="#DejaVuSerif-101"/>
       <use x="435.107422" xlink:href="#DejaVuSerif-32"/>
       <use x="466.894531" xlink:href="#DejaVuSerif-116"/>
       <use x="507.080078" xlink:href="#DejaVuSerif-104"/>
       <use x="571.484375" xlink:href="#DejaVuSerif-114"/>
       <use x="619.287109" xlink:href="#DejaVuSerif-101"/>
       <use x="678.466797" xlink:href="#DejaVuSerif-115"/>
       <use x="729.785156" xlink:href="#DejaVuSerif-104"/>
       <use x="794.189453" xlink:href="#DejaVuSerif-111"/>
       <use x="854.394531" xlink:href="#DejaVuSerif-108"/>
       <use x="886.376953" xlink:href="#DejaVuSerif-100"/>
      </g>
      <!-- replaced by -->
      <g transform="translate(93.659375 61.948125)scale(0.1 -0.1)">
       <use xlink:href="#DejaVuSerif-114"/>
       <use x="47.802734" xlink:href="#DejaVuSerif-101"/>
       <use x="106.982422" xlink:href="#DejaVuSerif-112"/>
       <use x="170.996094" xlink:href="#DejaVuSerif-108"/>
       <use x="202.978516" xlink:href="#DejaVuSerif-97"/>
       <use x="262.597656" xlink:href="#DejaVuSerif-99"/>
       <use x="318.603516" xlink:href="#DejaVuSerif-101"/>
       <use x="377.783203" xlink:href="#DejaVuSerif-100"/>
       <use x="441.796875" xlink:href="#DejaVuSerif-32"/>
       <use x="473.583984" xlink:href="#DejaVuSerif-98"/>
       <use x="537.597656" xlink:href="#DejaVuSerif-121"/>
      </g>
      <!--  mixture of experts -->
      <g transform="translate(56.528125 73.288125)scale(0.1 -0.1)">
       <use xlink:href="#DejaVuSerif-32"/>
       <use x="31.787109" xlink:href="#DejaVuSerif-109"/>
       <use x="126.611328" xlink:href="#DejaVuSerif-105"/>
       <use x="158.59375" xlink:href="#DejaVuSerif-120"/>
       <use x="214.990234" xlink:href="#DejaVuSerif-116"/>
       <use x="255.175781" xlink:href="#DejaVuSerif-117"/>
       <use x="319.580078" xlink:href="#DejaVuSerif-114"/>
       <use x="367.382812" xlink:href="#DejaVuSerif-101"/>
       <use x="426.5625" xlink:href="#DejaVuSerif-32"/>
       <use x="458.349609" xlink:href="#DejaVuSerif-111"/>
       <use x="518.554688" xlink:href="#DejaVuSerif-102"/>
       <use x="555.566406" xlink:href="#DejaVuSerif-32"/>
       <use x="587.353516" xlink:href="#DejaVuSerif-101"/>
       <use x="646.533203" xlink:href="#DejaVuSerif-120"/>
       <use x="702.929688" xlink:href="#DejaVuSerif-112"/>
       <use x="766.943359" xlink:href="#DejaVuSerif-101"/>
       <use x="826.123047" xlink:href="#DejaVuSerif-114"/>
       <use x="873.925781" xlink:href="#DejaVuSerif-116"/>
       <use x="914.111328" xlink:href="#DejaVuSerif-115"/>
      </g>
     </g>
    </g>
    <g id="ytick_7">
     <g id="line2d_29">
      <path clip-path="url(#pd15a02bae0)" d="M 160.070312 26.54 
L 550.670313 26.54 
" style="fill:none;stroke:#b0b0b0;stroke-dasharray:2.96,1.28;stroke-dashoffset:0;stroke-width:0.8;"/>
     </g>
     <g id="line2d_30">
      <g>
       <use style="stroke:#000000;stroke-width:0.8;" x="160.070312" xlink:href="#m035dd7d61d" y="26.54"/>
      </g>
     </g>
     <g id="text_16">
      <!-- BirdVoxDetect -->
      <defs>
       <path d="M 19.671875 34.8125 
L 19.671875 8.109375 
L 35.5 8.109375 
Q 43.453125 8.109375 47.28125 11.40625 
Q 51.125 14.703125 51.125 21.484375 
Q 51.125 28.328125 47.28125 31.5625 
Q 43.453125 34.8125 35.5 34.8125 
z
M 19.671875 64.796875 
L 19.671875 42.828125 
L 34.28125 42.828125 
Q 41.5 42.828125 45.03125 45.53125 
Q 48.578125 48.25 48.578125 53.8125 
Q 48.578125 59.328125 45.03125 62.0625 
Q 41.5 64.796875 34.28125 64.796875 
z
M 9.8125 72.90625 
L 35.015625 72.90625 
Q 46.296875 72.90625 52.390625 68.21875 
Q 58.5 63.53125 58.5 54.890625 
Q 58.5 48.1875 55.375 44.234375 
Q 52.25 40.28125 46.1875 39.3125 
Q 53.46875 37.75 57.5 32.78125 
Q 61.53125 27.828125 61.53125 20.40625 
Q 61.53125 10.640625 54.890625 5.3125 
Q 48.25 0 35.984375 0 
L 9.8125 0 
z
" id="DejaVuSans-66"/>
       <path d="M 9.421875 54.6875 
L 18.40625 54.6875 
L 18.40625 0 
L 9.421875 0 
z
M 9.421875 75.984375 
L 18.40625 75.984375 
L 18.40625 64.59375 
L 9.421875 64.59375 
z
" id="DejaVuSans-105"/>
       <path d="M 41.109375 46.296875 
Q 39.59375 47.171875 37.8125 47.578125 
Q 36.03125 48 33.890625 48 
Q 26.265625 48 22.1875 43.046875 
Q 18.109375 38.09375 18.109375 28.8125 
L 18.109375 0 
L 9.078125 0 
L 9.078125 54.6875 
L 18.109375 54.6875 
L 18.109375 46.1875 
Q 20.953125 51.171875 25.484375 53.578125 
Q 30.03125 56 36.53125 56 
Q 37.453125 56 38.578125 55.875 
Q 39.703125 55.765625 41.0625 55.515625 
z
" id="DejaVuSans-114"/>
       <path d="M 45.40625 46.390625 
L 45.40625 75.984375 
L 54.390625 75.984375 
L 54.390625 0 
L 45.40625 0 
L 45.40625 8.203125 
Q 42.578125 3.328125 38.25 0.953125 
Q 33.9375 -1.421875 27.875 -1.421875 
Q 17.96875 -1.421875 11.734375 6.484375 
Q 5.515625 14.40625 5.515625 27.296875 
Q 5.515625 40.1875 11.734375 48.09375 
Q 17.96875 56 27.875 56 
Q 33.9375 56 38.25 53.625 
Q 42.578125 51.265625 45.40625 46.390625 
z
M 14.796875 27.296875 
Q 14.796875 17.390625 18.875 11.75 
Q 22.953125 6.109375 30.078125 6.109375 
Q 37.203125 6.109375 41.296875 11.75 
Q 45.40625 17.390625 45.40625 27.296875 
Q 45.40625 37.203125 41.296875 42.84375 
Q 37.203125 48.484375 30.078125 48.484375 
Q 22.953125 48.484375 18.875 42.84375 
Q 14.796875 37.203125 14.796875 27.296875 
z
" id="DejaVuSans-100"/>
       <path d="M 28.609375 0 
L 0.78125 72.90625 
L 11.078125 72.90625 
L 34.1875 11.53125 
L 57.328125 72.90625 
L 67.578125 72.90625 
L 39.796875 0 
z
" id="DejaVuSans-86"/>
       <path d="M 30.609375 48.390625 
Q 23.390625 48.390625 19.1875 42.75 
Q 14.984375 37.109375 14.984375 27.296875 
Q 14.984375 17.484375 19.15625 11.84375 
Q 23.34375 6.203125 30.609375 6.203125 
Q 37.796875 6.203125 41.984375 11.859375 
Q 46.1875 17.53125 46.1875 27.296875 
Q 46.1875 37.015625 41.984375 42.703125 
Q 37.796875 48.390625 30.609375 48.390625 
z
M 30.609375 56 
Q 42.328125 56 49.015625 48.375 
Q 55.71875 40.765625 55.71875 27.296875 
Q 55.71875 13.875 49.015625 6.21875 
Q 42.328125 -1.421875 30.609375 -1.421875 
Q 18.84375 -1.421875 12.171875 6.21875 
Q 5.515625 13.875 5.515625 27.296875 
Q 5.515625 40.765625 12.171875 48.375 
Q 18.84375 56 30.609375 56 
z
" id="DejaVuSans-111"/>
       <path d="M 54.890625 54.6875 
L 35.109375 28.078125 
L 55.90625 0 
L 45.3125 0 
L 29.390625 21.484375 
L 13.484375 0 
L 2.875 0 
L 24.125 28.609375 
L 4.6875 54.6875 
L 15.28125 54.6875 
L 29.78125 35.203125 
L 44.28125 54.6875 
z
" id="DejaVuSans-120"/>
       <path d="M 19.671875 64.796875 
L 19.671875 8.109375 
L 31.59375 8.109375 
Q 46.6875 8.109375 53.6875 14.9375 
Q 60.6875 21.78125 60.6875 36.53125 
Q 60.6875 51.171875 53.6875 57.984375 
Q 46.6875 64.796875 31.59375 64.796875 
z
M 9.8125 72.90625 
L 30.078125 72.90625 
Q 51.265625 72.90625 61.171875 64.09375 
Q 71.09375 55.28125 71.09375 36.53125 
Q 71.09375 17.671875 61.125 8.828125 
Q 51.171875 0 30.078125 0 
L 9.8125 0 
z
" id="DejaVuSans-68"/>
       <path d="M 56.203125 29.59375 
L 56.203125 25.203125 
L 14.890625 25.203125 
Q 15.484375 15.921875 20.484375 11.0625 
Q 25.484375 6.203125 34.421875 6.203125 
Q 39.59375 6.203125 44.453125 7.46875 
Q 49.3125 8.734375 54.109375 11.28125 
L 54.109375 2.78125 
Q 49.265625 0.734375 44.1875 -0.34375 
Q 39.109375 -1.421875 33.890625 -1.421875 
Q 20.796875 -1.421875 13.15625 6.1875 
Q 5.515625 13.8125 5.515625 26.8125 
Q 5.515625 40.234375 12.765625 48.109375 
Q 20.015625 56 32.328125 56 
Q 43.359375 56 49.78125 48.890625 
Q 56.203125 41.796875 56.203125 29.59375 
z
M 47.21875 32.234375 
Q 47.125 39.59375 43.09375 43.984375 
Q 39.0625 48.390625 32.421875 48.390625 
Q 24.90625 48.390625 20.390625 44.140625 
Q 15.875 39.890625 15.1875 32.171875 
z
" id="DejaVuSans-101"/>
       <path d="M 18.3125 70.21875 
L 18.3125 54.6875 
L 36.8125 54.6875 
L 36.8125 47.703125 
L 18.3125 47.703125 
L 18.3125 18.015625 
Q 18.3125 11.328125 20.140625 9.421875 
Q 21.96875 7.515625 27.59375 7.515625 
L 36.8125 7.515625 
L 36.8125 0 
L 27.59375 0 
Q 17.1875 0 13.234375 3.875 
Q 9.28125 7.765625 9.28125 18.015625 
L 9.28125 47.703125 
L 2.6875 47.703125 
L 2.6875 54.6875 
L 9.28125 54.6875 
L 9.28125 70.21875 
z
" id="DejaVuSans-116"/>
       <path d="M 48.78125 52.59375 
L 48.78125 44.1875 
Q 44.96875 46.296875 41.140625 47.34375 
Q 37.3125 48.390625 33.40625 48.390625 
Q 24.65625 48.390625 19.8125 42.84375 
Q 14.984375 37.3125 14.984375 27.296875 
Q 14.984375 17.28125 19.8125 11.734375 
Q 24.65625 6.203125 33.40625 6.203125 
Q 37.3125 6.203125 41.140625 7.25 
Q 44.96875 8.296875 48.78125 10.40625 
L 48.78125 2.09375 
Q 45.015625 0.34375 40.984375 -0.53125 
Q 36.96875 -1.421875 32.421875 -1.421875 
Q 20.0625 -1.421875 12.78125 6.34375 
Q 5.515625 14.109375 5.515625 27.296875 
Q 5.515625 40.671875 12.859375 48.328125 
Q 20.21875 56 33.015625 56 
Q 37.15625 56 41.109375 55.140625 
Q 45.0625 54.296875 48.78125 52.59375 
z
" id="DejaVuSans-99"/>
      </defs>
      <g transform="translate(80.765625 30.339219)scale(0.1 -0.1)">
       <use xlink:href="#DejaVuSans-66"/>
       <use x="68.603516" xlink:href="#DejaVuSans-105"/>
       <use x="96.386719" xlink:href="#DejaVuSans-114"/>
       <use x="137.484375" xlink:href="#DejaVuSans-100"/>
       <use x="200.960938" xlink:href="#DejaVuSans-86"/>
       <use x="269.259766" xlink:href="#DejaVuSans-111"/>
       <use x="330.394531" xlink:href="#DejaVuSans-120"/>
       <use x="389.574219" xlink:href="#DejaVuSans-68"/>
       <use x="466.576172" xlink:href="#DejaVuSans-101"/>
       <use x="528.099609" xlink:href="#DejaVuSans-116"/>
       <use x="567.308594" xlink:href="#DejaVuSans-101"/>
       <use x="628.832031" xlink:href="#DejaVuSans-99"/>
       <use x="683.8125" xlink:href="#DejaVuSans-116"/>
      </g>
     </g>
    </g>
   </g>
   <g id="line2d_31">
    <path clip-path="url(#pd15a02bae0)" d="M 484.867391 232.46 
L 484.867391 10.7 
" style="fill:none;stroke:#009900;stroke-dasharray:5.55,2.4;stroke-dashoffset:0;stroke-width:1.5;"/>
   </g>
   <g id="line2d_32">
    <defs>
     <path d="M -0 7.071068 
L 4.242641 0 
L -0 -7.071068 
L -4.242641 -0 
z
" id="m7c9c71a257" style="stroke:#009900;stroke-linejoin:miter;"/>
    </defs>
    <g clip-path="url(#pd15a02bae0)">
     <use style="fill:#009900;stroke:#009900;stroke-linejoin:miter;" x="484.867391" xlink:href="#m7c9c71a257" y="26.54"/>
    </g>
   </g>
   <g id="line2d_33">
    <defs>
     <path d="M 0 3 
C 0.795609 3 1.55874 2.683901 2.12132 2.12132 
C 2.683901 1.55874 3 0.795609 3 0 
C 3 -0.795609 2.683901 -1.55874 2.12132 -2.12132 
C 1.55874 -2.683901 0.795609 -3 0 -3 
C -0.795609 -3 -1.55874 -2.683901 -2.12132 -2.12132 
C -2.683901 -1.55874 -3 -0.795609 -3 0 
C -3 0.795609 -2.683901 1.55874 -2.12132 2.12132 
C -1.55874 2.683901 -0.795609 3 0 3 
z
" id="mf7483b2508" style="stroke:#cb0003;"/>
    </defs>
    <g clip-path="url(#pd15a02bae0)">
     <use style="fill:#cb0003;stroke:#cb0003;" x="378.860771" xlink:href="#mf7483b2508" y="216.62"/>
     <use style="fill:#cb0003;stroke:#cb0003;" x="411.123655" xlink:href="#mf7483b2508" y="184.94"/>
     <use style="fill:#cb0003;stroke:#cb0003;" x="481.180204" xlink:href="#mf7483b2508" y="153.26"/>
     <use style="fill:#cb0003;stroke:#cb0003;" x="398.218501" xlink:href="#mf7483b2508" y="121.58"/>
     <use style="fill:#cb0003;stroke:#cb0003;" x="444.308336" xlink:href="#mf7483b2508" y="89.9"/>
     <use style="fill:#cb0003;stroke:#cb0003;" x="476.110322" xlink:href="#mf7483b2508" y="58.22"/>
    </g>
   </g>
   <g id="line2d_34">
    <defs>
     <path d="M 0 3 
C 0.795609 3 1.55874 2.683901 2.12132 2.12132 
C 2.683901 1.55874 3 0.795609 3 0 
C 3 -0.795609 2.683901 -1.55874 2.12132 -2.12132 
C 1.55874 -2.683901 0.795609 -3 0 -3 
C -0.795609 -3 -1.55874 -2.683901 -2.12132 -2.12132 
C -2.683901 -1.55874 -3 -0.795609 -3 0 
C -3 0.795609 -2.683901 1.55874 -2.12132 2.12132 
C -1.55874 2.683901 -0.795609 3 0 3 
z
" id="mb91928185e" style="stroke:#e67300;"/>
    </defs>
    <g clip-path="url(#pd15a02bae0)">
     <use style="fill:#e67300;stroke:#e67300;" x="177.824858" xlink:href="#mb91928185e" y="216.62"/>
     <use style="fill:#e67300;stroke:#e67300;" x="360.550392" xlink:href="#mb91928185e" y="184.94"/>
     <use style="fill:#e67300;stroke:#e67300;" x="395.550059" xlink:href="#mb91928185e" y="153.26"/>
     <use style="fill:#e67300;stroke:#e67300;" x="446.685936" xlink:href="#mb91928185e" y="121.58"/>
     <use style="fill:#e67300;stroke:#e67300;" x="449.867724" xlink:href="#mb91928185e" y="89.9"/>
     <use style="fill:#e67300;stroke:#e67300;" x="335.55063" xlink:href="#mb91928185e" y="58.22"/>
    </g>
   </g>
   <g id="line2d_35">
    <defs>
     <path d="M 0 3 
C 0.795609 3 1.55874 2.683901 2.12132 2.12132 
C 2.683901 1.55874 3 0.795609 3 0 
C 3 -0.795609 2.683901 -1.55874 2.12132 -2.12132 
C 1.55874 -2.683901 0.795609 -3 0 -3 
C -0.795609 -3 -1.55874 -2.683901 -2.12132 -2.12132 
C -2.683901 -1.55874 -3 -0.795609 -3 0 
C -3 0.795609 -2.683901 1.55874 -2.12132 2.12132 
C -1.55874 2.683901 -0.795609 3 0 3 
z
" id="ma388353097" style="stroke:#990099;"/>
    </defs>
    <g clip-path="url(#pd15a02bae0)">
     <use style="fill:#990099;stroke:#990099;" x="198.674584" xlink:href="#ma388353097" y="216.62"/>
     <use style="fill:#990099;stroke:#990099;" x="263.866132" xlink:href="#ma388353097" y="184.94"/>
     <use style="fill:#990099;stroke:#990099;" x="422.925861" xlink:href="#ma388353097" y="153.26"/>
     <use style="fill:#990099;stroke:#990099;" x="453.705448" xlink:href="#ma388353097" y="121.58"/>
     <use style="fill:#990099;stroke:#990099;" x="393.484517" xlink:href="#ma388353097" y="89.9"/>
     <use style="fill:#990099;stroke:#990099;" x="459.05842" xlink:href="#ma388353097" y="58.22"/>
    </g>
   </g>
   <g id="line2d_36">
    <defs>
     <path d="M 0 3 
C 0.795609 3 1.55874 2.683901 2.12132 2.12132 
C 2.683901 1.55874 3 0.795609 3 0 
C 3 -0.795609 2.683901 -1.55874 2.12132 -2.12132 
C 1.55874 -2.683901 0.795609 -3 0 -3 
C -0.795609 -3 -1.55874 -2.683901 -2.12132 -2.12132 
C -2.683901 -1.55874 -3 -0.795609 -3 0 
C -3 0.795609 -2.683901 1.55874 -2.12132 2.12132 
C -1.55874 2.683901 -0.795609 3 0 3 
z
" id="mf2760bf9f3" style="stroke:#0000b2;"/>
    </defs>
    <g clip-path="url(#pd15a02bae0)">
     <use style="fill:#0000b2;stroke:#0000b2;" x="476.591888" xlink:href="#mf2760bf9f3" y="216.62"/>
     <use style="fill:#0000b2;stroke:#0000b2;" x="446.24838" xlink:href="#mf2760bf9f3" y="184.94"/>
     <use style="fill:#0000b2;stroke:#0000b2;" x="400.536083" xlink:href="#mf2760bf9f3" y="153.26"/>
     <use style="fill:#0000b2;stroke:#0000b2;" x="240.543041" xlink:href="#mf2760bf9f3" y="121.58"/>
     <use style="fill:#0000b2;stroke:#0000b2;" x="452.553525" xlink:href="#mf2760bf9f3" y="89.9"/>
     <use style="fill:#0000b2;stroke:#0000b2;" x="466.346029" xlink:href="#mf2760bf9f3" y="58.22"/>
    </g>
   </g>
   <g id="line2d_37">
    <defs>
     <path d="M 0 3 
C 0.795609 3 1.55874 2.683901 2.12132 2.12132 
C 2.683901 1.55874 3 0.795609 3 0 
C 3 -0.795609 2.683901 -1.55874 2.12132 -2.12132 
C 1.55874 -2.683901 0.795609 -3 0 -3 
C -0.795609 -3 -1.55874 -2.683901 -2.12132 -2.12132 
C -2.683901 -1.55874 -3 -0.795609 -3 0 
C -3 0.795609 -2.683901 1.55874 -2.12132 2.12132 
C -1.55874 2.683901 -0.795609 3 0 3 
z
" id="m7e41a3182d" style="stroke:#009900;"/>
    </defs>
    <g clip-path="url(#pd15a02bae0)">
     <use style="fill:#009900;stroke:#009900;" x="373.045166" xlink:href="#m7e41a3182d" y="216.62"/>
     <use style="fill:#009900;stroke:#009900;" x="234.563337" xlink:href="#m7e41a3182d" y="184.94"/>
     <use style="fill:#009900;stroke:#009900;" x="346.385562" xlink:href="#m7e41a3182d" y="153.26"/>
     <use style="fill:#009900;stroke:#009900;" x="410.072392" xlink:href="#m7e41a3182d" y="121.58"/>
     <use style="fill:#009900;stroke:#009900;" x="467.834866" xlink:href="#m7e41a3182d" y="89.9"/>
     <use style="fill:#009900;stroke:#009900;" x="345.645018" xlink:href="#m7e41a3182d" y="58.22"/>
    </g>
   </g>
   <g id="line2d_38">
    <defs>
     <path d="M 0 3 
C 0.795609 3 1.55874 2.683901 2.12132 2.12132 
C 2.683901 1.55874 3 0.795609 3 0 
C 3 -0.795609 2.683901 -1.55874 2.12132 -2.12132 
C 1.55874 -2.683901 0.795609 -3 0 -3 
C -0.795609 -3 -1.55874 -2.683901 -2.12132 -2.12132 
C -2.683901 -1.55874 -3 -0.795609 -3 0 
C -3 0.795609 -2.683901 1.55874 -2.12132 2.12132 
C -1.55874 2.683901 -0.795609 3 0 3 
z
" id="mba056658f1" style="stroke:#555555;"/>
    </defs>
    <g clip-path="url(#pd15a02bae0)">
     <use style="fill:#555555;stroke:#555555;" x="242.096647" xlink:href="#mba056658f1" y="216.62"/>
     <use style="fill:#555555;stroke:#555555;" x="190.887193" xlink:href="#mba056658f1" y="184.94"/>
     <use style="fill:#555555;stroke:#555555;" x="251.579879" xlink:href="#mba056658f1" y="153.26"/>
     <use style="fill:#555555;stroke:#555555;" x="374.229682" xlink:href="#mba056658f1" y="121.58"/>
     <use style="fill:#555555;stroke:#555555;" x="393.828362" xlink:href="#mba056658f1" y="89.9"/>
     <use style="fill:#555555;stroke:#555555;" x="532.915767" xlink:href="#mba056658f1" y="58.22"/>
    </g>
   </g>
   <g id="line2d_39">
    <path clip-path="url(#pd15a02bae0)" d="M 377.406869 224.54 
L 377.406869 208.7 
L 209.530099 208.7 
L 209.530099 224.54 
L 377.406869 224.54 
" style="fill:none;stroke:#000000;stroke-linecap:square;"/>
   </g>
   <g id="line2d_40">
    <path clip-path="url(#pd15a02bae0)" d="M 377.406869 216.62 
L 476.591888 216.62 
" style="fill:none;stroke:#000000;stroke-linecap:square;"/>
   </g>
   <g id="line2d_41">
    <path clip-path="url(#pd15a02bae0)" d="M 209.530099 216.62 
L 177.824858 216.62 
" style="fill:none;stroke:#000000;stroke-linecap:square;"/>
   </g>
   <g id="line2d_42">
    <path clip-path="url(#pd15a02bae0)" d="M 476.591888 220.58 
L 476.591888 212.66 
" style="fill:none;stroke:#000000;stroke-linecap:square;"/>
   </g>
   <g id="line2d_43">
    <path clip-path="url(#pd15a02bae0)" d="M 177.824858 220.58 
L 177.824858 212.66 
" style="fill:none;stroke:#000000;stroke-linecap:square;"/>
   </g>
   <g id="line2d_44"/>
   <g id="line2d_45">
    <path clip-path="url(#pd15a02bae0)" d="M 398.480339 192.86 
L 398.480339 177.02 
L 241.889036 177.02 
L 241.889036 192.86 
L 398.480339 192.86 
" style="fill:none;stroke:#000000;stroke-linecap:square;"/>
   </g>
   <g id="line2d_46">
    <path clip-path="url(#pd15a02bae0)" d="M 398.480339 184.94 
L 446.24838 184.94 
" style="fill:none;stroke:#000000;stroke-linecap:square;"/>
   </g>
   <g id="line2d_47">
    <path clip-path="url(#pd15a02bae0)" d="M 241.889036 184.94 
L 190.887193 184.94 
" style="fill:none;stroke:#000000;stroke-linecap:square;"/>
   </g>
   <g id="line2d_48">
    <path clip-path="url(#pd15a02bae0)" d="M 446.24838 188.9 
L 446.24838 180.98 
" style="fill:none;stroke:#000000;stroke-linecap:square;"/>
   </g>
   <g id="line2d_49">
    <path clip-path="url(#pd15a02bae0)" d="M 190.887193 188.9 
L 190.887193 180.98 
" style="fill:none;stroke:#000000;stroke-linecap:square;"/>
   </g>
   <g id="line2d_50"/>
   <g id="line2d_51">
    <path clip-path="url(#pd15a02bae0)" d="M 417.328417 161.18 
L 417.328417 145.34 
L 358.676686 145.34 
L 358.676686 161.18 
L 417.328417 161.18 
" style="fill:none;stroke:#000000;stroke-linecap:square;"/>
   </g>
   <g id="line2d_52">
    <path clip-path="url(#pd15a02bae0)" d="M 417.328417 153.26 
L 481.180204 153.26 
" style="fill:none;stroke:#000000;stroke-linecap:square;"/>
   </g>
   <g id="line2d_53">
    <path clip-path="url(#pd15a02bae0)" d="M 358.676686 153.26 
L 251.579879 153.26 
" style="fill:none;stroke:#000000;stroke-linecap:square;"/>
   </g>
   <g id="line2d_54">
    <path clip-path="url(#pd15a02bae0)" d="M 481.180204 157.22 
L 481.180204 149.3 
" style="fill:none;stroke:#000000;stroke-linecap:square;"/>
   </g>
   <g id="line2d_55">
    <path clip-path="url(#pd15a02bae0)" d="M 251.579879 157.22 
L 251.579879 149.3 
" style="fill:none;stroke:#000000;stroke-linecap:square;"/>
   </g>
   <g id="line2d_56"/>
   <g id="line2d_57">
    <path clip-path="url(#pd15a02bae0)" d="M 437.53255 129.5 
L 437.53255 113.66 
L 380.226887 113.66 
L 380.226887 129.5 
L 437.53255 129.5 
" style="fill:none;stroke:#000000;stroke-linecap:square;"/>
   </g>
   <g id="line2d_58">
    <path clip-path="url(#pd15a02bae0)" d="M 437.53255 121.58 
L 453.705448 121.58 
" style="fill:none;stroke:#000000;stroke-linecap:square;"/>
   </g>
   <g id="line2d_59">
    <path clip-path="url(#pd15a02bae0)" d="M 380.226887 121.58 
L 240.543041 121.58 
" style="fill:none;stroke:#000000;stroke-linecap:square;"/>
   </g>
   <g id="line2d_60">
    <path clip-path="url(#pd15a02bae0)" d="M 453.705448 125.54 
L 453.705448 117.62 
" style="fill:none;stroke:#000000;stroke-linecap:square;"/>
   </g>
   <g id="line2d_61">
    <path clip-path="url(#pd15a02bae0)" d="M 240.543041 125.54 
L 240.543041 117.62 
" style="fill:none;stroke:#000000;stroke-linecap:square;"/>
   </g>
   <g id="line2d_62"/>
   <g id="line2d_63">
    <path clip-path="url(#pd15a02bae0)" d="M 451.882075 97.82 
L 451.882075 81.98 
L 406.448355 81.98 
L 406.448355 97.82 
L 451.882075 97.82 
" style="fill:none;stroke:#000000;stroke-linecap:square;"/>
   </g>
   <g id="line2d_64">
    <path clip-path="url(#pd15a02bae0)" d="M 451.882075 89.9 
L 467.834866 89.9 
" style="fill:none;stroke:#000000;stroke-linecap:square;"/>
   </g>
   <g id="line2d_65">
    <path clip-path="url(#pd15a02bae0)" d="M 406.448355 89.9 
L 393.484517 89.9 
" style="fill:none;stroke:#000000;stroke-linecap:square;"/>
   </g>
   <g id="line2d_66">
    <path clip-path="url(#pd15a02bae0)" d="M 467.834866 93.86 
L 467.834866 85.94 
" style="fill:none;stroke:#000000;stroke-linecap:square;"/>
   </g>
   <g id="line2d_67">
    <path clip-path="url(#pd15a02bae0)" d="M 393.484517 93.86 
L 393.484517 85.94 
" style="fill:none;stroke:#000000;stroke-linecap:square;"/>
   </g>
   <g id="line2d_68"/>
   <g id="line2d_69">
    <path clip-path="url(#pd15a02bae0)" d="M 473.669249 66.14 
L 473.669249 50.3 
L 373.998368 50.3 
L 373.998368 66.14 
L 473.669249 66.14 
" style="fill:none;stroke:#000000;stroke-linecap:square;"/>
   </g>
   <g id="line2d_70">
    <path clip-path="url(#pd15a02bae0)" d="M 473.669249 58.22 
L 532.915767 58.22 
" style="fill:none;stroke:#000000;stroke-linecap:square;"/>
   </g>
   <g id="line2d_71">
    <path clip-path="url(#pd15a02bae0)" d="M 373.998368 58.22 
L 335.55063 58.22 
" style="fill:none;stroke:#000000;stroke-linecap:square;"/>
   </g>
   <g id="line2d_72">
    <path clip-path="url(#pd15a02bae0)" d="M 532.915767 62.18 
L 532.915767 54.26 
" style="fill:none;stroke:#000000;stroke-linecap:square;"/>
   </g>
   <g id="line2d_73">
    <path clip-path="url(#pd15a02bae0)" d="M 335.55063 62.18 
L 335.55063 54.26 
" style="fill:none;stroke:#000000;stroke-linecap:square;"/>
   </g>
   <g id="line2d_74"/>
   <g id="line2d_75">
    <path clip-path="url(#pd15a02bae0)" d="M 307.570906 224.54 
L 307.570906 208.7 
" style="fill:none;stroke:#ff7f0e;stroke-linecap:square;"/>
   </g>
   <g id="line2d_76">
    <path clip-path="url(#pd15a02bae0)" d="M 312.208262 192.86 
L 312.208262 177.02 
" style="fill:none;stroke:#ff7f0e;stroke-linecap:square;"/>
   </g>
   <g id="line2d_77">
    <path clip-path="url(#pd15a02bae0)" d="M 398.043071 161.18 
L 398.043071 145.34 
" style="fill:none;stroke:#ff7f0e;stroke-linecap:square;"/>
   </g>
   <g id="line2d_78">
    <path clip-path="url(#pd15a02bae0)" d="M 404.145447 129.5 
L 404.145447 113.66 
" style="fill:none;stroke:#ff7f0e;stroke-linecap:square;"/>
   </g>
   <g id="line2d_79">
    <path clip-path="url(#pd15a02bae0)" d="M 447.08803 97.82 
L 447.08803 81.98 
" style="fill:none;stroke:#ff7f0e;stroke-linecap:square;"/>
   </g>
   <g id="line2d_80">
    <path clip-path="url(#pd15a02bae0)" d="M 462.702224 66.14 
L 462.702224 50.3 
" style="fill:none;stroke:#ff7f0e;stroke-linecap:square;"/>
   </g>
   <g id="patch_3">
    <path d="M 160.070312 232.46 
L 160.070312 10.7 
" style="fill:none;stroke:#000000;stroke-linecap:square;stroke-linejoin:miter;stroke-width:0.8;"/>
   </g>
   <g id="patch_4">
    <path d="M 550.670313 232.46 
L 550.670313 10.7 
" style="fill:none;stroke:#000000;stroke-linecap:square;stroke-linejoin:miter;stroke-width:0.8;"/>
   </g>
   <g id="patch_5">
    <path d="M 160.070313 232.46 
L 550.670313 232.46 
" style="fill:none;stroke:#000000;stroke-linecap:square;stroke-linejoin:miter;stroke-width:0.8;"/>
   </g>
   <g id="patch_6">
    <path d="M 160.070313 10.7 
L 550.670313 10.7 
" style="fill:none;stroke:#000000;stroke-linecap:square;stroke-linejoin:miter;stroke-width:0.8;"/>
   </g>
  </g>
 </g>
 <defs>
  <clipPath id="pd15a02bae0">
   <rect height="221.76" width="390.6" x="160.070312" y="10.7"/>
  </clipPath>
 </defs>
</svg>
