<?xml version="1.0" encoding="utf-8" standalone="no"?>
<!DOCTYPE svg PUBLIC "-//W3C//DTD SVG 1.1//EN"
  "http://www.w3.org/Graphics/SVG/1.1/DTD/svg11.dtd">
<!-- Created with matplotlib (https://matplotlib.org/) -->
<svg height="184.15625pt" version="1.1" viewBox="0 0 333.682812 184.15625" width="333.682812pt" xmlns="http://www.w3.org/2000/svg" xmlns:xlink="http://www.w3.org/1999/xlink">
 <defs>
  <style type="text/css">
*{stroke-linecap:butt;stroke-linejoin:round;}
  </style>
 </defs>
 <g id="figure_1">
  <g id="patch_1">
   <path d="M 0 184.15625 
L 333.682812 184.15625 
L 333.682812 -0 
L 0 -0 
z
" style="fill:#ffffff;"/>
  </g>
  <g id="axes_1">
   <g id="patch_2">
    <path d="M 43.982813 146.6 
L 322.982813 146.6 
L 322.982813 10.7 
L 43.982813 10.7 
z
" style="fill:#ffffff;"/>
   </g>
   <g id="matplotlib.axis_1">
    <g id="xtick_1">
     <g id="line2d_1">
      <path clip-path="url(#p24d1b3986c)" d="M 56.664631 146.6 
L 56.664631 10.7 
" style="fill:none;stroke:#000000;stroke-dasharray:3.7,1.6;stroke-dashoffset:0;stroke-opacity:0.25;"/>
     </g>
     <g id="line2d_2">
      <defs>
       <path d="M 0 0 
L 0 3.5 
" id="m5e4815add5" style="stroke:#000000;stroke-width:0.8;"/>
      </defs>
      <g>
       <use style="stroke:#000000;stroke-width:0.8;" x="56.664631" xlink:href="#m5e4815add5" y="146.6"/>
      </g>
     </g>
     <g id="text_1">
      <!-- 22 -->
      <defs>
       <path d="M 12.796875 55.515625 
L 7.328125 55.515625 
L 7.328125 68.5 
Q 12.546875 71.296875 17.84375 72.75 
Q 23.140625 74.21875 28.21875 74.21875 
Q 39.59375 74.21875 46.1875 68.703125 
Q 52.78125 63.1875 52.78125 53.71875 
Q 52.78125 43.015625 37.84375 28.125 
Q 36.671875 27 36.078125 26.421875 
L 17.671875 8.015625 
L 48.09375 8.015625 
L 48.09375 17 
L 53.8125 17 
L 53.8125 0 
L 6.78125 0 
L 6.78125 5.328125 
L 28.90625 27.390625 
Q 36.234375 34.71875 39.359375 40.84375 
Q 42.484375 46.96875 42.484375 53.71875 
Q 42.484375 61.078125 38.640625 65.234375 
Q 34.8125 69.390625 28.078125 69.390625 
Q 21.09375 69.390625 17.28125 65.921875 
Q 13.484375 62.453125 12.796875 55.515625 
z
" id="DejaVuSerif-50"/>
      </defs>
      <g transform="translate(50.302131 161.198437)scale(0.1 -0.1)">
       <use xlink:href="#DejaVuSerif-50"/>
       <use x="63.623047" xlink:href="#DejaVuSerif-50"/>
      </g>
     </g>
    </g>
    <g id="xtick_2">
     <g id="line2d_3">
      <path clip-path="url(#p24d1b3986c)" d="M 104.976319 146.6 
L 104.976319 10.7 
" style="fill:none;stroke:#000000;stroke-dasharray:3.7,1.6;stroke-dashoffset:0;stroke-opacity:0.25;"/>
     </g>
     <g id="line2d_4">
      <g>
       <use style="stroke:#000000;stroke-width:0.8;" x="104.976319" xlink:href="#m5e4815add5" y="146.6"/>
      </g>
     </g>
     <g id="text_2">
      <!-- 0 -->
      <defs>
       <path d="M 31.78125 3.421875 
Q 39.265625 3.421875 42.96875 11.625 
Q 46.6875 19.828125 46.6875 36.375 
Q 46.6875 52.984375 42.96875 61.1875 
Q 39.265625 69.390625 31.78125 69.390625 
Q 24.3125 69.390625 20.59375 61.1875 
Q 16.890625 52.984375 16.890625 36.375 
Q 16.890625 19.828125 20.59375 11.625 
Q 24.3125 3.421875 31.78125 3.421875 
z
M 31.78125 -1.421875 
Q 19.921875 -1.421875 13.25 8.53125 
Q 6.59375 18.5 6.59375 36.375 
Q 6.59375 54.296875 13.25 64.25 
Q 19.921875 74.21875 31.78125 74.21875 
Q 43.703125 74.21875 50.34375 64.25 
Q 56.984375 54.296875 56.984375 36.375 
Q 56.984375 18.5 50.34375 8.53125 
Q 43.703125 -1.421875 31.78125 -1.421875 
z
" id="DejaVuSerif-48"/>
      </defs>
      <g transform="translate(101.795069 161.198437)scale(0.1 -0.1)">
       <use xlink:href="#DejaVuSerif-48"/>
      </g>
     </g>
    </g>
    <g id="xtick_3">
     <g id="line2d_5">
      <path clip-path="url(#p24d1b3986c)" d="M 153.288007 146.6 
L 153.288007 10.7 
" style="fill:none;stroke:#000000;stroke-dasharray:3.7,1.6;stroke-dashoffset:0;stroke-opacity:0.25;"/>
     </g>
     <g id="line2d_6">
      <g>
       <use style="stroke:#000000;stroke-width:0.8;" x="153.288007" xlink:href="#m5e4815add5" y="146.6"/>
      </g>
     </g>
     <g id="text_3">
      <!-- 2 -->
      <g transform="translate(150.106757 161.198437)scale(0.1 -0.1)">
       <use xlink:href="#DejaVuSerif-50"/>
      </g>
     </g>
    </g>
    <g id="xtick_4">
     <g id="line2d_7">
      <path clip-path="url(#p24d1b3986c)" d="M 201.599696 146.6 
L 201.599696 10.7 
" style="fill:none;stroke:#000000;stroke-dasharray:3.7,1.6;stroke-dashoffset:0;stroke-opacity:0.25;"/>
     </g>
     <g id="line2d_8">
      <g>
       <use style="stroke:#000000;stroke-width:0.8;" x="201.599696" xlink:href="#m5e4815add5" y="146.6"/>
      </g>
     </g>
     <g id="text_4">
      <!-- 4 -->
      <defs>
       <path d="M 34.90625 24.703125 
L 34.90625 63.484375 
L 10.015625 24.703125 
z
M 56.390625 0 
L 23.1875 0 
L 23.1875 5.171875 
L 34.90625 5.171875 
L 34.90625 19.484375 
L 3.078125 19.484375 
L 3.078125 24.8125 
L 35.015625 74.21875 
L 44.671875 74.21875 
L 44.671875 24.703125 
L 58.59375 24.703125 
L 58.59375 19.484375 
L 44.671875 19.484375 
L 44.671875 5.171875 
L 56.390625 5.171875 
z
" id="DejaVuSerif-52"/>
      </defs>
      <g transform="translate(198.418446 161.198437)scale(0.1 -0.1)">
       <use xlink:href="#DejaVuSerif-52"/>
      </g>
     </g>
    </g>
    <g id="xtick_5">
     <g id="line2d_9">
      <path clip-path="url(#p24d1b3986c)" d="M 249.911384 146.6 
L 249.911384 10.7 
" style="fill:none;stroke:#000000;stroke-dasharray:3.7,1.6;stroke-dashoffset:0;stroke-opacity:0.25;"/>
     </g>
     <g id="line2d_10">
      <g>
       <use style="stroke:#000000;stroke-width:0.8;" x="249.911384" xlink:href="#m5e4815add5" y="146.6"/>
      </g>
     </g>
     <g id="text_5">
      <!-- 6 -->
      <defs>
       <path d="M 32.71875 3.421875 
Q 39.59375 3.421875 43.296875 8.46875 
Q 47.015625 13.53125 47.015625 23 
Q 47.015625 32.46875 43.296875 37.515625 
Q 39.59375 42.578125 32.71875 42.578125 
Q 25.734375 42.578125 22.0625 37.6875 
Q 18.40625 32.8125 18.40625 23.578125 
Q 18.40625 13.875 22.109375 8.640625 
Q 25.828125 3.421875 32.71875 3.421875 
z
M 16.796875 40.140625 
Q 20.125 43.796875 24.3125 45.59375 
Q 28.515625 47.40625 33.796875 47.40625 
Q 44.671875 47.40625 51 40.859375 
Q 57.328125 34.328125 57.328125 23 
Q 57.328125 11.921875 50.515625 5.25 
Q 43.703125 -1.421875 32.328125 -1.421875 
Q 19.96875 -1.421875 13.328125 7.78125 
Q 6.6875 17 6.6875 34.078125 
Q 6.6875 53.21875 14.546875 63.71875 
Q 22.40625 74.21875 36.71875 74.21875 
Q 40.578125 74.21875 44.828125 73.484375 
Q 49.078125 72.75 53.515625 71.296875 
L 53.515625 59.28125 
L 48 59.28125 
Q 47.40625 64.203125 44.234375 66.796875 
Q 41.0625 69.390625 35.6875 69.390625 
Q 26.21875 69.390625 21.578125 62.203125 
Q 16.9375 55.03125 16.796875 40.140625 
z
" id="DejaVuSerif-54"/>
      </defs>
      <g transform="translate(246.730134 161.198437)scale(0.1 -0.1)">
       <use xlink:href="#DejaVuSerif-54"/>
      </g>
     </g>
    </g>
    <g id="xtick_6">
     <g id="line2d_11">
      <path clip-path="url(#p24d1b3986c)" d="M 298.223072 146.6 
L 298.223072 10.7 
" style="fill:none;stroke:#000000;stroke-dasharray:3.7,1.6;stroke-dashoffset:0;stroke-opacity:0.25;"/>
     </g>
     <g id="line2d_12">
      <g>
       <use style="stroke:#000000;stroke-width:0.8;" x="298.223072" xlink:href="#m5e4815add5" y="146.6"/>
      </g>
     </g>
     <g id="text_6">
      <!-- 8 -->
      <defs>
       <path d="M 46.578125 19.921875 
Q 46.578125 27.734375 42.6875 32.046875 
Q 38.8125 36.375 31.78125 36.375 
Q 24.75 36.375 20.875 32.046875 
Q 17 27.734375 17 19.921875 
Q 17 12.0625 20.875 7.734375 
Q 24.75 3.421875 31.78125 3.421875 
Q 38.8125 3.421875 42.6875 7.734375 
Q 46.578125 12.0625 46.578125 19.921875 
z
M 44.578125 55.328125 
Q 44.578125 61.96875 41.203125 65.671875 
Q 37.84375 69.390625 31.78125 69.390625 
Q 25.78125 69.390625 22.390625 65.671875 
Q 19 61.96875 19 55.328125 
Q 19 48.640625 22.390625 44.921875 
Q 25.78125 41.21875 31.78125 41.21875 
Q 37.84375 41.21875 41.203125 44.921875 
Q 44.578125 48.640625 44.578125 55.328125 
z
M 39.3125 38.8125 
Q 47.609375 37.703125 52.25 32.6875 
Q 56.890625 27.6875 56.890625 19.921875 
Q 56.890625 9.671875 50.390625 4.125 
Q 43.890625 -1.421875 31.78125 -1.421875 
Q 19.734375 -1.421875 13.203125 4.125 
Q 6.6875 9.671875 6.6875 19.921875 
Q 6.6875 27.6875 11.328125 32.6875 
Q 15.96875 37.703125 24.3125 38.8125 
Q 16.9375 40.140625 13 44.40625 
Q 9.078125 48.6875 9.078125 55.328125 
Q 9.078125 64.109375 15.125 69.15625 
Q 21.1875 74.21875 31.78125 74.21875 
Q 42.390625 74.21875 48.4375 69.15625 
Q 54.5 64.109375 54.5 55.328125 
Q 54.5 48.6875 50.5625 44.40625 
Q 46.625 40.140625 39.3125 38.8125 
z
" id="DejaVuSerif-56"/>
      </defs>
      <g transform="translate(295.041822 161.198437)scale(0.1 -0.1)">
       <use xlink:href="#DejaVuSerif-56"/>
      </g>
     </g>
    </g>
    <g id="xtick_7">
     <g id="line2d_13">
      <defs>
       <path d="M 0 0 
L 0 2 
" id="ma8d492cc94" style="stroke:#000000;stroke-width:0.6;"/>
      </defs>
      <g>
       <use style="stroke:#000000;stroke-width:0.6;" x="56.664631" xlink:href="#ma8d492cc94" y="146.6"/>
      </g>
     </g>
    </g>
    <g id="text_7">
     <!-- Local time (hours) -->
     <defs>
      <path d="M 5.515625 0 
L 5.515625 5.171875 
L 14.796875 5.171875 
L 14.796875 67.671875 
L 5.515625 67.671875 
L 5.515625 72.90625 
L 33.984375 72.90625 
L 33.984375 67.671875 
L 24.703125 67.671875 
L 24.703125 6 
L 58.015625 6 
L 58.015625 18.21875 
L 64.015625 18.21875 
L 64.015625 0 
z
" id="DejaVuSerif-76"/>
      <path d="M 30.078125 3.421875 
Q 37.3125 3.421875 40.984375 9.125 
Q 44.671875 14.84375 44.671875 25.984375 
Q 44.671875 37.109375 40.984375 42.796875 
Q 37.3125 48.484375 30.078125 48.484375 
Q 22.859375 48.484375 19.171875 42.796875 
Q 15.484375 37.109375 15.484375 25.984375 
Q 15.484375 14.84375 19.1875 9.125 
Q 22.90625 3.421875 30.078125 3.421875 
z
M 30.078125 -1.421875 
Q 18.75 -1.421875 11.859375 6.078125 
Q 4.984375 13.578125 4.984375 25.984375 
Q 4.984375 38.375 11.84375 45.84375 
Q 18.703125 53.328125 30.078125 53.328125 
Q 41.453125 53.328125 48.3125 45.84375 
Q 55.171875 38.375 55.171875 25.984375 
Q 55.171875 13.578125 48.3125 6.078125 
Q 41.453125 -1.421875 30.078125 -1.421875 
z
" id="DejaVuSerif-111"/>
      <path d="M 51.421875 15.578125 
Q 49.515625 7.28125 44.09375 2.921875 
Q 38.671875 -1.421875 30.078125 -1.421875 
Q 18.75 -1.421875 11.859375 6.078125 
Q 4.984375 13.578125 4.984375 25.984375 
Q 4.984375 38.421875 11.859375 45.875 
Q 18.75 53.328125 30.078125 53.328125 
Q 35.015625 53.328125 39.890625 52.171875 
Q 44.78125 51.03125 49.703125 48.6875 
L 49.703125 35.40625 
L 44.484375 35.40625 
Q 43.453125 42.234375 40.015625 45.359375 
Q 36.578125 48.484375 30.171875 48.484375 
Q 22.90625 48.484375 19.1875 42.84375 
Q 15.484375 37.203125 15.484375 25.984375 
Q 15.484375 14.75 19.171875 9.078125 
Q 22.859375 3.421875 30.171875 3.421875 
Q 35.984375 3.421875 39.453125 6.4375 
Q 42.921875 9.46875 44.1875 15.578125 
z
" id="DejaVuSerif-99"/>
      <path d="M 39.796875 16.3125 
L 39.796875 27.296875 
L 28.21875 27.296875 
Q 21.53125 27.296875 18.25 24.40625 
Q 14.984375 21.53125 14.984375 15.578125 
Q 14.984375 10.15625 18.296875 6.984375 
Q 21.625 3.8125 27.296875 3.8125 
Q 32.90625 3.8125 36.34375 7.28125 
Q 39.796875 10.75 39.796875 16.3125 
z
M 48.78125 32.421875 
L 48.78125 5.171875 
L 56.78125 5.171875 
L 56.78125 0 
L 39.796875 0 
L 39.796875 5.609375 
Q 36.8125 2 32.90625 0.28125 
Q 29 -1.421875 23.78125 -1.421875 
Q 15.140625 -1.421875 10.0625 3.171875 
Q 4.984375 7.765625 4.984375 15.578125 
Q 4.984375 23.640625 10.796875 28.078125 
Q 16.609375 32.515625 27.203125 32.515625 
L 39.796875 32.515625 
L 39.796875 36.078125 
Q 39.796875 42 36.203125 45.234375 
Q 32.625 48.484375 26.125 48.484375 
Q 20.75 48.484375 17.578125 46.046875 
Q 14.40625 43.609375 13.625 38.8125 
L 8.984375 38.8125 
L 8.984375 49.3125 
Q 13.671875 51.3125 18.09375 52.3125 
Q 22.515625 53.328125 26.703125 53.328125 
Q 37.5 53.328125 43.140625 47.96875 
Q 48.78125 42.625 48.78125 32.421875 
z
" id="DejaVuSerif-97"/>
      <path d="M 20.515625 5.171875 
L 29 5.171875 
L 29 0 
L 2.875 0 
L 2.875 5.171875 
L 11.53125 5.171875 
L 11.53125 70.796875 
L 2.875 70.796875 
L 2.875 75.984375 
L 20.515625 75.984375 
z
" id="DejaVuSerif-108"/>
      <path id="DejaVuSerif-32"/>
      <path d="M 10.796875 46.6875 
L 2.875 46.6875 
L 2.875 51.90625 
L 10.796875 51.90625 
L 10.796875 68.015625 
L 19.828125 68.015625 
L 19.828125 51.90625 
L 36.71875 51.90625 
L 36.71875 46.6875 
L 19.828125 46.6875 
L 19.828125 13.71875 
Q 19.828125 7.125 21.09375 5.265625 
Q 22.359375 3.421875 25.78125 3.421875 
Q 29.296875 3.421875 30.90625 5.484375 
Q 32.515625 7.5625 32.625 12.203125 
L 39.40625 12.203125 
Q 39.015625 5.125 35.546875 1.84375 
Q 32.078125 -1.421875 25 -1.421875 
Q 17.234375 -1.421875 14.015625 2.015625 
Q 10.796875 5.46875 10.796875 13.71875 
z
" id="DejaVuSerif-116"/>
      <path d="M 9.71875 68.015625 
Q 9.71875 70.265625 11.34375 71.921875 
Q 12.984375 73.578125 15.28125 73.578125 
Q 17.53125 73.578125 19.15625 71.921875 
Q 20.796875 70.265625 20.796875 68.015625 
Q 20.796875 65.71875 19.1875 64.109375 
Q 17.578125 62.5 15.28125 62.5 
Q 12.984375 62.5 11.34375 64.109375 
Q 9.71875 65.71875 9.71875 68.015625 
z
M 21.1875 5.171875 
L 29.6875 5.171875 
L 29.6875 0 
L 3.609375 0 
L 3.609375 5.171875 
L 12.203125 5.171875 
L 12.203125 46.6875 
L 3.609375 46.6875 
L 3.609375 51.90625 
L 21.1875 51.90625 
z
" id="DejaVuSerif-105"/>
      <path d="M 51.8125 41.796875 
Q 54.390625 47.515625 58.421875 50.421875 
Q 62.453125 53.328125 67.828125 53.328125 
Q 75.984375 53.328125 79.984375 48.265625 
Q 83.984375 43.21875 83.984375 33.015625 
L 83.984375 5.171875 
L 92.09375 5.171875 
L 92.09375 0 
L 67.1875 0 
L 67.1875 5.171875 
L 75 5.171875 
L 75 31.984375 
Q 75 39.9375 72.65625 43.3125 
Q 70.3125 46.6875 64.890625 46.6875 
Q 58.890625 46.6875 55.734375 42.140625 
Q 52.59375 37.59375 52.59375 28.90625 
L 52.59375 5.171875 
L 60.40625 5.171875 
L 60.40625 0 
L 35.796875 0 
L 35.796875 5.171875 
L 43.609375 5.171875 
L 43.609375 32.328125 
Q 43.609375 40.09375 41.265625 43.390625 
Q 38.921875 46.6875 33.5 46.6875 
Q 27.484375 46.6875 24.328125 42.140625 
Q 21.1875 37.59375 21.1875 28.90625 
L 21.1875 5.171875 
L 29 5.171875 
L 29 0 
L 4.109375 0 
L 4.109375 5.171875 
L 12.203125 5.171875 
L 12.203125 46.78125 
L 3.609375 46.78125 
L 3.609375 51.90625 
L 21.1875 51.90625 
L 21.1875 42.671875 
Q 23.6875 47.859375 27.53125 50.59375 
Q 31.390625 53.328125 36.28125 53.328125 
Q 42.328125 53.328125 46.375 50.3125 
Q 50.4375 47.3125 51.8125 41.796875 
z
" id="DejaVuSerif-109"/>
      <path d="M 54.203125 25 
L 15.484375 25 
L 15.484375 24.609375 
Q 15.484375 14.109375 19.4375 8.765625 
Q 23.390625 3.421875 31.109375 3.421875 
Q 37.015625 3.421875 40.796875 6.515625 
Q 44.578125 9.625 46.09375 15.71875 
L 53.328125 15.71875 
Q 51.171875 7.171875 45.375 2.875 
Q 39.59375 -1.421875 30.171875 -1.421875 
Q 18.796875 -1.421875 11.890625 6.078125 
Q 4.984375 13.578125 4.984375 25.984375 
Q 4.984375 38.28125 11.765625 45.796875 
Q 18.5625 53.328125 29.59375 53.328125 
Q 41.359375 53.328125 47.65625 46.0625 
Q 53.953125 38.8125 54.203125 25 
z
M 43.609375 30.171875 
Q 43.3125 39.265625 39.765625 43.875 
Q 36.234375 48.484375 29.59375 48.484375 
Q 23.390625 48.484375 19.828125 43.84375 
Q 16.265625 39.203125 15.484375 30.171875 
z
" id="DejaVuSerif-101"/>
      <path d="M 31.890625 -15.578125 
Q 20.015625 -10.25 13.953125 1.296875 
Q 7.90625 12.84375 7.90625 30.171875 
Q 7.90625 47.5625 13.953125 59.109375 
Q 20.015625 70.65625 31.890625 75.984375 
L 31.890625 71.1875 
Q 24.359375 66.015625 21.09375 56.609375 
Q 17.828125 47.21875 17.828125 30.171875 
Q 17.828125 13.1875 21.09375 3.78125 
Q 24.359375 -5.609375 31.890625 -10.796875 
z
" id="DejaVuSerif-40"/>
      <path d="M 4.109375 0 
L 4.109375 5.171875 
L 12.203125 5.171875 
L 12.203125 70.796875 
L 3.609375 70.796875 
L 3.609375 75.984375 
L 21.1875 75.984375 
L 21.1875 42.671875 
Q 23.6875 47.953125 27.65625 50.640625 
Q 31.640625 53.328125 36.921875 53.328125 
Q 45.515625 53.328125 49.5625 48.390625 
Q 53.609375 43.453125 53.609375 33.015625 
L 53.609375 5.171875 
L 61.625 5.171875 
L 61.625 0 
L 36.8125 0 
L 36.8125 5.171875 
L 44.578125 5.171875 
L 44.578125 30.171875 
Q 44.578125 39.703125 42.25 43.1875 
Q 39.9375 46.6875 33.984375 46.6875 
Q 27.734375 46.6875 24.453125 42.140625 
Q 21.1875 37.59375 21.1875 28.90625 
L 21.1875 5.171875 
L 29 5.171875 
L 29 0 
z
" id="DejaVuSerif-104"/>
      <path d="M 35.40625 51.90625 
L 52.203125 51.90625 
L 52.203125 5.171875 
L 60.6875 5.171875 
L 60.6875 0 
L 43.21875 0 
L 43.21875 9.1875 
Q 40.71875 4 36.765625 1.28125 
Q 32.8125 -1.421875 27.59375 -1.421875 
Q 18.953125 -1.421875 14.875 3.484375 
Q 10.796875 8.40625 10.796875 18.890625 
L 10.796875 46.6875 
L 2.6875 46.6875 
L 2.6875 51.90625 
L 19.828125 51.90625 
L 19.828125 21.6875 
Q 19.828125 12.203125 22.140625 8.6875 
Q 24.46875 5.171875 30.421875 5.171875 
Q 36.671875 5.171875 39.9375 9.765625 
Q 43.21875 14.359375 43.21875 23.09375 
L 43.21875 46.6875 
L 35.40625 46.6875 
z
" id="DejaVuSerif-117"/>
      <path d="M 47.796875 52 
L 47.796875 39.015625 
L 42.625 39.015625 
Q 42.390625 42.875 40.484375 44.78125 
Q 38.578125 46.6875 34.90625 46.6875 
Q 28.265625 46.6875 24.71875 42.09375 
Q 21.1875 37.5 21.1875 28.90625 
L 21.1875 5.171875 
L 31.59375 5.171875 
L 31.59375 0 
L 4.109375 0 
L 4.109375 5.171875 
L 12.203125 5.171875 
L 12.203125 46.78125 
L 3.609375 46.78125 
L 3.609375 51.90625 
L 21.1875 51.90625 
L 21.1875 42.671875 
Q 23.828125 48.09375 27.96875 50.703125 
Q 32.125 53.328125 38.09375 53.328125 
Q 40.28125 53.328125 42.703125 52.984375 
Q 45.125 52.640625 47.796875 52 
z
" id="DejaVuSerif-114"/>
      <path d="M 5.609375 2.875 
L 5.609375 14.984375 
L 10.796875 14.984375 
Q 10.984375 9.1875 14.421875 6.296875 
Q 17.875 3.421875 24.609375 3.421875 
Q 30.671875 3.421875 33.84375 5.6875 
Q 37.015625 7.953125 37.015625 12.3125 
Q 37.015625 15.71875 34.6875 17.8125 
Q 32.375 19.921875 24.90625 22.3125 
L 18.40625 24.515625 
Q 11.71875 26.65625 8.71875 29.875 
Q 5.71875 33.109375 5.71875 38.09375 
Q 5.71875 45.21875 10.9375 49.265625 
Q 16.15625 53.328125 25.390625 53.328125 
Q 29.5 53.328125 34.03125 52.25 
Q 38.578125 51.171875 43.40625 49.125 
L 43.40625 37.796875 
L 38.234375 37.796875 
Q 38.03125 42.828125 34.703125 45.65625 
Q 31.390625 48.484375 25.6875 48.484375 
Q 20.015625 48.484375 17.109375 46.484375 
Q 14.203125 44.484375 14.203125 40.484375 
Q 14.203125 37.203125 16.40625 35.21875 
Q 18.609375 33.25 25.203125 31.203125 
L 32.328125 29 
Q 39.703125 26.703125 42.9375 23.265625 
Q 46.1875 19.828125 46.1875 14.40625 
Q 46.1875 7.03125 40.546875 2.796875 
Q 34.90625 -1.421875 25 -1.421875 
Q 19.96875 -1.421875 15.1875 -0.34375 
Q 10.40625 0.734375 5.609375 2.875 
z
" id="DejaVuSerif-115"/>
      <path d="M 7.078125 -15.578125 
L 7.078125 -10.796875 
Q 14.59375 -5.609375 17.890625 3.78125 
Q 21.1875 13.1875 21.1875 30.171875 
Q 21.1875 47.21875 17.890625 56.609375 
Q 14.59375 66.015625 7.078125 71.1875 
L 7.078125 75.984375 
Q 19 70.65625 25.046875 59.109375 
Q 31.109375 47.5625 31.109375 30.171875 
Q 31.109375 12.84375 25.046875 1.296875 
Q 19 -10.25 7.078125 -15.578125 
z
" id="DejaVuSerif-41"/>
     </defs>
     <g transform="translate(136.976563 174.876562)scale(0.1 -0.1)">
      <use xlink:href="#DejaVuSerif-76"/>
      <use x="66.40625" xlink:href="#DejaVuSerif-111"/>
      <use x="126.611328" xlink:href="#DejaVuSerif-99"/>
      <use x="182.617188" xlink:href="#DejaVuSerif-97"/>
      <use x="242.236328" xlink:href="#DejaVuSerif-108"/>
      <use x="274.21875" xlink:href="#DejaVuSerif-32"/>
      <use x="306.005859" xlink:href="#DejaVuSerif-116"/>
      <use x="346.191406" xlink:href="#DejaVuSerif-105"/>
      <use x="378.173828" xlink:href="#DejaVuSerif-109"/>
      <use x="472.998047" xlink:href="#DejaVuSerif-101"/>
      <use x="532.177734" xlink:href="#DejaVuSerif-32"/>
      <use x="563.964844" xlink:href="#DejaVuSerif-40"/>
      <use x="602.978516" xlink:href="#DejaVuSerif-104"/>
      <use x="667.382812" xlink:href="#DejaVuSerif-111"/>
      <use x="727.587891" xlink:href="#DejaVuSerif-117"/>
      <use x="791.992188" xlink:href="#DejaVuSerif-114"/>
      <use x="839.794922" xlink:href="#DejaVuSerif-115"/>
      <use x="891.113281" xlink:href="#DejaVuSerif-41"/>
     </g>
    </g>
   </g>
   <g id="matplotlib.axis_2">
    <g id="ytick_1">
     <g id="line2d_14">
      <path clip-path="url(#p24d1b3986c)" d="M 43.982813 146.6 
L 322.982813 146.6 
" style="fill:none;stroke:#000000;stroke-dasharray:3.7,1.6;stroke-dashoffset:0;stroke-opacity:0.25;"/>
     </g>
     <g id="line2d_15">
      <defs>
       <path d="M 0 0 
L -3.5 0 
" id="medef511fe9" style="stroke:#000000;stroke-width:0.8;"/>
      </defs>
      <g>
       <use style="stroke:#000000;stroke-width:0.8;" x="43.982813" xlink:href="#medef511fe9" y="146.6"/>
      </g>
     </g>
     <g id="text_8">
      <!-- -33 -->
      <defs>
       <path d="M 4.390625 30.609375 
L 29.390625 30.609375 
L 29.390625 23 
L 4.390625 23 
z
" id="DejaVuSerif-45"/>
       <path d="M 9.71875 69.828125 
Q 15.4375 71.96875 20.671875 73.09375 
Q 25.921875 74.21875 30.515625 74.21875 
Q 41.21875 74.21875 47.21875 69.59375 
Q 53.21875 64.984375 53.21875 56.78125 
Q 53.21875 50.203125 49.0625 45.78125 
Q 44.921875 41.359375 37.3125 39.796875 
Q 46.296875 38.53125 51.25 33.28125 
Q 56.203125 28.03125 56.203125 19.671875 
Q 56.203125 9.46875 49.34375 4.015625 
Q 42.484375 -1.421875 29.59375 -1.421875 
Q 23.875 -1.421875 18.421875 -0.1875 
Q 12.984375 1.03125 7.625 3.515625 
L 7.625 17.671875 
L 13.09375 17.671875 
Q 13.578125 10.640625 17.828125 7.03125 
Q 22.078125 3.421875 29.78125 3.421875 
Q 37.25 3.421875 41.578125 7.734375 
Q 45.90625 12.0625 45.90625 19.578125 
Q 45.90625 28.171875 41.453125 32.59375 
Q 37.015625 37.015625 28.421875 37.015625 
L 23.78125 37.015625 
L 23.78125 42 
L 26.21875 42 
Q 34.765625 42 39.03125 45.53125 
Q 43.3125 49.078125 43.3125 56.203125 
Q 43.3125 62.59375 39.796875 65.984375 
Q 36.28125 69.390625 29.6875 69.390625 
Q 23.09375 69.390625 19.453125 66.265625 
Q 15.828125 63.140625 15.1875 56.984375 
L 9.71875 56.984375 
z
" id="DejaVuSerif-51"/>
      </defs>
      <g transform="translate(20.878125 150.399219)scale(0.1 -0.1)">
       <use xlink:href="#DejaVuSerif-45"/>
       <use x="33.789062" xlink:href="#DejaVuSerif-51"/>
       <use x="97.412109" xlink:href="#DejaVuSerif-51"/>
      </g>
     </g>
    </g>
    <g id="ytick_2">
     <g id="line2d_16">
      <path clip-path="url(#p24d1b3986c)" d="M 43.982813 103.323643 
L 322.982813 103.323643 
" style="fill:none;stroke:#000000;stroke-dasharray:3.7,1.6;stroke-dashoffset:0;stroke-opacity:0.25;"/>
     </g>
     <g id="line2d_17">
      <g>
       <use style="stroke:#000000;stroke-width:0.8;" x="43.982813" xlink:href="#medef511fe9" y="103.323643"/>
      </g>
     </g>
     <g id="text_9">
      <!-- -27 -->
      <defs>
       <path d="M 56.390625 67.921875 
L 27.875 0 
L 20.609375 0 
L 47.796875 64.890625 
L 14.109375 64.890625 
L 14.109375 55.90625 
L 8.40625 55.90625 
L 8.40625 72.90625 
L 56.390625 72.90625 
z
" id="DejaVuSerif-55"/>
      </defs>
      <g transform="translate(20.878125 107.122861)scale(0.1 -0.1)">
       <use xlink:href="#DejaVuSerif-45"/>
       <use x="33.789062" xlink:href="#DejaVuSerif-50"/>
       <use x="97.412109" xlink:href="#DejaVuSerif-55"/>
      </g>
     </g>
    </g>
    <g id="ytick_3">
     <g id="line2d_18">
      <path clip-path="url(#p24d1b3986c)" d="M 43.982813 60.047285 
L 322.982813 60.047285 
" style="fill:none;stroke:#000000;stroke-dasharray:3.7,1.6;stroke-dashoffset:0;stroke-opacity:0.25;"/>
     </g>
     <g id="line2d_19">
      <g>
       <use style="stroke:#000000;stroke-width:0.8;" x="43.982813" xlink:href="#medef511fe9" y="60.047285"/>
      </g>
     </g>
     <g id="text_10">
      <!-- -21 -->
      <defs>
       <path d="M 14.203125 0 
L 14.203125 5.171875 
L 26.90625 5.171875 
L 26.90625 65.828125 
L 12.203125 56.296875 
L 12.203125 62.703125 
L 29.984375 74.21875 
L 36.71875 74.21875 
L 36.71875 5.171875 
L 49.421875 5.171875 
L 49.421875 0 
z
" id="DejaVuSerif-49"/>
      </defs>
      <g transform="translate(20.878125 63.846504)scale(0.1 -0.1)">
       <use xlink:href="#DejaVuSerif-45"/>
       <use x="33.789062" xlink:href="#DejaVuSerif-50"/>
       <use x="97.412109" xlink:href="#DejaVuSerif-49"/>
      </g>
     </g>
    </g>
    <g id="ytick_4">
     <g id="line2d_20">
      <path clip-path="url(#p24d1b3986c)" d="M 43.982813 16.770928 
L 322.982813 16.770928 
" style="fill:none;stroke:#000000;stroke-dasharray:3.7,1.6;stroke-dashoffset:0;stroke-opacity:0.25;"/>
     </g>
     <g id="line2d_21">
      <g>
       <use style="stroke:#000000;stroke-width:0.8;" x="43.982813" xlink:href="#medef511fe9" y="16.770928"/>
      </g>
     </g>
     <g id="text_11">
      <!-- -15 -->
      <defs>
       <path d="M 50.296875 72.90625 
L 50.296875 64.890625 
L 16.890625 64.890625 
L 16.890625 44 
Q 19.4375 45.75 22.828125 46.625 
Q 26.21875 47.515625 30.421875 47.515625 
Q 42.234375 47.515625 49.0625 40.96875 
Q 55.90625 34.421875 55.90625 23.09375 
Q 55.90625 11.53125 49 5.046875 
Q 42.09375 -1.421875 29.59375 -1.421875 
Q 24.5625 -1.421875 19.28125 -0.1875 
Q 14.015625 1.03125 8.5 3.515625 
L 8.5 17.671875 
L 14.015625 17.671875 
Q 14.453125 10.75 18.421875 7.078125 
Q 22.40625 3.421875 29.59375 3.421875 
Q 37.3125 3.421875 41.453125 8.5 
Q 45.609375 13.578125 45.609375 23.09375 
Q 45.609375 32.5625 41.484375 37.609375 
Q 37.359375 42.671875 29.59375 42.671875 
Q 25.203125 42.671875 21.84375 41.109375 
Q 18.5 39.546875 15.921875 36.28125 
L 11.71875 36.28125 
L 11.71875 72.90625 
z
" id="DejaVuSerif-53"/>
      </defs>
      <g transform="translate(20.878125 20.570147)scale(0.1 -0.1)">
       <use xlink:href="#DejaVuSerif-45"/>
       <use x="33.789062" xlink:href="#DejaVuSerif-49"/>
       <use x="97.412109" xlink:href="#DejaVuSerif-53"/>
      </g>
     </g>
    </g>
    <g id="ytick_5">
     <g id="line2d_22">
      <defs>
       <path d="M 0 0 
L -2 0 
" id="mf8fc61bab5" style="stroke:#000000;stroke-width:0.6;"/>
      </defs>
      <g>
       <use style="stroke:#000000;stroke-width:0.6;" x="43.982813" xlink:href="#mf8fc61bab5" y="146.6"/>
      </g>
     </g>
    </g>
    <g id="ytick_6">
     <g id="line2d_23">
      <g>
       <use style="stroke:#000000;stroke-width:0.6;" x="43.982813" xlink:href="#mf8fc61bab5" y="124.961821"/>
      </g>
     </g>
    </g>
    <g id="ytick_7">
     <g id="line2d_24">
      <g>
       <use style="stroke:#000000;stroke-width:0.6;" x="43.982813" xlink:href="#mf8fc61bab5" y="103.323643"/>
      </g>
     </g>
    </g>
    <g id="ytick_8">
     <g id="line2d_25">
      <g>
       <use style="stroke:#000000;stroke-width:0.6;" x="43.982813" xlink:href="#mf8fc61bab5" y="81.685464"/>
      </g>
     </g>
    </g>
    <g id="ytick_9">
     <g id="line2d_26">
      <g>
       <use style="stroke:#000000;stroke-width:0.6;" x="43.982813" xlink:href="#mf8fc61bab5" y="60.047285"/>
      </g>
     </g>
    </g>
    <g id="ytick_10">
     <g id="line2d_27">
      <g>
       <use style="stroke:#000000;stroke-width:0.6;" x="43.982813" xlink:href="#mf8fc61bab5" y="38.409107"/>
      </g>
     </g>
    </g>
    <g id="ytick_11">
     <g id="line2d_28">
      <g>
       <use style="stroke:#000000;stroke-width:0.6;" x="43.982813" xlink:href="#mf8fc61bab5" y="16.770928"/>
      </g>
     </g>
    </g>
    <g id="text_12">
     <!-- Sound pressure level (dB) -->
     <defs>
      <path d="M 9.28125 3.515625 
L 9.28125 20.125 
L 14.890625 20.0625 
Q 15.140625 11.765625 19.703125 7.78125 
Q 24.265625 3.8125 33.59375 3.8125 
Q 42.28125 3.8125 46.84375 7.25 
Q 51.421875 10.6875 51.421875 17.28125 
Q 51.421875 22.5625 48.65625 25.390625 
Q 45.90625 28.21875 37.015625 30.90625 
L 27.390625 33.796875 
Q 16.9375 36.96875 12.671875 41.703125 
Q 8.40625 46.4375 8.40625 54.6875 
Q 8.40625 63.96875 14.984375 69.09375 
Q 21.578125 74.21875 33.5 74.21875 
Q 38.578125 74.21875 44.625 73.109375 
Q 50.6875 72.015625 57.515625 69.921875 
L 57.515625 54.390625 
L 52 54.390625 
Q 51.171875 62.109375 46.84375 65.546875 
Q 42.53125 69 33.6875 69 
Q 25.984375 69 21.953125 65.84375 
Q 17.921875 62.703125 17.921875 56.6875 
Q 17.921875 51.46875 20.9375 48.484375 
Q 23.96875 45.515625 33.796875 42.578125 
L 42.828125 39.890625 
Q 52.734375 36.921875 56.953125 32.296875 
Q 61.1875 27.6875 61.1875 19.921875 
Q 61.1875 9.328125 54.390625 3.953125 
Q 47.609375 -1.421875 34.1875 -1.421875 
Q 28.171875 -1.421875 21.9375 -0.1875 
Q 15.71875 1.03125 9.28125 3.515625 
z
" id="DejaVuSerif-83"/>
      <path d="M 4.109375 0 
L 4.109375 5.171875 
L 12.203125 5.171875 
L 12.203125 46.6875 
L 3.609375 46.6875 
L 3.609375 51.90625 
L 21.1875 51.90625 
L 21.1875 42.671875 
Q 23.6875 47.953125 27.65625 50.640625 
Q 31.640625 53.328125 36.921875 53.328125 
Q 45.515625 53.328125 49.5625 48.390625 
Q 53.609375 43.453125 53.609375 33.015625 
L 53.609375 5.171875 
L 61.625 5.171875 
L 61.625 0 
L 36.8125 0 
L 36.8125 5.171875 
L 44.578125 5.171875 
L 44.578125 30.171875 
Q 44.578125 39.703125 42.234375 43.234375 
Q 39.890625 46.78125 33.984375 46.78125 
Q 27.734375 46.78125 24.453125 42.203125 
Q 21.1875 37.640625 21.1875 28.90625 
L 21.1875 5.171875 
L 29 5.171875 
L 29 0 
z
" id="DejaVuSerif-110"/>
      <path d="M 52.484375 5.171875 
L 61.078125 5.171875 
L 61.078125 0 
L 43.5 0 
L 43.5 8.109375 
Q 40.875 3.21875 36.796875 0.890625 
Q 32.71875 -1.421875 26.703125 -1.421875 
Q 17.140625 -1.421875 11.0625 6.171875 
Q 4.984375 13.765625 4.984375 25.984375 
Q 4.984375 38.1875 11.03125 45.75 
Q 17.09375 53.328125 26.703125 53.328125 
Q 32.71875 53.328125 36.796875 51 
Q 40.875 48.6875 43.5 43.796875 
L 43.5 70.796875 
L 35.015625 70.796875 
L 35.015625 75.984375 
L 52.484375 75.984375 
z
M 43.5 23.390625 
L 43.5 28.515625 
Q 43.5 37.84375 39.90625 42.765625 
Q 36.328125 47.703125 29.5 47.703125 
Q 22.5625 47.703125 19.015625 42.234375 
Q 15.484375 36.765625 15.484375 25.984375 
Q 15.484375 15.234375 19.015625 9.71875 
Q 22.5625 4.203125 29.5 4.203125 
Q 36.328125 4.203125 39.90625 9.109375 
Q 43.5 14.015625 43.5 23.390625 
z
" id="DejaVuSerif-100"/>
      <path d="M 20.515625 28.515625 
L 20.515625 23.390625 
Q 20.515625 14.015625 24.09375 9.109375 
Q 27.6875 4.203125 34.515625 4.203125 
Q 41.40625 4.203125 44.9375 9.71875 
Q 48.484375 15.234375 48.484375 25.984375 
Q 48.484375 36.765625 44.9375 42.234375 
Q 41.40625 47.703125 34.515625 47.703125 
Q 27.6875 47.703125 24.09375 42.765625 
Q 20.515625 37.84375 20.515625 28.515625 
z
M 11.53125 46.6875 
L 2.875 46.6875 
L 2.875 51.90625 
L 20.515625 51.90625 
L 20.515625 43.796875 
Q 23.140625 48.6875 27.21875 51 
Q 31.296875 53.328125 37.3125 53.328125 
Q 46.875 53.328125 52.921875 45.75 
Q 58.984375 38.1875 58.984375 25.984375 
Q 58.984375 13.765625 52.921875 6.171875 
Q 46.875 -1.421875 37.3125 -1.421875 
Q 31.296875 -1.421875 27.21875 0.890625 
Q 23.140625 3.21875 20.515625 8.109375 
L 20.515625 -15.578125 
L 29 -15.578125 
L 29 -20.796875 
L 2.875 -20.796875 
L 2.875 -15.578125 
L 11.53125 -15.578125 
z
" id="DejaVuSerif-112"/>
      <path d="M 24.703125 0 
L 5.609375 46.6875 
L -0.296875 46.6875 
L -0.296875 51.90625 
L 23.578125 51.90625 
L 23.578125 46.6875 
L 15.28125 46.6875 
L 29.890625 10.984375 
L 44.484375 46.6875 
L 36.71875 46.6875 
L 36.71875 51.90625 
L 56.203125 51.90625 
L 56.203125 46.6875 
L 50.390625 46.6875 
L 31.296875 0 
z
" id="DejaVuSerif-118"/>
      <path d="M 24.703125 5.171875 
L 39.3125 5.171875 
Q 48.09375 5.171875 52.140625 8.984375 
Q 56.203125 12.796875 56.203125 21.09375 
Q 56.203125 29.34375 52.171875 33.125 
Q 48.140625 36.921875 39.3125 36.921875 
L 24.703125 36.921875 
z
M 24.703125 42.09375 
L 37.109375 42.09375 
Q 45.125 42.09375 48.796875 45.171875 
Q 52.484375 48.25 52.484375 54.890625 
Q 52.484375 61.578125 48.796875 64.625 
Q 45.125 67.671875 37.109375 67.671875 
L 24.703125 67.671875 
z
M 5.515625 0 
L 5.515625 5.171875 
L 14.796875 5.171875 
L 14.796875 67.671875 
L 5.515625 67.671875 
L 5.515625 72.90625 
L 41.5 72.90625 
Q 52.546875 72.90625 58.125 68.390625 
Q 63.71875 63.875 63.71875 54.890625 
Q 63.71875 48.390625 59.828125 44.53125 
Q 55.953125 40.671875 48.484375 39.796875 
Q 57.765625 38.625 62.578125 33.859375 
Q 67.390625 29.109375 67.390625 21.09375 
Q 67.390625 10.25 60.546875 5.125 
Q 53.71875 0 39.203125 0 
z
" id="DejaVuSerif-66"/>
     </defs>
     <g transform="translate(14.798438 144.463281)rotate(-90)scale(0.1 -0.1)">
      <use xlink:href="#DejaVuSerif-83"/>
      <use x="68.505859" xlink:href="#DejaVuSerif-111"/>
      <use x="128.710938" xlink:href="#DejaVuSerif-117"/>
      <use x="193.115234" xlink:href="#DejaVuSerif-110"/>
      <use x="257.519531" xlink:href="#DejaVuSerif-100"/>
      <use x="321.533203" xlink:href="#DejaVuSerif-32"/>
      <use x="353.320312" xlink:href="#DejaVuSerif-112"/>
      <use x="417.333984" xlink:href="#DejaVuSerif-114"/>
      <use x="465.136719" xlink:href="#DejaVuSerif-101"/>
      <use x="524.316406" xlink:href="#DejaVuSerif-115"/>
      <use x="575.634766" xlink:href="#DejaVuSerif-115"/>
      <use x="626.953125" xlink:href="#DejaVuSerif-117"/>
      <use x="691.357422" xlink:href="#DejaVuSerif-114"/>
      <use x="739.160156" xlink:href="#DejaVuSerif-101"/>
      <use x="798.339844" xlink:href="#DejaVuSerif-32"/>
      <use x="830.126953" xlink:href="#DejaVuSerif-108"/>
      <use x="862.109375" xlink:href="#DejaVuSerif-101"/>
      <use x="921.289062" xlink:href="#DejaVuSerif-118"/>
      <use x="977.783203" xlink:href="#DejaVuSerif-101"/>
      <use x="1036.962891" xlink:href="#DejaVuSerif-108"/>
      <use x="1068.945312" xlink:href="#DejaVuSerif-32"/>
      <use x="1100.732422" xlink:href="#DejaVuSerif-40"/>
      <use x="1139.746094" xlink:href="#DejaVuSerif-100"/>
      <use x="1203.759766" xlink:href="#DejaVuSerif-66"/>
      <use x="1277.246094" xlink:href="#DejaVuSerif-41"/>
     </g>
    </g>
   </g>
   <g id="PolyCollection_1">
    <defs>
     <path d="M 56.664631 -162.426064 
L 56.664631 -133.87834 
L 68.742553 -139.209207 
L 80.820475 -113.601004 
L 92.898397 -100.843862 
L 104.976319 -86.998783 
L 117.054241 -81.116322 
L 129.132163 -66.140451 
L 141.210085 -59.568308 
L 153.288007 -56.866311 
L 165.365929 -59.058687 
L 177.443851 -60.192234 
L 189.521774 -60.066648 
L 201.599696 -60.277917 
L 213.677618 -65.37798 
L 225.75554 -64.110792 
L 237.833462 -59.103397 
L 249.911384 -61.778661 
L 261.989306 -66.330524 
L 274.067228 -62.735872 
L 286.14515 -59.629046 
L 298.223072 -55.552008 
L 310.300994 -58.476314 
L 310.300994 -85.616324 
L 310.300994 -85.616324 
L 298.223072 -80.786039 
L 286.14515 -85.105644 
L 274.067228 -89.193783 
L 261.989306 -93.829858 
L 249.911384 -87.352398 
L 237.833462 -84.569526 
L 225.75554 -90.842348 
L 213.677618 -92.261236 
L 201.599696 -86.133195 
L 189.521774 -86.17294 
L 177.443851 -85.534565 
L 165.365929 -85.555146 
L 153.288007 -83.510402 
L 141.210085 -86.680827 
L 129.132163 -96.060007 
L 117.054241 -112.435637 
L 104.976319 -118.902163 
L 92.898397 -131.160364 
L 80.820475 -141.124334 
L 68.742553 -167.621851 
L 56.664631 -162.426064 
z
" id="mfa3f2f1fe6" style="stroke:#80007f;stroke-opacity:0.33;"/>
    </defs>
    <g clip-path="url(#p24d1b3986c)">
     <use style="fill:#80007f;fill-opacity:0.33;stroke:#80007f;stroke-opacity:0.33;" x="0" xlink:href="#mfa3f2f1fe6" y="184.15625"/>
    </g>
   </g>
   <g id="PolyCollection_2">
    <defs>
     <path d="M 56.664631 -136.275763 
L 56.664631 -109.179349 
L 68.742553 -108.197049 
L 80.820475 -105.532475 
L 92.898397 -95.098917 
L 104.976319 -80.372536 
L 117.054241 -71.639586 
L 129.132163 -67.214657 
L 141.210085 -66.284038 
L 153.288007 -62.842586 
L 165.365929 -58.140133 
L 177.443851 -57.512159 
L 189.521774 -56.879838 
L 201.599696 -54.107008 
L 213.677618 -53.653131 
L 225.75554 -52.399976 
L 237.833462 -51.58434 
L 249.911384 -52.732525 
L 261.989306 -52.416801 
L 274.067228 -51.734733 
L 286.14515 -51.28574 
L 298.223072 -50.933873 
L 310.300994 -51.670281 
L 310.300994 -75.785389 
L 310.300994 -75.785389 
L 298.223072 -74.907705 
L 286.14515 -75.371129 
L 274.067228 -76.452183 
L 261.989306 -77.384796 
L 249.911384 -78.083348 
L 237.833462 -76.656628 
L 225.75554 -78.02423 
L 213.677618 -80.385636 
L 201.599696 -80.680467 
L 189.521774 -86.537202 
L 177.443851 -87.815042 
L 165.365929 -90.259566 
L 153.288007 -99.946002 
L 141.210085 -106.198353 
L 129.132163 -105.997468 
L 117.054241 -112.573842 
L 104.976319 -121.143934 
L 92.898397 -130.230997 
L 80.820475 -133.944347 
L 68.742553 -135.787548 
L 56.664631 -136.275763 
z
" id="m482061a7cf" style="stroke:#008000;stroke-opacity:0.2;"/>
    </defs>
    <g clip-path="url(#p24d1b3986c)">
     <use style="fill:#008000;fill-opacity:0.2;stroke:#008000;stroke-opacity:0.2;" x="0" xlink:href="#m482061a7cf" y="184.15625"/>
    </g>
   </g>
   <g id="line2d_29">
    <path clip-path="url(#p24d1b3986c)" d="M 56.664631 35.353829 
L 68.742553 29.996479 
L 80.820475 55.591904 
L 92.898397 66.590752 
L 104.976319 79.956489 
L 117.054241 86.09233 
L 129.132163 102.491244 
L 141.210085 110.304051 
L 153.288007 113.199484 
L 165.365929 111.08341 
L 177.443851 110.260475 
L 189.521774 110.106925 
L 201.599696 109.973769 
L 213.677618 104.478228 
L 225.75554 105.750726 
L 237.833462 111.284815 
L 249.911384 108.574663 
L 261.989306 103.320987 
L 274.067228 107.325456 
L 286.14515 110.782402 
L 298.223072 114.962701 
L 310.300994 111.538263 
" style="fill:none;stroke:#80007f;stroke-linecap:square;stroke-width:2;"/>
    <defs>
     <path d="M 0 3 
C 0.795609 3 1.55874 2.683901 2.12132 2.12132 
C 2.683901 1.55874 3 0.795609 3 0 
C 3 -0.795609 2.683901 -1.55874 2.12132 -2.12132 
C 1.55874 -2.683901 0.795609 -3 0 -3 
C -0.795609 -3 -1.55874 -2.683901 -2.12132 -2.12132 
C -2.683901 -1.55874 -3 -0.795609 -3 0 
C -3 0.795609 -2.683901 1.55874 -2.12132 2.12132 
C -1.55874 2.683901 -0.795609 3 0 3 
z
" id="m723e4ee196" style="stroke:#80007f;"/>
    </defs>
    <g clip-path="url(#p24d1b3986c)">
     <use style="fill:#80007f;stroke:#80007f;" x="56.664631" xlink:href="#m723e4ee196" y="35.353829"/>
     <use style="fill:#80007f;stroke:#80007f;" x="68.742553" xlink:href="#m723e4ee196" y="29.996479"/>
     <use style="fill:#80007f;stroke:#80007f;" x="80.820475" xlink:href="#m723e4ee196" y="55.591904"/>
     <use style="fill:#80007f;stroke:#80007f;" x="92.898397" xlink:href="#m723e4ee196" y="66.590752"/>
     <use style="fill:#80007f;stroke:#80007f;" x="104.976319" xlink:href="#m723e4ee196" y="79.956489"/>
     <use style="fill:#80007f;stroke:#80007f;" x="117.054241" xlink:href="#m723e4ee196" y="86.09233"/>
     <use style="fill:#80007f;stroke:#80007f;" x="129.132163" xlink:href="#m723e4ee196" y="102.491244"/>
     <use style="fill:#80007f;stroke:#80007f;" x="141.210085" xlink:href="#m723e4ee196" y="110.304051"/>
     <use style="fill:#80007f;stroke:#80007f;" x="153.288007" xlink:href="#m723e4ee196" y="113.199484"/>
     <use style="fill:#80007f;stroke:#80007f;" x="165.365929" xlink:href="#m723e4ee196" y="111.08341"/>
     <use style="fill:#80007f;stroke:#80007f;" x="177.443851" xlink:href="#m723e4ee196" y="110.260475"/>
     <use style="fill:#80007f;stroke:#80007f;" x="189.521774" xlink:href="#m723e4ee196" y="110.106925"/>
     <use style="fill:#80007f;stroke:#80007f;" x="201.599696" xlink:href="#m723e4ee196" y="109.973769"/>
     <use style="fill:#80007f;stroke:#80007f;" x="213.677618" xlink:href="#m723e4ee196" y="104.478228"/>
     <use style="fill:#80007f;stroke:#80007f;" x="225.75554" xlink:href="#m723e4ee196" y="105.750726"/>
     <use style="fill:#80007f;stroke:#80007f;" x="237.833462" xlink:href="#m723e4ee196" y="111.284815"/>
     <use style="fill:#80007f;stroke:#80007f;" x="249.911384" xlink:href="#m723e4ee196" y="108.574663"/>
     <use style="fill:#80007f;stroke:#80007f;" x="261.989306" xlink:href="#m723e4ee196" y="103.320987"/>
     <use style="fill:#80007f;stroke:#80007f;" x="274.067228" xlink:href="#m723e4ee196" y="107.325456"/>
     <use style="fill:#80007f;stroke:#80007f;" x="286.14515" xlink:href="#m723e4ee196" y="110.782402"/>
     <use style="fill:#80007f;stroke:#80007f;" x="298.223072" xlink:href="#m723e4ee196" y="114.962701"/>
     <use style="fill:#80007f;stroke:#80007f;" x="310.300994" xlink:href="#m723e4ee196" y="111.538263"/>
    </g>
   </g>
   <g id="line2d_30">
    <path clip-path="url(#p24d1b3986c)" d="M 56.664631 60.495377 
L 68.742553 61.494644 
L 80.820475 63.484435 
L 92.898397 69.514071 
L 104.976319 82.679242 
L 117.054241 92.867867 
L 129.132163 98.733723 
L 141.210085 98.984875 
L 153.288007 104.728815 
L 165.365929 111.253545 
L 177.443851 112.258025 
L 189.521774 113.077073 
L 201.599696 116.706837 
L 213.677618 117.153808 
L 225.75554 118.714065 
L 237.833462 119.691348 
L 249.911384 118.452294 
L 261.989306 118.876331 
L 274.067228 119.640818 
L 286.14515 120.287832 
L 298.223072 120.673088 
L 310.300994 119.885531 
" style="fill:none;stroke:#008000;stroke-linecap:square;stroke-width:2;"/>
    <defs>
     <path d="M 0 3 
C 0.795609 3 1.55874 2.683901 2.12132 2.12132 
C 2.683901 1.55874 3 0.795609 3 0 
C 3 -0.795609 2.683901 -1.55874 2.12132 -2.12132 
C 1.55874 -2.683901 0.795609 -3 0 -3 
C -0.795609 -3 -1.55874 -2.683901 -2.12132 -2.12132 
C -2.683901 -1.55874 -3 -0.795609 -3 0 
C -3 0.795609 -2.683901 1.55874 -2.12132 2.12132 
C -1.55874 2.683901 -0.795609 3 0 3 
z
" id="mee44652016" style="stroke:#008000;"/>
    </defs>
    <g clip-path="url(#p24d1b3986c)">
     <use style="fill:#008000;stroke:#008000;" x="56.664631" xlink:href="#mee44652016" y="60.495377"/>
     <use style="fill:#008000;stroke:#008000;" x="68.742553" xlink:href="#mee44652016" y="61.494644"/>
     <use style="fill:#008000;stroke:#008000;" x="80.820475" xlink:href="#mee44652016" y="63.484435"/>
     <use style="fill:#008000;stroke:#008000;" x="92.898397" xlink:href="#mee44652016" y="69.514071"/>
     <use style="fill:#008000;stroke:#008000;" x="104.976319" xlink:href="#mee44652016" y="82.679242"/>
     <use style="fill:#008000;stroke:#008000;" x="117.054241" xlink:href="#mee44652016" y="92.867867"/>
     <use style="fill:#008000;stroke:#008000;" x="129.132163" xlink:href="#mee44652016" y="98.733723"/>
     <use style="fill:#008000;stroke:#008000;" x="141.210085" xlink:href="#mee44652016" y="98.984875"/>
     <use style="fill:#008000;stroke:#008000;" x="153.288007" xlink:href="#mee44652016" y="104.728815"/>
     <use style="fill:#008000;stroke:#008000;" x="165.365929" xlink:href="#mee44652016" y="111.253545"/>
     <use style="fill:#008000;stroke:#008000;" x="177.443851" xlink:href="#mee44652016" y="112.258025"/>
     <use style="fill:#008000;stroke:#008000;" x="189.521774" xlink:href="#mee44652016" y="113.077073"/>
     <use style="fill:#008000;stroke:#008000;" x="201.599696" xlink:href="#mee44652016" y="116.706837"/>
     <use style="fill:#008000;stroke:#008000;" x="213.677618" xlink:href="#mee44652016" y="117.153808"/>
     <use style="fill:#008000;stroke:#008000;" x="225.75554" xlink:href="#mee44652016" y="118.714065"/>
     <use style="fill:#008000;stroke:#008000;" x="237.833462" xlink:href="#mee44652016" y="119.691348"/>
     <use style="fill:#008000;stroke:#008000;" x="249.911384" xlink:href="#mee44652016" y="118.452294"/>
     <use style="fill:#008000;stroke:#008000;" x="261.989306" xlink:href="#mee44652016" y="118.876331"/>
     <use style="fill:#008000;stroke:#008000;" x="274.067228" xlink:href="#mee44652016" y="119.640818"/>
     <use style="fill:#008000;stroke:#008000;" x="286.14515" xlink:href="#mee44652016" y="120.287832"/>
     <use style="fill:#008000;stroke:#008000;" x="298.223072" xlink:href="#mee44652016" y="120.673088"/>
     <use style="fill:#008000;stroke:#008000;" x="310.300994" xlink:href="#mee44652016" y="119.885531"/>
    </g>
   </g>
   <g id="patch_3">
    <path d="M 43.982813 146.6 
L 43.982813 10.7 
" style="fill:none;stroke:#000000;stroke-linecap:square;stroke-linejoin:miter;stroke-width:0.8;"/>
   </g>
   <g id="patch_4">
    <path d="M 322.982813 146.6 
L 322.982813 10.7 
" style="fill:none;stroke:#000000;stroke-linecap:square;stroke-linejoin:miter;stroke-width:0.8;"/>
   </g>
   <g id="patch_5">
    <path d="M 43.982813 146.6 
L 322.982813 146.6 
" style="fill:none;stroke:#000000;stroke-linecap:square;stroke-linejoin:miter;stroke-width:0.8;"/>
   </g>
   <g id="patch_6">
    <path d="M 43.982813 10.7 
L 322.982813 10.7 
" style="fill:none;stroke:#000000;stroke-linecap:square;stroke-linejoin:miter;stroke-width:0.8;"/>
   </g>
   <g id="legend_1">
    <g id="patch_7">
     <path d="M 187.939063 48.05625 
L 315.982813 48.05625 
Q 317.982813 48.05625 317.982813 46.05625 
L 317.982813 17.7 
Q 317.982813 15.7 315.982813 15.7 
L 187.939063 15.7 
Q 185.939063 15.7 185.939063 17.7 
L 185.939063 46.05625 
Q 185.939063 48.05625 187.939063 48.05625 
z
" style="fill:#ffffff;opacity:0.8;stroke:#cccccc;stroke-linejoin:miter;"/>
    </g>
    <g id="line2d_31">
     <path d="M 189.939063 23.798437 
L 209.939063 23.798437 
" style="fill:none;stroke:#80007f;stroke-linecap:square;stroke-width:2;"/>
    </g>
    <g id="line2d_32">
     <g>
      <use style="fill:#80007f;stroke:#80007f;" x="199.939063" xlink:href="#m723e4ee196" y="23.798437"/>
     </g>
    </g>
    <g id="text_13">
     <!-- Insects (2-2.5 kHz) -->
     <defs>
      <path d="M 24.703125 5.171875 
L 33.984375 5.171875 
L 33.984375 0 
L 5.515625 0 
L 5.515625 5.171875 
L 14.796875 5.171875 
L 14.796875 67.671875 
L 5.515625 67.671875 
L 5.515625 72.90625 
L 33.984375 72.90625 
L 33.984375 67.671875 
L 24.703125 67.671875 
z
" id="DejaVuSerif-73"/>
      <path d="M 9.421875 5.078125 
Q 9.421875 7.8125 11.28125 9.71875 
Q 13.140625 11.625 15.921875 11.625 
Q 18.609375 11.625 20.5 9.71875 
Q 22.40625 7.8125 22.40625 5.078125 
Q 22.40625 2.390625 20.5 0.484375 
Q 18.609375 -1.421875 15.921875 -1.421875 
Q 13.140625 -1.421875 11.28125 0.453125 
Q 9.421875 2.34375 9.421875 5.078125 
z
" id="DejaVuSerif-46"/>
      <path d="M 28.609375 0 
L 3.421875 0 
L 3.421875 5.171875 
L 11.53125 5.171875 
L 11.53125 70.796875 
L 2.875 70.796875 
L 2.875 75.984375 
L 20.515625 75.984375 
L 20.515625 26.515625 
L 42.390625 46.6875 
L 34.90625 46.6875 
L 34.90625 51.90625 
L 58.40625 51.90625 
L 58.40625 46.6875 
L 49.515625 46.6875 
L 34.078125 32.421875 
L 53.8125 5.171875 
L 61.28125 5.171875 
L 61.28125 0 
L 35.6875 0 
L 35.6875 5.171875 
L 43.109375 5.171875 
L 27.59375 26.515625 
L 20.515625 19.921875 
L 20.515625 5.171875 
L 28.609375 5.171875 
z
" id="DejaVuSerif-107"/>
      <path d="M 5.515625 0 
L 5.515625 5.171875 
L 14.796875 5.171875 
L 14.796875 67.671875 
L 5.515625 67.671875 
L 5.515625 72.90625 
L 33.984375 72.90625 
L 33.984375 67.671875 
L 24.703125 67.671875 
L 24.703125 42.484375 
L 62.5 42.484375 
L 62.5 67.671875 
L 53.21875 67.671875 
L 53.21875 72.90625 
L 81.6875 72.90625 
L 81.6875 67.671875 
L 72.40625 67.671875 
L 72.40625 5.171875 
L 81.6875 5.171875 
L 81.6875 0 
L 53.21875 0 
L 53.21875 5.171875 
L 62.5 5.171875 
L 62.5 36.53125 
L 24.703125 36.53125 
L 24.703125 5.171875 
L 33.984375 5.171875 
L 33.984375 0 
z
" id="DejaVuSerif-72"/>
      <path d="M 4 0 
L 4 4.203125 
L 36.53125 46.6875 
L 10.796875 46.6875 
L 10.796875 37.703125 
L 5.609375 37.703125 
L 5.609375 51.90625 
L 48.09375 51.90625 
L 48.09375 47.703125 
L 15.578125 5.171875 
L 43.796875 5.171875 
L 43.796875 14.59375 
L 49.03125 14.59375 
L 49.03125 0 
z
" id="DejaVuSerif-122"/>
     </defs>
     <g transform="translate(217.939063 27.298437)scale(0.1 -0.1)">
      <use xlink:href="#DejaVuSerif-73"/>
      <use x="39.501953" xlink:href="#DejaVuSerif-110"/>
      <use x="103.90625" xlink:href="#DejaVuSerif-115"/>
      <use x="155.224609" xlink:href="#DejaVuSerif-101"/>
      <use x="214.404297" xlink:href="#DejaVuSerif-99"/>
      <use x="270.410156" xlink:href="#DejaVuSerif-116"/>
      <use x="310.595703" xlink:href="#DejaVuSerif-115"/>
      <use x="361.914062" xlink:href="#DejaVuSerif-32"/>
      <use x="393.701172" xlink:href="#DejaVuSerif-40"/>
      <use x="432.714844" xlink:href="#DejaVuSerif-50"/>
      <use x="496.337891" xlink:href="#DejaVuSerif-45"/>
      <use x="530.126953" xlink:href="#DejaVuSerif-50"/>
      <use x="593.75" xlink:href="#DejaVuSerif-46"/>
      <use x="625.537109" xlink:href="#DejaVuSerif-53"/>
      <use x="689.160156" xlink:href="#DejaVuSerif-32"/>
      <use x="720.947266" xlink:href="#DejaVuSerif-107"/>
      <use x="781.542969" xlink:href="#DejaVuSerif-72"/>
      <use x="868.75" xlink:href="#DejaVuSerif-122"/>
      <use x="921.435547" xlink:href="#DejaVuSerif-41"/>
     </g>
    </g>
    <g id="line2d_33">
     <path d="M 189.939063 38.476562 
L 209.939063 38.476562 
" style="fill:none;stroke:#008000;stroke-linecap:square;stroke-width:2;"/>
    </g>
    <g id="line2d_34">
     <g>
      <use style="fill:#008000;stroke:#008000;" x="199.939063" xlink:href="#mee44652016" y="38.476562"/>
     </g>
    </g>
    <g id="text_14">
     <!-- Insects (4-5 kHz) -->
     <g transform="translate(217.939063 41.976562)scale(0.1 -0.1)">
      <use xlink:href="#DejaVuSerif-73"/>
      <use x="39.501953" xlink:href="#DejaVuSerif-110"/>
      <use x="103.90625" xlink:href="#DejaVuSerif-115"/>
      <use x="155.224609" xlink:href="#DejaVuSerif-101"/>
      <use x="214.404297" xlink:href="#DejaVuSerif-99"/>
      <use x="270.410156" xlink:href="#DejaVuSerif-116"/>
      <use x="310.595703" xlink:href="#DejaVuSerif-115"/>
      <use x="361.914062" xlink:href="#DejaVuSerif-32"/>
      <use x="393.701172" xlink:href="#DejaVuSerif-40"/>
      <use x="432.714844" xlink:href="#DejaVuSerif-52"/>
      <use x="496.337891" xlink:href="#DejaVuSerif-45"/>
      <use x="530.126953" xlink:href="#DejaVuSerif-53"/>
      <use x="593.75" xlink:href="#DejaVuSerif-32"/>
      <use x="625.537109" xlink:href="#DejaVuSerif-107"/>
      <use x="686.132812" xlink:href="#DejaVuSerif-72"/>
      <use x="773.339844" xlink:href="#DejaVuSerif-122"/>
      <use x="826.025391" xlink:href="#DejaVuSerif-41"/>
     </g>
    </g>
   </g>
  </g>
 </g>
 <defs>
  <clipPath id="p24d1b3986c">
   <rect height="135.9" width="279" x="43.982813" y="10.7"/>
  </clipPath>
 </defs>
</svg>
