<?xml version="1.0" encoding="utf-8" standalone="no"?>
<!DOCTYPE svg PUBLIC "-//W3C//DTD SVG 1.1//EN"
  "http://www.w3.org/Graphics/SVG/1.1/DTD/svg11.dtd">
<!-- Created with matplotlib (https://matplotlib.org/) -->
<svg height="195.60375pt" version="1.1" viewBox="0 0 336.665625 195.60375" width="336.665625pt" xmlns="http://www.w3.org/2000/svg" xmlns:xlink="http://www.w3.org/1999/xlink">
 <defs>
  <style type="text/css">
*{stroke-linecap:butt;stroke-linejoin:round;}
  </style>
 </defs>
 <g id="figure_1">
  <g id="patch_1">
   <path d="M 0 195.60375 
L 336.665625 195.60375 
L 336.665625 0 
L 0 0 
z
" style="fill:#ffffff;"/>
  </g>
  <g id="axes_1">
   <g id="patch_2">
    <path d="M 46.965625 158.0475 
L 325.965625 158.0475 
L 325.965625 22.1475 
L 46.965625 22.1475 
z
" style="fill:#ffffff;"/>
   </g>
   <g id="matplotlib.axis_1">
    <g id="xtick_1">
     <g id="line2d_1">
      <path clip-path="url(#p065c89cac7)" d="M 59.231426 158.0475 
L 59.231426 22.1475 
" style="fill:none;stroke:#000000;stroke-dasharray:3.7,1.6;stroke-dashoffset:0;stroke-opacity:0.25;"/>
     </g>
     <g id="line2d_2">
      <defs>
       <path d="M 0 0 
L 0 3.5 
" id="m29a991d722" style="stroke:#000000;stroke-width:0.8;"/>
      </defs>
      <g>
       <use style="stroke:#000000;stroke-width:0.8;" x="59.231426" xlink:href="#m29a991d722" y="158.0475"/>
      </g>
     </g>
     <g id="text_1">
      <!-- 20 -->
      <defs>
       <path d="M 12.796875 55.515625 
L 7.328125 55.515625 
L 7.328125 68.5 
Q 12.546875 71.296875 17.84375 72.75 
Q 23.140625 74.21875 28.21875 74.21875 
Q 39.59375 74.21875 46.1875 68.703125 
Q 52.78125 63.1875 52.78125 53.71875 
Q 52.78125 43.015625 37.84375 28.125 
Q 36.671875 27 36.078125 26.421875 
L 17.671875 8.015625 
L 48.09375 8.015625 
L 48.09375 17 
L 53.8125 17 
L 53.8125 0 
L 6.78125 0 
L 6.78125 5.328125 
L 28.90625 27.390625 
Q 36.234375 34.71875 39.359375 40.84375 
Q 42.484375 46.96875 42.484375 53.71875 
Q 42.484375 61.078125 38.640625 65.234375 
Q 34.8125 69.390625 28.078125 69.390625 
Q 21.09375 69.390625 17.28125 65.921875 
Q 13.484375 62.453125 12.796875 55.515625 
z
" id="DejaVuSerif-50"/>
       <path d="M 31.78125 3.421875 
Q 39.265625 3.421875 42.96875 11.625 
Q 46.6875 19.828125 46.6875 36.375 
Q 46.6875 52.984375 42.96875 61.1875 
Q 39.265625 69.390625 31.78125 69.390625 
Q 24.3125 69.390625 20.59375 61.1875 
Q 16.890625 52.984375 16.890625 36.375 
Q 16.890625 19.828125 20.59375 11.625 
Q 24.3125 3.421875 31.78125 3.421875 
z
M 31.78125 -1.421875 
Q 19.921875 -1.421875 13.25 8.53125 
Q 6.59375 18.5 6.59375 36.375 
Q 6.59375 54.296875 13.25 64.25 
Q 19.921875 74.21875 31.78125 74.21875 
Q 43.703125 74.21875 50.34375 64.25 
Q 56.984375 54.296875 56.984375 36.375 
Q 56.984375 18.5 50.34375 8.53125 
Q 43.703125 -1.421875 31.78125 -1.421875 
z
" id="DejaVuSerif-48"/>
      </defs>
      <g transform="translate(52.868926 172.645937)scale(0.1 -0.1)">
       <use xlink:href="#DejaVuSerif-50"/>
       <use x="63.623047" xlink:href="#DejaVuSerif-48"/>
      </g>
     </g>
    </g>
    <g id="xtick_2">
     <g id="line2d_3">
      <path clip-path="url(#p065c89cac7)" d="M 107.543114 158.0475 
L 107.543114 22.1475 
" style="fill:none;stroke:#000000;stroke-dasharray:3.7,1.6;stroke-dashoffset:0;stroke-opacity:0.25;"/>
     </g>
     <g id="line2d_4">
      <g>
       <use style="stroke:#000000;stroke-width:0.8;" x="107.543114" xlink:href="#m29a991d722" y="158.0475"/>
      </g>
     </g>
     <g id="text_2">
      <!-- 22 -->
      <g transform="translate(101.180614 172.645937)scale(0.1 -0.1)">
       <use xlink:href="#DejaVuSerif-50"/>
       <use x="63.623047" xlink:href="#DejaVuSerif-50"/>
      </g>
     </g>
    </g>
    <g id="xtick_3">
     <g id="line2d_5">
      <path clip-path="url(#p065c89cac7)" d="M 155.854802 158.0475 
L 155.854802 22.1475 
" style="fill:none;stroke:#000000;stroke-dasharray:3.7,1.6;stroke-dashoffset:0;stroke-opacity:0.25;"/>
     </g>
     <g id="line2d_6">
      <g>
       <use style="stroke:#000000;stroke-width:0.8;" x="155.854802" xlink:href="#m29a991d722" y="158.0475"/>
      </g>
     </g>
     <g id="text_3">
      <!-- 0 -->
      <g transform="translate(152.673552 172.645937)scale(0.1 -0.1)">
       <use xlink:href="#DejaVuSerif-48"/>
      </g>
     </g>
    </g>
    <g id="xtick_4">
     <g id="line2d_7">
      <path clip-path="url(#p065c89cac7)" d="M 204.166491 158.0475 
L 204.166491 22.1475 
" style="fill:none;stroke:#000000;stroke-dasharray:3.7,1.6;stroke-dashoffset:0;stroke-opacity:0.25;"/>
     </g>
     <g id="line2d_8">
      <g>
       <use style="stroke:#000000;stroke-width:0.8;" x="204.166491" xlink:href="#m29a991d722" y="158.0475"/>
      </g>
     </g>
     <g id="text_4">
      <!-- 2 -->
      <g transform="translate(200.985241 172.645937)scale(0.1 -0.1)">
       <use xlink:href="#DejaVuSerif-50"/>
      </g>
     </g>
    </g>
    <g id="xtick_5">
     <g id="line2d_9">
      <path clip-path="url(#p065c89cac7)" d="M 252.478179 158.0475 
L 252.478179 22.1475 
" style="fill:none;stroke:#000000;stroke-dasharray:3.7,1.6;stroke-dashoffset:0;stroke-opacity:0.25;"/>
     </g>
     <g id="line2d_10">
      <g>
       <use style="stroke:#000000;stroke-width:0.8;" x="252.478179" xlink:href="#m29a991d722" y="158.0475"/>
      </g>
     </g>
     <g id="text_5">
      <!-- 4 -->
      <defs>
       <path d="M 34.90625 24.703125 
L 34.90625 63.484375 
L 10.015625 24.703125 
z
M 56.390625 0 
L 23.1875 0 
L 23.1875 5.171875 
L 34.90625 5.171875 
L 34.90625 19.484375 
L 3.078125 19.484375 
L 3.078125 24.8125 
L 35.015625 74.21875 
L 44.671875 74.21875 
L 44.671875 24.703125 
L 58.59375 24.703125 
L 58.59375 19.484375 
L 44.671875 19.484375 
L 44.671875 5.171875 
L 56.390625 5.171875 
z
" id="DejaVuSerif-52"/>
      </defs>
      <g transform="translate(249.296929 172.645937)scale(0.1 -0.1)">
       <use xlink:href="#DejaVuSerif-52"/>
      </g>
     </g>
    </g>
    <g id="xtick_6">
     <g id="line2d_11">
      <path clip-path="url(#p065c89cac7)" d="M 300.789867 158.0475 
L 300.789867 22.1475 
" style="fill:none;stroke:#000000;stroke-dasharray:3.7,1.6;stroke-dashoffset:0;stroke-opacity:0.25;"/>
     </g>
     <g id="line2d_12">
      <g>
       <use style="stroke:#000000;stroke-width:0.8;" x="300.789867" xlink:href="#m29a991d722" y="158.0475"/>
      </g>
     </g>
     <g id="text_6">
      <!-- 6 -->
      <defs>
       <path d="M 32.71875 3.421875 
Q 39.59375 3.421875 43.296875 8.46875 
Q 47.015625 13.53125 47.015625 23 
Q 47.015625 32.46875 43.296875 37.515625 
Q 39.59375 42.578125 32.71875 42.578125 
Q 25.734375 42.578125 22.0625 37.6875 
Q 18.40625 32.8125 18.40625 23.578125 
Q 18.40625 13.875 22.109375 8.640625 
Q 25.828125 3.421875 32.71875 3.421875 
z
M 16.796875 40.140625 
Q 20.125 43.796875 24.3125 45.59375 
Q 28.515625 47.40625 33.796875 47.40625 
Q 44.671875 47.40625 51 40.859375 
Q 57.328125 34.328125 57.328125 23 
Q 57.328125 11.921875 50.515625 5.25 
Q 43.703125 -1.421875 32.328125 -1.421875 
Q 19.96875 -1.421875 13.328125 7.78125 
Q 6.6875 17 6.6875 34.078125 
Q 6.6875 53.21875 14.546875 63.71875 
Q 22.40625 74.21875 36.71875 74.21875 
Q 40.578125 74.21875 44.828125 73.484375 
Q 49.078125 72.75 53.515625 71.296875 
L 53.515625 59.28125 
L 48 59.28125 
Q 47.40625 64.203125 44.234375 66.796875 
Q 41.0625 69.390625 35.6875 69.390625 
Q 26.21875 69.390625 21.578125 62.203125 
Q 16.9375 55.03125 16.796875 40.140625 
z
" id="DejaVuSerif-54"/>
      </defs>
      <g transform="translate(297.608617 172.645937)scale(0.1 -0.1)">
       <use xlink:href="#DejaVuSerif-54"/>
      </g>
     </g>
    </g>
    <g id="xtick_7">
     <g id="line2d_13">
      <path clip-path="url(#p065c89cac7)" d="M 59.231426 158.0475 
L 59.231426 22.1475 
" style="fill:none;stroke:#000000;stroke-linecap:square;stroke-opacity:0.1;stroke-width:0.5;"/>
     </g>
     <g id="line2d_14">
      <defs>
       <path d="M 0 0 
L 0 2 
" id="m89ddc6707c" style="stroke:#000000;stroke-width:0.6;"/>
      </defs>
      <g>
       <use style="stroke:#000000;stroke-width:0.6;" x="59.231426" xlink:href="#m89ddc6707c" y="158.0475"/>
      </g>
     </g>
    </g>
    <g id="xtick_8">
     <g id="line2d_15">
      <path clip-path="url(#p065c89cac7)" d="M 71.309348 158.0475 
L 71.309348 22.1475 
" style="fill:none;stroke:#000000;stroke-linecap:square;stroke-opacity:0.1;stroke-width:0.5;"/>
     </g>
     <g id="line2d_16">
      <g>
       <use style="stroke:#000000;stroke-width:0.6;" x="71.309348" xlink:href="#m89ddc6707c" y="158.0475"/>
      </g>
     </g>
    </g>
    <g id="xtick_9">
     <g id="line2d_17">
      <path clip-path="url(#p065c89cac7)" d="M 83.38727 158.0475 
L 83.38727 22.1475 
" style="fill:none;stroke:#000000;stroke-linecap:square;stroke-opacity:0.1;stroke-width:0.5;"/>
     </g>
     <g id="line2d_18">
      <g>
       <use style="stroke:#000000;stroke-width:0.6;" x="83.38727" xlink:href="#m89ddc6707c" y="158.0475"/>
      </g>
     </g>
    </g>
    <g id="xtick_10">
     <g id="line2d_19">
      <path clip-path="url(#p065c89cac7)" d="M 95.465192 158.0475 
L 95.465192 22.1475 
" style="fill:none;stroke:#000000;stroke-linecap:square;stroke-opacity:0.1;stroke-width:0.5;"/>
     </g>
     <g id="line2d_20">
      <g>
       <use style="stroke:#000000;stroke-width:0.6;" x="95.465192" xlink:href="#m89ddc6707c" y="158.0475"/>
      </g>
     </g>
    </g>
    <g id="xtick_11">
     <g id="line2d_21">
      <path clip-path="url(#p065c89cac7)" d="M 107.543114 158.0475 
L 107.543114 22.1475 
" style="fill:none;stroke:#000000;stroke-linecap:square;stroke-opacity:0.1;stroke-width:0.5;"/>
     </g>
     <g id="line2d_22">
      <g>
       <use style="stroke:#000000;stroke-width:0.6;" x="107.543114" xlink:href="#m89ddc6707c" y="158.0475"/>
      </g>
     </g>
    </g>
    <g id="xtick_12">
     <g id="line2d_23">
      <path clip-path="url(#p065c89cac7)" d="M 119.621036 158.0475 
L 119.621036 22.1475 
" style="fill:none;stroke:#000000;stroke-linecap:square;stroke-opacity:0.1;stroke-width:0.5;"/>
     </g>
     <g id="line2d_24">
      <g>
       <use style="stroke:#000000;stroke-width:0.6;" x="119.621036" xlink:href="#m89ddc6707c" y="158.0475"/>
      </g>
     </g>
    </g>
    <g id="xtick_13">
     <g id="line2d_25">
      <path clip-path="url(#p065c89cac7)" d="M 131.698958 158.0475 
L 131.698958 22.1475 
" style="fill:none;stroke:#000000;stroke-linecap:square;stroke-opacity:0.1;stroke-width:0.5;"/>
     </g>
     <g id="line2d_26">
      <g>
       <use style="stroke:#000000;stroke-width:0.6;" x="131.698958" xlink:href="#m89ddc6707c" y="158.0475"/>
      </g>
     </g>
    </g>
    <g id="xtick_14">
     <g id="line2d_27">
      <path clip-path="url(#p065c89cac7)" d="M 143.77688 158.0475 
L 143.77688 22.1475 
" style="fill:none;stroke:#000000;stroke-linecap:square;stroke-opacity:0.1;stroke-width:0.5;"/>
     </g>
     <g id="line2d_28">
      <g>
       <use style="stroke:#000000;stroke-width:0.6;" x="143.77688" xlink:href="#m89ddc6707c" y="158.0475"/>
      </g>
     </g>
    </g>
    <g id="xtick_15">
     <g id="line2d_29">
      <path clip-path="url(#p065c89cac7)" d="M 155.854802 158.0475 
L 155.854802 22.1475 
" style="fill:none;stroke:#000000;stroke-linecap:square;stroke-opacity:0.1;stroke-width:0.5;"/>
     </g>
     <g id="line2d_30">
      <g>
       <use style="stroke:#000000;stroke-width:0.6;" x="155.854802" xlink:href="#m89ddc6707c" y="158.0475"/>
      </g>
     </g>
    </g>
    <g id="xtick_16">
     <g id="line2d_31">
      <path clip-path="url(#p065c89cac7)" d="M 167.932725 158.0475 
L 167.932725 22.1475 
" style="fill:none;stroke:#000000;stroke-linecap:square;stroke-opacity:0.1;stroke-width:0.5;"/>
     </g>
     <g id="line2d_32">
      <g>
       <use style="stroke:#000000;stroke-width:0.6;" x="167.932725" xlink:href="#m89ddc6707c" y="158.0475"/>
      </g>
     </g>
    </g>
    <g id="xtick_17">
     <g id="line2d_33">
      <path clip-path="url(#p065c89cac7)" d="M 180.010647 158.0475 
L 180.010647 22.1475 
" style="fill:none;stroke:#000000;stroke-linecap:square;stroke-opacity:0.1;stroke-width:0.5;"/>
     </g>
     <g id="line2d_34">
      <g>
       <use style="stroke:#000000;stroke-width:0.6;" x="180.010647" xlink:href="#m89ddc6707c" y="158.0475"/>
      </g>
     </g>
    </g>
    <g id="xtick_18">
     <g id="line2d_35">
      <path clip-path="url(#p065c89cac7)" d="M 192.088569 158.0475 
L 192.088569 22.1475 
" style="fill:none;stroke:#000000;stroke-linecap:square;stroke-opacity:0.1;stroke-width:0.5;"/>
     </g>
     <g id="line2d_36">
      <g>
       <use style="stroke:#000000;stroke-width:0.6;" x="192.088569" xlink:href="#m89ddc6707c" y="158.0475"/>
      </g>
     </g>
    </g>
    <g id="xtick_19">
     <g id="line2d_37">
      <path clip-path="url(#p065c89cac7)" d="M 204.166491 158.0475 
L 204.166491 22.1475 
" style="fill:none;stroke:#000000;stroke-linecap:square;stroke-opacity:0.1;stroke-width:0.5;"/>
     </g>
     <g id="line2d_38">
      <g>
       <use style="stroke:#000000;stroke-width:0.6;" x="204.166491" xlink:href="#m89ddc6707c" y="158.0475"/>
      </g>
     </g>
    </g>
    <g id="xtick_20">
     <g id="line2d_39">
      <path clip-path="url(#p065c89cac7)" d="M 216.244413 158.0475 
L 216.244413 22.1475 
" style="fill:none;stroke:#000000;stroke-linecap:square;stroke-opacity:0.1;stroke-width:0.5;"/>
     </g>
     <g id="line2d_40">
      <g>
       <use style="stroke:#000000;stroke-width:0.6;" x="216.244413" xlink:href="#m89ddc6707c" y="158.0475"/>
      </g>
     </g>
    </g>
    <g id="xtick_21">
     <g id="line2d_41">
      <path clip-path="url(#p065c89cac7)" d="M 228.322335 158.0475 
L 228.322335 22.1475 
" style="fill:none;stroke:#000000;stroke-linecap:square;stroke-opacity:0.1;stroke-width:0.5;"/>
     </g>
     <g id="line2d_42">
      <g>
       <use style="stroke:#000000;stroke-width:0.6;" x="228.322335" xlink:href="#m89ddc6707c" y="158.0475"/>
      </g>
     </g>
    </g>
    <g id="xtick_22">
     <g id="line2d_43">
      <path clip-path="url(#p065c89cac7)" d="M 240.400257 158.0475 
L 240.400257 22.1475 
" style="fill:none;stroke:#000000;stroke-linecap:square;stroke-opacity:0.1;stroke-width:0.5;"/>
     </g>
     <g id="line2d_44">
      <g>
       <use style="stroke:#000000;stroke-width:0.6;" x="240.400257" xlink:href="#m89ddc6707c" y="158.0475"/>
      </g>
     </g>
    </g>
    <g id="xtick_23">
     <g id="line2d_45">
      <path clip-path="url(#p065c89cac7)" d="M 252.478179 158.0475 
L 252.478179 22.1475 
" style="fill:none;stroke:#000000;stroke-linecap:square;stroke-opacity:0.1;stroke-width:0.5;"/>
     </g>
     <g id="line2d_46">
      <g>
       <use style="stroke:#000000;stroke-width:0.6;" x="252.478179" xlink:href="#m89ddc6707c" y="158.0475"/>
      </g>
     </g>
    </g>
    <g id="xtick_24">
     <g id="line2d_47">
      <path clip-path="url(#p065c89cac7)" d="M 264.556101 158.0475 
L 264.556101 22.1475 
" style="fill:none;stroke:#000000;stroke-linecap:square;stroke-opacity:0.1;stroke-width:0.5;"/>
     </g>
     <g id="line2d_48">
      <g>
       <use style="stroke:#000000;stroke-width:0.6;" x="264.556101" xlink:href="#m89ddc6707c" y="158.0475"/>
      </g>
     </g>
    </g>
    <g id="xtick_25">
     <g id="line2d_49">
      <path clip-path="url(#p065c89cac7)" d="M 276.634023 158.0475 
L 276.634023 22.1475 
" style="fill:none;stroke:#000000;stroke-linecap:square;stroke-opacity:0.1;stroke-width:0.5;"/>
     </g>
     <g id="line2d_50">
      <g>
       <use style="stroke:#000000;stroke-width:0.6;" x="276.634023" xlink:href="#m89ddc6707c" y="158.0475"/>
      </g>
     </g>
    </g>
    <g id="xtick_26">
     <g id="line2d_51">
      <path clip-path="url(#p065c89cac7)" d="M 288.711945 158.0475 
L 288.711945 22.1475 
" style="fill:none;stroke:#000000;stroke-linecap:square;stroke-opacity:0.1;stroke-width:0.5;"/>
     </g>
     <g id="line2d_52">
      <g>
       <use style="stroke:#000000;stroke-width:0.6;" x="288.711945" xlink:href="#m89ddc6707c" y="158.0475"/>
      </g>
     </g>
    </g>
    <g id="xtick_27">
     <g id="line2d_53">
      <path clip-path="url(#p065c89cac7)" d="M 300.789867 158.0475 
L 300.789867 22.1475 
" style="fill:none;stroke:#000000;stroke-linecap:square;stroke-opacity:0.1;stroke-width:0.5;"/>
     </g>
     <g id="line2d_54">
      <g>
       <use style="stroke:#000000;stroke-width:0.6;" x="300.789867" xlink:href="#m89ddc6707c" y="158.0475"/>
      </g>
     </g>
    </g>
    <g id="xtick_28">
     <g id="line2d_55">
      <path clip-path="url(#p065c89cac7)" d="M 312.86779 158.0475 
L 312.86779 22.1475 
" style="fill:none;stroke:#000000;stroke-linecap:square;stroke-opacity:0.1;stroke-width:0.5;"/>
     </g>
     <g id="line2d_56">
      <g>
       <use style="stroke:#000000;stroke-width:0.6;" x="312.86779" xlink:href="#m89ddc6707c" y="158.0475"/>
      </g>
     </g>
    </g>
    <g id="text_7">
     <!-- Local time (hours) -->
     <defs>
      <path d="M 5.515625 0 
L 5.515625 5.171875 
L 14.796875 5.171875 
L 14.796875 67.671875 
L 5.515625 67.671875 
L 5.515625 72.90625 
L 33.984375 72.90625 
L 33.984375 67.671875 
L 24.703125 67.671875 
L 24.703125 6 
L 58.015625 6 
L 58.015625 18.21875 
L 64.015625 18.21875 
L 64.015625 0 
z
" id="DejaVuSerif-76"/>
      <path d="M 30.078125 3.421875 
Q 37.3125 3.421875 40.984375 9.125 
Q 44.671875 14.84375 44.671875 25.984375 
Q 44.671875 37.109375 40.984375 42.796875 
Q 37.3125 48.484375 30.078125 48.484375 
Q 22.859375 48.484375 19.171875 42.796875 
Q 15.484375 37.109375 15.484375 25.984375 
Q 15.484375 14.84375 19.1875 9.125 
Q 22.90625 3.421875 30.078125 3.421875 
z
M 30.078125 -1.421875 
Q 18.75 -1.421875 11.859375 6.078125 
Q 4.984375 13.578125 4.984375 25.984375 
Q 4.984375 38.375 11.84375 45.84375 
Q 18.703125 53.328125 30.078125 53.328125 
Q 41.453125 53.328125 48.3125 45.84375 
Q 55.171875 38.375 55.171875 25.984375 
Q 55.171875 13.578125 48.3125 6.078125 
Q 41.453125 -1.421875 30.078125 -1.421875 
z
" id="DejaVuSerif-111"/>
      <path d="M 51.421875 15.578125 
Q 49.515625 7.28125 44.09375 2.921875 
Q 38.671875 -1.421875 30.078125 -1.421875 
Q 18.75 -1.421875 11.859375 6.078125 
Q 4.984375 13.578125 4.984375 25.984375 
Q 4.984375 38.421875 11.859375 45.875 
Q 18.75 53.328125 30.078125 53.328125 
Q 35.015625 53.328125 39.890625 52.171875 
Q 44.78125 51.03125 49.703125 48.6875 
L 49.703125 35.40625 
L 44.484375 35.40625 
Q 43.453125 42.234375 40.015625 45.359375 
Q 36.578125 48.484375 30.171875 48.484375 
Q 22.90625 48.484375 19.1875 42.84375 
Q 15.484375 37.203125 15.484375 25.984375 
Q 15.484375 14.75 19.171875 9.078125 
Q 22.859375 3.421875 30.171875 3.421875 
Q 35.984375 3.421875 39.453125 6.4375 
Q 42.921875 9.46875 44.1875 15.578125 
z
" id="DejaVuSerif-99"/>
      <path d="M 39.796875 16.3125 
L 39.796875 27.296875 
L 28.21875 27.296875 
Q 21.53125 27.296875 18.25 24.40625 
Q 14.984375 21.53125 14.984375 15.578125 
Q 14.984375 10.15625 18.296875 6.984375 
Q 21.625 3.8125 27.296875 3.8125 
Q 32.90625 3.8125 36.34375 7.28125 
Q 39.796875 10.75 39.796875 16.3125 
z
M 48.78125 32.421875 
L 48.78125 5.171875 
L 56.78125 5.171875 
L 56.78125 0 
L 39.796875 0 
L 39.796875 5.609375 
Q 36.8125 2 32.90625 0.28125 
Q 29 -1.421875 23.78125 -1.421875 
Q 15.140625 -1.421875 10.0625 3.171875 
Q 4.984375 7.765625 4.984375 15.578125 
Q 4.984375 23.640625 10.796875 28.078125 
Q 16.609375 32.515625 27.203125 32.515625 
L 39.796875 32.515625 
L 39.796875 36.078125 
Q 39.796875 42 36.203125 45.234375 
Q 32.625 48.484375 26.125 48.484375 
Q 20.75 48.484375 17.578125 46.046875 
Q 14.40625 43.609375 13.625 38.8125 
L 8.984375 38.8125 
L 8.984375 49.3125 
Q 13.671875 51.3125 18.09375 52.3125 
Q 22.515625 53.328125 26.703125 53.328125 
Q 37.5 53.328125 43.140625 47.96875 
Q 48.78125 42.625 48.78125 32.421875 
z
" id="DejaVuSerif-97"/>
      <path d="M 20.515625 5.171875 
L 29 5.171875 
L 29 0 
L 2.875 0 
L 2.875 5.171875 
L 11.53125 5.171875 
L 11.53125 70.796875 
L 2.875 70.796875 
L 2.875 75.984375 
L 20.515625 75.984375 
z
" id="DejaVuSerif-108"/>
      <path id="DejaVuSerif-32"/>
      <path d="M 10.796875 46.6875 
L 2.875 46.6875 
L 2.875 51.90625 
L 10.796875 51.90625 
L 10.796875 68.015625 
L 19.828125 68.015625 
L 19.828125 51.90625 
L 36.71875 51.90625 
L 36.71875 46.6875 
L 19.828125 46.6875 
L 19.828125 13.71875 
Q 19.828125 7.125 21.09375 5.265625 
Q 22.359375 3.421875 25.78125 3.421875 
Q 29.296875 3.421875 30.90625 5.484375 
Q 32.515625 7.5625 32.625 12.203125 
L 39.40625 12.203125 
Q 39.015625 5.125 35.546875 1.84375 
Q 32.078125 -1.421875 25 -1.421875 
Q 17.234375 -1.421875 14.015625 2.015625 
Q 10.796875 5.46875 10.796875 13.71875 
z
" id="DejaVuSerif-116"/>
      <path d="M 9.71875 68.015625 
Q 9.71875 70.265625 11.34375 71.921875 
Q 12.984375 73.578125 15.28125 73.578125 
Q 17.53125 73.578125 19.15625 71.921875 
Q 20.796875 70.265625 20.796875 68.015625 
Q 20.796875 65.71875 19.1875 64.109375 
Q 17.578125 62.5 15.28125 62.5 
Q 12.984375 62.5 11.34375 64.109375 
Q 9.71875 65.71875 9.71875 68.015625 
z
M 21.1875 5.171875 
L 29.6875 5.171875 
L 29.6875 0 
L 3.609375 0 
L 3.609375 5.171875 
L 12.203125 5.171875 
L 12.203125 46.6875 
L 3.609375 46.6875 
L 3.609375 51.90625 
L 21.1875 51.90625 
z
" id="DejaVuSerif-105"/>
      <path d="M 51.8125 41.796875 
Q 54.390625 47.515625 58.421875 50.421875 
Q 62.453125 53.328125 67.828125 53.328125 
Q 75.984375 53.328125 79.984375 48.265625 
Q 83.984375 43.21875 83.984375 33.015625 
L 83.984375 5.171875 
L 92.09375 5.171875 
L 92.09375 0 
L 67.1875 0 
L 67.1875 5.171875 
L 75 5.171875 
L 75 31.984375 
Q 75 39.9375 72.65625 43.3125 
Q 70.3125 46.6875 64.890625 46.6875 
Q 58.890625 46.6875 55.734375 42.140625 
Q 52.59375 37.59375 52.59375 28.90625 
L 52.59375 5.171875 
L 60.40625 5.171875 
L 60.40625 0 
L 35.796875 0 
L 35.796875 5.171875 
L 43.609375 5.171875 
L 43.609375 32.328125 
Q 43.609375 40.09375 41.265625 43.390625 
Q 38.921875 46.6875 33.5 46.6875 
Q 27.484375 46.6875 24.328125 42.140625 
Q 21.1875 37.59375 21.1875 28.90625 
L 21.1875 5.171875 
L 29 5.171875 
L 29 0 
L 4.109375 0 
L 4.109375 5.171875 
L 12.203125 5.171875 
L 12.203125 46.78125 
L 3.609375 46.78125 
L 3.609375 51.90625 
L 21.1875 51.90625 
L 21.1875 42.671875 
Q 23.6875 47.859375 27.53125 50.59375 
Q 31.390625 53.328125 36.28125 53.328125 
Q 42.328125 53.328125 46.375 50.3125 
Q 50.4375 47.3125 51.8125 41.796875 
z
" id="DejaVuSerif-109"/>
      <path d="M 54.203125 25 
L 15.484375 25 
L 15.484375 24.609375 
Q 15.484375 14.109375 19.4375 8.765625 
Q 23.390625 3.421875 31.109375 3.421875 
Q 37.015625 3.421875 40.796875 6.515625 
Q 44.578125 9.625 46.09375 15.71875 
L 53.328125 15.71875 
Q 51.171875 7.171875 45.375 2.875 
Q 39.59375 -1.421875 30.171875 -1.421875 
Q 18.796875 -1.421875 11.890625 6.078125 
Q 4.984375 13.578125 4.984375 25.984375 
Q 4.984375 38.28125 11.765625 45.796875 
Q 18.5625 53.328125 29.59375 53.328125 
Q 41.359375 53.328125 47.65625 46.0625 
Q 53.953125 38.8125 54.203125 25 
z
M 43.609375 30.171875 
Q 43.3125 39.265625 39.765625 43.875 
Q 36.234375 48.484375 29.59375 48.484375 
Q 23.390625 48.484375 19.828125 43.84375 
Q 16.265625 39.203125 15.484375 30.171875 
z
" id="DejaVuSerif-101"/>
      <path d="M 31.890625 -15.578125 
Q 20.015625 -10.25 13.953125 1.296875 
Q 7.90625 12.84375 7.90625 30.171875 
Q 7.90625 47.5625 13.953125 59.109375 
Q 20.015625 70.65625 31.890625 75.984375 
L 31.890625 71.1875 
Q 24.359375 66.015625 21.09375 56.609375 
Q 17.828125 47.21875 17.828125 30.171875 
Q 17.828125 13.1875 21.09375 3.78125 
Q 24.359375 -5.609375 31.890625 -10.796875 
z
" id="DejaVuSerif-40"/>
      <path d="M 4.109375 0 
L 4.109375 5.171875 
L 12.203125 5.171875 
L 12.203125 70.796875 
L 3.609375 70.796875 
L 3.609375 75.984375 
L 21.1875 75.984375 
L 21.1875 42.671875 
Q 23.6875 47.953125 27.65625 50.640625 
Q 31.640625 53.328125 36.921875 53.328125 
Q 45.515625 53.328125 49.5625 48.390625 
Q 53.609375 43.453125 53.609375 33.015625 
L 53.609375 5.171875 
L 61.625 5.171875 
L 61.625 0 
L 36.8125 0 
L 36.8125 5.171875 
L 44.578125 5.171875 
L 44.578125 30.171875 
Q 44.578125 39.703125 42.25 43.1875 
Q 39.9375 46.6875 33.984375 46.6875 
Q 27.734375 46.6875 24.453125 42.140625 
Q 21.1875 37.59375 21.1875 28.90625 
L 21.1875 5.171875 
L 29 5.171875 
L 29 0 
z
" id="DejaVuSerif-104"/>
      <path d="M 35.40625 51.90625 
L 52.203125 51.90625 
L 52.203125 5.171875 
L 60.6875 5.171875 
L 60.6875 0 
L 43.21875 0 
L 43.21875 9.1875 
Q 40.71875 4 36.765625 1.28125 
Q 32.8125 -1.421875 27.59375 -1.421875 
Q 18.953125 -1.421875 14.875 3.484375 
Q 10.796875 8.40625 10.796875 18.890625 
L 10.796875 46.6875 
L 2.6875 46.6875 
L 2.6875 51.90625 
L 19.828125 51.90625 
L 19.828125 21.6875 
Q 19.828125 12.203125 22.140625 8.6875 
Q 24.46875 5.171875 30.421875 5.171875 
Q 36.671875 5.171875 39.9375 9.765625 
Q 43.21875 14.359375 43.21875 23.09375 
L 43.21875 46.6875 
L 35.40625 46.6875 
z
" id="DejaVuSerif-117"/>
      <path d="M 47.796875 52 
L 47.796875 39.015625 
L 42.625 39.015625 
Q 42.390625 42.875 40.484375 44.78125 
Q 38.578125 46.6875 34.90625 46.6875 
Q 28.265625 46.6875 24.71875 42.09375 
Q 21.1875 37.5 21.1875 28.90625 
L 21.1875 5.171875 
L 31.59375 5.171875 
L 31.59375 0 
L 4.109375 0 
L 4.109375 5.171875 
L 12.203125 5.171875 
L 12.203125 46.78125 
L 3.609375 46.78125 
L 3.609375 51.90625 
L 21.1875 51.90625 
L 21.1875 42.671875 
Q 23.828125 48.09375 27.96875 50.703125 
Q 32.125 53.328125 38.09375 53.328125 
Q 40.28125 53.328125 42.703125 52.984375 
Q 45.125 52.640625 47.796875 52 
z
" id="DejaVuSerif-114"/>
      <path d="M 5.609375 2.875 
L 5.609375 14.984375 
L 10.796875 14.984375 
Q 10.984375 9.1875 14.421875 6.296875 
Q 17.875 3.421875 24.609375 3.421875 
Q 30.671875 3.421875 33.84375 5.6875 
Q 37.015625 7.953125 37.015625 12.3125 
Q 37.015625 15.71875 34.6875 17.8125 
Q 32.375 19.921875 24.90625 22.3125 
L 18.40625 24.515625 
Q 11.71875 26.65625 8.71875 29.875 
Q 5.71875 33.109375 5.71875 38.09375 
Q 5.71875 45.21875 10.9375 49.265625 
Q 16.15625 53.328125 25.390625 53.328125 
Q 29.5 53.328125 34.03125 52.25 
Q 38.578125 51.171875 43.40625 49.125 
L 43.40625 37.796875 
L 38.234375 37.796875 
Q 38.03125 42.828125 34.703125 45.65625 
Q 31.390625 48.484375 25.6875 48.484375 
Q 20.015625 48.484375 17.109375 46.484375 
Q 14.203125 44.484375 14.203125 40.484375 
Q 14.203125 37.203125 16.40625 35.21875 
Q 18.609375 33.25 25.203125 31.203125 
L 32.328125 29 
Q 39.703125 26.703125 42.9375 23.265625 
Q 46.1875 19.828125 46.1875 14.40625 
Q 46.1875 7.03125 40.546875 2.796875 
Q 34.90625 -1.421875 25 -1.421875 
Q 19.96875 -1.421875 15.1875 -0.34375 
Q 10.40625 0.734375 5.609375 2.875 
z
" id="DejaVuSerif-115"/>
      <path d="M 7.078125 -15.578125 
L 7.078125 -10.796875 
Q 14.59375 -5.609375 17.890625 3.78125 
Q 21.1875 13.1875 21.1875 30.171875 
Q 21.1875 47.21875 17.890625 56.609375 
Q 14.59375 66.015625 7.078125 71.1875 
L 7.078125 75.984375 
Q 19 70.65625 25.046875 59.109375 
Q 31.109375 47.5625 31.109375 30.171875 
Q 31.109375 12.84375 25.046875 1.296875 
Q 19 -10.25 7.078125 -15.578125 
z
" id="DejaVuSerif-41"/>
     </defs>
     <g transform="translate(139.959375 186.324062)scale(0.1 -0.1)">
      <use xlink:href="#DejaVuSerif-76"/>
      <use x="66.40625" xlink:href="#DejaVuSerif-111"/>
      <use x="126.611328" xlink:href="#DejaVuSerif-99"/>
      <use x="182.617188" xlink:href="#DejaVuSerif-97"/>
      <use x="242.236328" xlink:href="#DejaVuSerif-108"/>
      <use x="274.21875" xlink:href="#DejaVuSerif-32"/>
      <use x="306.005859" xlink:href="#DejaVuSerif-116"/>
      <use x="346.191406" xlink:href="#DejaVuSerif-105"/>
      <use x="378.173828" xlink:href="#DejaVuSerif-109"/>
      <use x="472.998047" xlink:href="#DejaVuSerif-101"/>
      <use x="532.177734" xlink:href="#DejaVuSerif-32"/>
      <use x="563.964844" xlink:href="#DejaVuSerif-40"/>
      <use x="602.978516" xlink:href="#DejaVuSerif-104"/>
      <use x="667.382812" xlink:href="#DejaVuSerif-111"/>
      <use x="727.587891" xlink:href="#DejaVuSerif-117"/>
      <use x="791.992188" xlink:href="#DejaVuSerif-114"/>
      <use x="839.794922" xlink:href="#DejaVuSerif-115"/>
      <use x="891.113281" xlink:href="#DejaVuSerif-41"/>
     </g>
    </g>
   </g>
   <g id="matplotlib.axis_2">
    <g id="ytick_1">
     <g id="line2d_57">
      <path clip-path="url(#p065c89cac7)" d="M 46.965625 158.0475 
L 325.965625 158.0475 
" style="fill:none;stroke:#000000;stroke-dasharray:3.7,1.6;stroke-dashoffset:0;stroke-opacity:0.25;"/>
     </g>
     <g id="line2d_58">
      <defs>
       <path d="M 0 0 
L -3.5 0 
" id="m7d06819907" style="stroke:#000000;stroke-width:0.8;"/>
      </defs>
      <g>
       <use style="stroke:#000000;stroke-width:0.8;" x="46.965625" xlink:href="#m7d06819907" y="158.0475"/>
      </g>
     </g>
     <g id="text_8">
      <!-- 0 -->
      <defs>
       <path d="M 31.78125 66.40625 
Q 24.171875 66.40625 20.328125 58.90625 
Q 16.5 51.421875 16.5 36.375 
Q 16.5 21.390625 20.328125 13.890625 
Q 24.171875 6.390625 31.78125 6.390625 
Q 39.453125 6.390625 43.28125 13.890625 
Q 47.125 21.390625 47.125 36.375 
Q 47.125 51.421875 43.28125 58.90625 
Q 39.453125 66.40625 31.78125 66.40625 
z
M 31.78125 74.21875 
Q 44.046875 74.21875 50.515625 64.515625 
Q 56.984375 54.828125 56.984375 36.375 
Q 56.984375 17.96875 50.515625 8.265625 
Q 44.046875 -1.421875 31.78125 -1.421875 
Q 19.53125 -1.421875 13.0625 8.265625 
Q 6.59375 17.96875 6.59375 36.375 
Q 6.59375 54.828125 13.0625 64.515625 
Q 19.53125 74.21875 31.78125 74.21875 
z
" id="DejaVuSans-48"/>
      </defs>
      <g transform="translate(33.603125 161.846719)scale(0.1 -0.1)">
       <use xlink:href="#DejaVuSans-48"/>
      </g>
     </g>
    </g>
    <g id="ytick_2">
     <g id="line2d_59">
      <path clip-path="url(#p065c89cac7)" d="M 46.965625 124.0725 
L 325.965625 124.0725 
" style="fill:none;stroke:#000000;stroke-dasharray:3.7,1.6;stroke-dashoffset:0;stroke-opacity:0.25;"/>
     </g>
     <g id="line2d_60">
      <g>
       <use style="stroke:#000000;stroke-width:0.8;" x="46.965625" xlink:href="#m7d06819907" y="124.0725"/>
      </g>
     </g>
     <g id="text_9">
      <!-- 25 -->
      <defs>
       <path d="M 19.1875 8.296875 
L 53.609375 8.296875 
L 53.609375 0 
L 7.328125 0 
L 7.328125 8.296875 
Q 12.9375 14.109375 22.625 23.890625 
Q 32.328125 33.6875 34.8125 36.53125 
Q 39.546875 41.84375 41.421875 45.53125 
Q 43.3125 49.21875 43.3125 52.78125 
Q 43.3125 58.59375 39.234375 62.25 
Q 35.15625 65.921875 28.609375 65.921875 
Q 23.96875 65.921875 18.8125 64.3125 
Q 13.671875 62.703125 7.8125 59.421875 
L 7.8125 69.390625 
Q 13.765625 71.78125 18.9375 73 
Q 24.125 74.21875 28.421875 74.21875 
Q 39.75 74.21875 46.484375 68.546875 
Q 53.21875 62.890625 53.21875 53.421875 
Q 53.21875 48.921875 51.53125 44.890625 
Q 49.859375 40.875 45.40625 35.40625 
Q 44.1875 33.984375 37.640625 27.21875 
Q 31.109375 20.453125 19.1875 8.296875 
z
" id="DejaVuSans-50"/>
       <path d="M 10.796875 72.90625 
L 49.515625 72.90625 
L 49.515625 64.59375 
L 19.828125 64.59375 
L 19.828125 46.734375 
Q 21.96875 47.46875 24.109375 47.828125 
Q 26.265625 48.1875 28.421875 48.1875 
Q 40.625 48.1875 47.75 41.5 
Q 54.890625 34.8125 54.890625 23.390625 
Q 54.890625 11.625 47.5625 5.09375 
Q 40.234375 -1.421875 26.90625 -1.421875 
Q 22.3125 -1.421875 17.546875 -0.640625 
Q 12.796875 0.140625 7.71875 1.703125 
L 7.71875 11.625 
Q 12.109375 9.234375 16.796875 8.0625 
Q 21.484375 6.890625 26.703125 6.890625 
Q 35.15625 6.890625 40.078125 11.328125 
Q 45.015625 15.765625 45.015625 23.390625 
Q 45.015625 31 40.078125 35.4375 
Q 35.15625 39.890625 26.703125 39.890625 
Q 22.75 39.890625 18.8125 39.015625 
Q 14.890625 38.140625 10.796875 36.28125 
z
" id="DejaVuSans-53"/>
      </defs>
      <g transform="translate(27.240625 127.871719)scale(0.1 -0.1)">
       <use xlink:href="#DejaVuSans-50"/>
       <use x="63.623047" xlink:href="#DejaVuSans-53"/>
      </g>
     </g>
    </g>
    <g id="ytick_3">
     <g id="line2d_61">
      <path clip-path="url(#p065c89cac7)" d="M 46.965625 90.0975 
L 325.965625 90.0975 
" style="fill:none;stroke:#000000;stroke-dasharray:3.7,1.6;stroke-dashoffset:0;stroke-opacity:0.25;"/>
     </g>
     <g id="line2d_62">
      <g>
       <use style="stroke:#000000;stroke-width:0.8;" x="46.965625" xlink:href="#m7d06819907" y="90.0975"/>
      </g>
     </g>
     <g id="text_10">
      <!-- 50 -->
      <g transform="translate(27.240625 93.896719)scale(0.1 -0.1)">
       <use xlink:href="#DejaVuSans-53"/>
       <use x="63.623047" xlink:href="#DejaVuSans-48"/>
      </g>
     </g>
    </g>
    <g id="ytick_4">
     <g id="line2d_63">
      <path clip-path="url(#p065c89cac7)" d="M 46.965625 56.1225 
L 325.965625 56.1225 
" style="fill:none;stroke:#000000;stroke-dasharray:3.7,1.6;stroke-dashoffset:0;stroke-opacity:0.25;"/>
     </g>
     <g id="line2d_64">
      <g>
       <use style="stroke:#000000;stroke-width:0.8;" x="46.965625" xlink:href="#m7d06819907" y="56.1225"/>
      </g>
     </g>
     <g id="text_11">
      <!-- 75 -->
      <defs>
       <path d="M 8.203125 72.90625 
L 55.078125 72.90625 
L 55.078125 68.703125 
L 28.609375 0 
L 18.3125 0 
L 43.21875 64.59375 
L 8.203125 64.59375 
z
" id="DejaVuSans-55"/>
      </defs>
      <g transform="translate(27.240625 59.921719)scale(0.1 -0.1)">
       <use xlink:href="#DejaVuSans-55"/>
       <use x="63.623047" xlink:href="#DejaVuSans-53"/>
      </g>
     </g>
    </g>
    <g id="ytick_5">
     <g id="line2d_65">
      <path clip-path="url(#p065c89cac7)" d="M 46.965625 22.1475 
L 325.965625 22.1475 
" style="fill:none;stroke:#000000;stroke-dasharray:3.7,1.6;stroke-dashoffset:0;stroke-opacity:0.25;"/>
     </g>
     <g id="line2d_66">
      <g>
       <use style="stroke:#000000;stroke-width:0.8;" x="46.965625" xlink:href="#m7d06819907" y="22.1475"/>
      </g>
     </g>
     <g id="text_12">
      <!-- 100 -->
      <defs>
       <path d="M 12.40625 8.296875 
L 28.515625 8.296875 
L 28.515625 63.921875 
L 10.984375 60.40625 
L 10.984375 69.390625 
L 28.421875 72.90625 
L 38.28125 72.90625 
L 38.28125 8.296875 
L 54.390625 8.296875 
L 54.390625 0 
L 12.40625 0 
z
" id="DejaVuSans-49"/>
      </defs>
      <g transform="translate(20.878125 25.946719)scale(0.1 -0.1)">
       <use xlink:href="#DejaVuSans-49"/>
       <use x="63.623047" xlink:href="#DejaVuSans-48"/>
       <use x="127.246094" xlink:href="#DejaVuSans-48"/>
      </g>
     </g>
    </g>
    <g id="ytick_6">
     <g id="line2d_67">
      <path clip-path="url(#p065c89cac7)" d="M 46.965625 158.0475 
L 325.965625 158.0475 
" style="fill:none;stroke:#000000;stroke-linecap:square;stroke-opacity:0.1;stroke-width:0.5;"/>
     </g>
     <g id="line2d_68">
      <defs>
       <path d="M 0 0 
L -2 0 
" id="m50900a5fdf" style="stroke:#000000;stroke-width:0.6;"/>
      </defs>
      <g>
       <use style="stroke:#000000;stroke-width:0.6;" x="46.965625" xlink:href="#m50900a5fdf" y="158.0475"/>
      </g>
     </g>
    </g>
    <g id="ytick_7">
     <g id="line2d_69">
      <path clip-path="url(#p065c89cac7)" d="M 46.965625 152.385 
L 325.965625 152.385 
" style="fill:none;stroke:#000000;stroke-linecap:square;stroke-opacity:0.1;stroke-width:0.5;"/>
     </g>
     <g id="line2d_70">
      <g>
       <use style="stroke:#000000;stroke-width:0.6;" x="46.965625" xlink:href="#m50900a5fdf" y="152.385"/>
      </g>
     </g>
    </g>
    <g id="ytick_8">
     <g id="line2d_71">
      <path clip-path="url(#p065c89cac7)" d="M 46.965625 146.7225 
L 325.965625 146.7225 
" style="fill:none;stroke:#000000;stroke-linecap:square;stroke-opacity:0.1;stroke-width:0.5;"/>
     </g>
     <g id="line2d_72">
      <g>
       <use style="stroke:#000000;stroke-width:0.6;" x="46.965625" xlink:href="#m50900a5fdf" y="146.7225"/>
      </g>
     </g>
    </g>
    <g id="ytick_9">
     <g id="line2d_73">
      <path clip-path="url(#p065c89cac7)" d="M 46.965625 141.06 
L 325.965625 141.06 
" style="fill:none;stroke:#000000;stroke-linecap:square;stroke-opacity:0.1;stroke-width:0.5;"/>
     </g>
     <g id="line2d_74">
      <g>
       <use style="stroke:#000000;stroke-width:0.6;" x="46.965625" xlink:href="#m50900a5fdf" y="141.06"/>
      </g>
     </g>
    </g>
    <g id="ytick_10">
     <g id="line2d_75">
      <path clip-path="url(#p065c89cac7)" d="M 46.965625 135.3975 
L 325.965625 135.3975 
" style="fill:none;stroke:#000000;stroke-linecap:square;stroke-opacity:0.1;stroke-width:0.5;"/>
     </g>
     <g id="line2d_76">
      <g>
       <use style="stroke:#000000;stroke-width:0.6;" x="46.965625" xlink:href="#m50900a5fdf" y="135.3975"/>
      </g>
     </g>
    </g>
    <g id="ytick_11">
     <g id="line2d_77">
      <path clip-path="url(#p065c89cac7)" d="M 46.965625 129.735 
L 325.965625 129.735 
" style="fill:none;stroke:#000000;stroke-linecap:square;stroke-opacity:0.1;stroke-width:0.5;"/>
     </g>
     <g id="line2d_78">
      <g>
       <use style="stroke:#000000;stroke-width:0.6;" x="46.965625" xlink:href="#m50900a5fdf" y="129.735"/>
      </g>
     </g>
    </g>
    <g id="ytick_12">
     <g id="line2d_79">
      <path clip-path="url(#p065c89cac7)" d="M 46.965625 124.0725 
L 325.965625 124.0725 
" style="fill:none;stroke:#000000;stroke-linecap:square;stroke-opacity:0.1;stroke-width:0.5;"/>
     </g>
     <g id="line2d_80">
      <g>
       <use style="stroke:#000000;stroke-width:0.6;" x="46.965625" xlink:href="#m50900a5fdf" y="124.0725"/>
      </g>
     </g>
    </g>
    <g id="ytick_13">
     <g id="line2d_81">
      <path clip-path="url(#p065c89cac7)" d="M 46.965625 118.41 
L 325.965625 118.41 
" style="fill:none;stroke:#000000;stroke-linecap:square;stroke-opacity:0.1;stroke-width:0.5;"/>
     </g>
     <g id="line2d_82">
      <g>
       <use style="stroke:#000000;stroke-width:0.6;" x="46.965625" xlink:href="#m50900a5fdf" y="118.41"/>
      </g>
     </g>
    </g>
    <g id="ytick_14">
     <g id="line2d_83">
      <path clip-path="url(#p065c89cac7)" d="M 46.965625 112.7475 
L 325.965625 112.7475 
" style="fill:none;stroke:#000000;stroke-linecap:square;stroke-opacity:0.1;stroke-width:0.5;"/>
     </g>
     <g id="line2d_84">
      <g>
       <use style="stroke:#000000;stroke-width:0.6;" x="46.965625" xlink:href="#m50900a5fdf" y="112.7475"/>
      </g>
     </g>
    </g>
    <g id="ytick_15">
     <g id="line2d_85">
      <path clip-path="url(#p065c89cac7)" d="M 46.965625 107.085 
L 325.965625 107.085 
" style="fill:none;stroke:#000000;stroke-linecap:square;stroke-opacity:0.1;stroke-width:0.5;"/>
     </g>
     <g id="line2d_86">
      <g>
       <use style="stroke:#000000;stroke-width:0.6;" x="46.965625" xlink:href="#m50900a5fdf" y="107.085"/>
      </g>
     </g>
    </g>
    <g id="ytick_16">
     <g id="line2d_87">
      <path clip-path="url(#p065c89cac7)" d="M 46.965625 101.4225 
L 325.965625 101.4225 
" style="fill:none;stroke:#000000;stroke-linecap:square;stroke-opacity:0.1;stroke-width:0.5;"/>
     </g>
     <g id="line2d_88">
      <g>
       <use style="stroke:#000000;stroke-width:0.6;" x="46.965625" xlink:href="#m50900a5fdf" y="101.4225"/>
      </g>
     </g>
    </g>
    <g id="ytick_17">
     <g id="line2d_89">
      <path clip-path="url(#p065c89cac7)" d="M 46.965625 95.76 
L 325.965625 95.76 
" style="fill:none;stroke:#000000;stroke-linecap:square;stroke-opacity:0.1;stroke-width:0.5;"/>
     </g>
     <g id="line2d_90">
      <g>
       <use style="stroke:#000000;stroke-width:0.6;" x="46.965625" xlink:href="#m50900a5fdf" y="95.76"/>
      </g>
     </g>
    </g>
    <g id="ytick_18">
     <g id="line2d_91">
      <path clip-path="url(#p065c89cac7)" d="M 46.965625 90.0975 
L 325.965625 90.0975 
" style="fill:none;stroke:#000000;stroke-linecap:square;stroke-opacity:0.1;stroke-width:0.5;"/>
     </g>
     <g id="line2d_92">
      <g>
       <use style="stroke:#000000;stroke-width:0.6;" x="46.965625" xlink:href="#m50900a5fdf" y="90.0975"/>
      </g>
     </g>
    </g>
    <g id="ytick_19">
     <g id="line2d_93">
      <path clip-path="url(#p065c89cac7)" d="M 46.965625 84.435 
L 325.965625 84.435 
" style="fill:none;stroke:#000000;stroke-linecap:square;stroke-opacity:0.1;stroke-width:0.5;"/>
     </g>
     <g id="line2d_94">
      <g>
       <use style="stroke:#000000;stroke-width:0.6;" x="46.965625" xlink:href="#m50900a5fdf" y="84.435"/>
      </g>
     </g>
    </g>
    <g id="ytick_20">
     <g id="line2d_95">
      <path clip-path="url(#p065c89cac7)" d="M 46.965625 78.7725 
L 325.965625 78.7725 
" style="fill:none;stroke:#000000;stroke-linecap:square;stroke-opacity:0.1;stroke-width:0.5;"/>
     </g>
     <g id="line2d_96">
      <g>
       <use style="stroke:#000000;stroke-width:0.6;" x="46.965625" xlink:href="#m50900a5fdf" y="78.7725"/>
      </g>
     </g>
    </g>
    <g id="ytick_21">
     <g id="line2d_97">
      <path clip-path="url(#p065c89cac7)" d="M 46.965625 73.11 
L 325.965625 73.11 
" style="fill:none;stroke:#000000;stroke-linecap:square;stroke-opacity:0.1;stroke-width:0.5;"/>
     </g>
     <g id="line2d_98">
      <g>
       <use style="stroke:#000000;stroke-width:0.6;" x="46.965625" xlink:href="#m50900a5fdf" y="73.11"/>
      </g>
     </g>
    </g>
    <g id="ytick_22">
     <g id="line2d_99">
      <path clip-path="url(#p065c89cac7)" d="M 46.965625 67.4475 
L 325.965625 67.4475 
" style="fill:none;stroke:#000000;stroke-linecap:square;stroke-opacity:0.1;stroke-width:0.5;"/>
     </g>
     <g id="line2d_100">
      <g>
       <use style="stroke:#000000;stroke-width:0.6;" x="46.965625" xlink:href="#m50900a5fdf" y="67.4475"/>
      </g>
     </g>
    </g>
    <g id="ytick_23">
     <g id="line2d_101">
      <path clip-path="url(#p065c89cac7)" d="M 46.965625 61.785 
L 325.965625 61.785 
" style="fill:none;stroke:#000000;stroke-linecap:square;stroke-opacity:0.1;stroke-width:0.5;"/>
     </g>
     <g id="line2d_102">
      <g>
       <use style="stroke:#000000;stroke-width:0.6;" x="46.965625" xlink:href="#m50900a5fdf" y="61.785"/>
      </g>
     </g>
    </g>
    <g id="ytick_24">
     <g id="line2d_103">
      <path clip-path="url(#p065c89cac7)" d="M 46.965625 56.1225 
L 325.965625 56.1225 
" style="fill:none;stroke:#000000;stroke-linecap:square;stroke-opacity:0.1;stroke-width:0.5;"/>
     </g>
     <g id="line2d_104">
      <g>
       <use style="stroke:#000000;stroke-width:0.6;" x="46.965625" xlink:href="#m50900a5fdf" y="56.1225"/>
      </g>
     </g>
    </g>
    <g id="ytick_25">
     <g id="line2d_105">
      <path clip-path="url(#p065c89cac7)" d="M 46.965625 50.46 
L 325.965625 50.46 
" style="fill:none;stroke:#000000;stroke-linecap:square;stroke-opacity:0.1;stroke-width:0.5;"/>
     </g>
     <g id="line2d_106">
      <g>
       <use style="stroke:#000000;stroke-width:0.6;" x="46.965625" xlink:href="#m50900a5fdf" y="50.46"/>
      </g>
     </g>
    </g>
    <g id="ytick_26">
     <g id="line2d_107">
      <path clip-path="url(#p065c89cac7)" d="M 46.965625 44.7975 
L 325.965625 44.7975 
" style="fill:none;stroke:#000000;stroke-linecap:square;stroke-opacity:0.1;stroke-width:0.5;"/>
     </g>
     <g id="line2d_108">
      <g>
       <use style="stroke:#000000;stroke-width:0.6;" x="46.965625" xlink:href="#m50900a5fdf" y="44.7975"/>
      </g>
     </g>
    </g>
    <g id="ytick_27">
     <g id="line2d_109">
      <path clip-path="url(#p065c89cac7)" d="M 46.965625 39.135 
L 325.965625 39.135 
" style="fill:none;stroke:#000000;stroke-linecap:square;stroke-opacity:0.1;stroke-width:0.5;"/>
     </g>
     <g id="line2d_110">
      <g>
       <use style="stroke:#000000;stroke-width:0.6;" x="46.965625" xlink:href="#m50900a5fdf" y="39.135"/>
      </g>
     </g>
    </g>
    <g id="ytick_28">
     <g id="line2d_111">
      <path clip-path="url(#p065c89cac7)" d="M 46.965625 33.4725 
L 325.965625 33.4725 
" style="fill:none;stroke:#000000;stroke-linecap:square;stroke-opacity:0.1;stroke-width:0.5;"/>
     </g>
     <g id="line2d_112">
      <g>
       <use style="stroke:#000000;stroke-width:0.6;" x="46.965625" xlink:href="#m50900a5fdf" y="33.4725"/>
      </g>
     </g>
    </g>
    <g id="ytick_29">
     <g id="line2d_113">
      <path clip-path="url(#p065c89cac7)" d="M 46.965625 27.81 
L 325.965625 27.81 
" style="fill:none;stroke:#000000;stroke-linecap:square;stroke-opacity:0.1;stroke-width:0.5;"/>
     </g>
     <g id="line2d_114">
      <g>
       <use style="stroke:#000000;stroke-width:0.6;" x="46.965625" xlink:href="#m50900a5fdf" y="27.81"/>
      </g>
     </g>
    </g>
    <g id="ytick_30">
     <g id="line2d_115">
      <path clip-path="url(#p065c89cac7)" d="M 46.965625 22.1475 
L 325.965625 22.1475 
" style="fill:none;stroke:#000000;stroke-linecap:square;stroke-opacity:0.1;stroke-width:0.5;"/>
     </g>
     <g id="line2d_116">
      <g>
       <use style="stroke:#000000;stroke-width:0.6;" x="46.965625" xlink:href="#m50900a5fdf" y="22.1475"/>
      </g>
     </g>
    </g>
    <g id="text_13">
     <!-- F1 score (%) -->
     <defs>
      <path d="M 5.515625 0 
L 5.515625 5.171875 
L 14.796875 5.171875 
L 14.796875 67.671875 
L 5.515625 67.671875 
L 5.515625 72.90625 
L 65.1875 72.90625 
L 65.1875 56.6875 
L 59.1875 56.6875 
L 59.1875 66.890625 
L 24.703125 66.890625 
L 24.703125 42.484375 
L 49.609375 42.484375 
L 49.609375 51.609375 
L 55.609375 51.609375 
L 55.609375 27.390625 
L 49.609375 27.390625 
L 49.609375 36.53125 
L 24.703125 36.53125 
L 24.703125 5.171875 
L 36.375 5.171875 
L 36.375 0 
z
" id="DejaVuSerif-70"/>
      <path d="M 14.203125 0 
L 14.203125 5.171875 
L 26.90625 5.171875 
L 26.90625 65.828125 
L 12.203125 56.296875 
L 12.203125 62.703125 
L 29.984375 74.21875 
L 36.71875 74.21875 
L 36.71875 5.171875 
L 49.421875 5.171875 
L 49.421875 0 
z
" id="DejaVuSerif-49"/>
      <path d="M 22.40625 69.671875 
Q 18.109375 69.671875 15.6875 65.625 
Q 13.28125 61.578125 13.28125 54.296875 
Q 13.28125 47.125 15.75 43.015625 
Q 18.21875 38.921875 22.40625 38.921875 
Q 26.5625 38.921875 28.96875 43 
Q 31.390625 47.078125 31.390625 54.296875 
Q 31.390625 61.53125 28.96875 65.59375 
Q 26.5625 69.671875 22.40625 69.671875 
z
M 72.703125 33.890625 
Q 68.453125 33.890625 66.03125 29.78125 
Q 63.625 25.6875 63.625 18.40625 
Q 63.625 11.234375 66.0625 7.15625 
Q 68.5 3.078125 72.703125 3.078125 
Q 76.90625 3.078125 79.296875 7.15625 
Q 81.6875 11.234375 81.6875 18.40625 
Q 81.6875 25.640625 79.265625 29.765625 
Q 76.859375 33.890625 72.703125 33.890625 
z
M 72.703125 38.28125 
Q 80.421875 38.28125 84.953125 32.90625 
Q 89.5 27.546875 89.5 18.40625 
Q 89.5 9.28125 84.9375 3.921875 
Q 80.375 -1.421875 72.703125 -1.421875 
Q 64.890625 -1.421875 60.34375 3.921875 
Q 55.8125 9.28125 55.8125 18.40625 
Q 55.8125 27.59375 60.375 32.9375 
Q 64.9375 38.28125 72.703125 38.28125 
z
M 66.609375 74.21875 
L 74.03125 74.21875 
L 28.421875 -1.421875 
L 21 -1.421875 
z
M 22.3125 74.21875 
Q 30.03125 74.21875 34.609375 68.875 
Q 39.203125 63.53125 39.203125 54.390625 
Q 39.203125 45.171875 34.640625 39.84375 
Q 30.078125 34.515625 22.3125 34.515625 
Q 14.546875 34.515625 10.03125 39.859375 
Q 5.515625 45.21875 5.515625 54.390625 
Q 5.515625 63.484375 10.046875 68.84375 
Q 14.59375 74.21875 22.3125 74.21875 
z
" id="DejaVuSerif-37"/>
     </defs>
     <g transform="translate(14.798437 122.30375)rotate(-90)scale(0.1 -0.1)">
      <use xlink:href="#DejaVuSerif-70"/>
      <use x="69.384766" xlink:href="#DejaVuSerif-49"/>
      <use x="133.007812" xlink:href="#DejaVuSerif-32"/>
      <use x="164.794922" xlink:href="#DejaVuSerif-115"/>
      <use x="216.113281" xlink:href="#DejaVuSerif-99"/>
      <use x="272.119141" xlink:href="#DejaVuSerif-111"/>
      <use x="332.324219" xlink:href="#DejaVuSerif-114"/>
      <use x="380.126953" xlink:href="#DejaVuSerif-101"/>
      <use x="439.306641" xlink:href="#DejaVuSerif-32"/>
      <use x="471.09375" xlink:href="#DejaVuSerif-40"/>
      <use x="510.107422" xlink:href="#DejaVuSerif-37"/>
      <use x="605.126953" xlink:href="#DejaVuSerif-41"/>
     </g>
    </g>
   </g>
   <g id="PolyCollection_1">
    <defs>
     <path d="M 59.647443 -60.853393 
L 59.647443 -51.861513 
L 71.725365 -79.371635 
L 83.803287 -84.825815 
L 95.881209 -85.12125 
L 107.959131 -81.04425 
L 120.037054 -93.515074 
L 132.114976 -116.958497 
L 144.192898 -101.799886 
L 156.27082 -126.413942 
L 168.348742 -98.406996 
L 180.426664 -107.190961 
L 192.504586 -112.022003 
L 204.582508 -102.713784 
L 216.66043 -90.690085 
L 228.738352 -82.635274 
L 240.816274 -75.30625 
L 252.894196 -89.896115 
L 264.972119 -103.126678 
L 277.050041 -121.330223 
L 289.127963 -119.625731 
L 301.205885 -131.913854 
L 313.283807 -116.496424 
L 313.283807 -136.128454 
L 313.283807 -136.128454 
L 301.205885 -141.553662 
L 289.127963 -134.668724 
L 277.050041 -123.933369 
L 264.972119 -128.398496 
L 252.894196 -108.741964 
L 240.816274 -113.929804 
L 228.738352 -117.055064 
L 216.66043 -111.804055 
L 204.582508 -124.328081 
L 192.504586 -133.260475 
L 180.426664 -121.34422 
L 168.348742 -126.889117 
L 156.27082 -134.917444 
L 144.192898 -111.804055 
L 132.114976 -125.549056 
L 120.037054 -123.387829 
L 107.959131 -89.327679 
L 95.881209 -109.666454 
L 83.803287 -119.09625 
L 71.725365 -99.095873 
L 59.647443 -60.853393 
z
" id="mba7b27c93b" style="stroke:#0040ff;stroke-opacity:0.33;"/>
    </defs>
    <g clip-path="url(#p065c89cac7)">
     <use style="fill:#0040ff;fill-opacity:0.33;stroke:#0040ff;stroke-opacity:0.33;" x="0" xlink:href="#mba7b27c93b" y="195.60375"/>
    </g>
   </g>
   <g id="PolyCollection_2">
    <defs>
     <path d="M 59.647443 -54.54375 
L 59.647443 -37.55625 
L 71.725365 -74.619886 
L 83.803287 -81.04425 
L 95.881209 -55.67625 
L 107.959131 -88.51875 
L 120.037054 -75.045905 
L 132.114976 -105.50625 
L 144.192898 -99.545724 
L 156.27082 -93.151705 
L 168.348742 -98.572577 
L 180.426664 -105.062132 
L 192.504586 -95.799107 
L 204.582508 -83.522426 
L 216.66043 -89.152182 
L 228.738352 -95.923558 
L 240.816274 -83.227561 
L 252.894196 -94.567957 
L 264.972119 -97.444386 
L 277.050041 -96.349867 
L 289.127963 -93.310096 
L 301.205885 -105.067863 
L 313.283807 -112.924372 
L 313.283807 -132.810103 
L 313.283807 -132.810103 
L 301.205885 -116.411806 
L 289.127963 -114.633862 
L 277.050041 -112.399728 
L 264.972119 -106.41225 
L 252.894196 -114.633862 
L 240.816274 -100.37225 
L 228.738352 -108.567061 
L 216.66043 -96.972994 
L 204.582508 -119.09625 
L 192.504586 -116.567878 
L 180.426664 -112.53556 
L 168.348742 -110.899107 
L 156.27082 -113.303791 
L 144.192898 -117.062372 
L 132.114976 -115.960096 
L 120.037054 -92.494548 
L 107.959131 -108.022917 
L 95.881209 -82.85625 
L 83.803287 -95.210795 
L 71.725365 -86.974432 
L 59.647443 -54.54375 
z
" id="me058149cce" style="stroke:#ffb800;stroke-opacity:0.33;"/>
    </defs>
    <g clip-path="url(#p065c89cac7)">
     <use style="fill:#ffb800;fill-opacity:0.33;stroke:#ffb800;stroke-opacity:0.33;" x="0" xlink:href="#me058149cce" y="195.60375"/>
    </g>
   </g>
   <g id="line2d_117">
    <path clip-path="url(#p065c89cac7)" d="M 59.647443 138.633214 
L 71.725365 109.64476 
L 83.803287 92.156591 
L 95.881209 94.094559 
L 107.959131 110.89852 
L 120.037054 87.641476 
L 132.114976 75.536786 
L 144.192898 93.519442 
L 156.27082 66.031875 
L 168.348742 71.813765 
L 180.426664 75.875407 
L 192.504586 76.35039 
L 204.582508 81.234457 
L 216.66043 88.038409 
L 228.738352 85.312289 
L 240.816274 100.320066 
L 252.894196 91.6075 
L 264.972119 73.11 
L 277.050041 73.555365 
L 289.127963 66.469098 
L 301.205885 61.723925 
L 313.283807 71.451035 
" style="fill:none;stroke:#0040ff;stroke-linecap:square;stroke-width:2;"/>
    <defs>
     <path d="M 0 3 
C 0.795609 3 1.55874 2.683901 2.12132 2.12132 
C 2.683901 1.55874 3 0.795609 3 0 
C 3 -0.795609 2.683901 -1.55874 2.12132 -2.12132 
C 1.55874 -2.683901 0.795609 -3 0 -3 
C -0.795609 -3 -1.55874 -2.683901 -2.12132 -2.12132 
C -2.683901 -1.55874 -3 -0.795609 -3 0 
C -3 0.795609 -2.683901 1.55874 -2.12132 2.12132 
C -1.55874 2.683901 -0.795609 3 0 3 
z
" id="ma166e429d1" style="stroke:#0040ff;"/>
    </defs>
    <g clip-path="url(#p065c89cac7)">
     <use style="fill:#0040ff;stroke:#0040ff;" x="59.647443" xlink:href="#ma166e429d1" y="138.633214"/>
     <use style="fill:#0040ff;stroke:#0040ff;" x="71.725365" xlink:href="#ma166e429d1" y="109.64476"/>
     <use style="fill:#0040ff;stroke:#0040ff;" x="83.803287" xlink:href="#ma166e429d1" y="92.156591"/>
     <use style="fill:#0040ff;stroke:#0040ff;" x="95.881209" xlink:href="#ma166e429d1" y="94.094559"/>
     <use style="fill:#0040ff;stroke:#0040ff;" x="107.959131" xlink:href="#ma166e429d1" y="110.89852"/>
     <use style="fill:#0040ff;stroke:#0040ff;" x="120.037054" xlink:href="#ma166e429d1" y="87.641476"/>
     <use style="fill:#0040ff;stroke:#0040ff;" x="132.114976" xlink:href="#ma166e429d1" y="75.536786"/>
     <use style="fill:#0040ff;stroke:#0040ff;" x="144.192898" xlink:href="#ma166e429d1" y="93.519442"/>
     <use style="fill:#0040ff;stroke:#0040ff;" x="156.27082" xlink:href="#ma166e429d1" y="66.031875"/>
     <use style="fill:#0040ff;stroke:#0040ff;" x="168.348742" xlink:href="#ma166e429d1" y="71.813765"/>
     <use style="fill:#0040ff;stroke:#0040ff;" x="180.426664" xlink:href="#ma166e429d1" y="75.875407"/>
     <use style="fill:#0040ff;stroke:#0040ff;" x="192.504586" xlink:href="#ma166e429d1" y="76.35039"/>
     <use style="fill:#0040ff;stroke:#0040ff;" x="204.582508" xlink:href="#ma166e429d1" y="81.234457"/>
     <use style="fill:#0040ff;stroke:#0040ff;" x="216.66043" xlink:href="#ma166e429d1" y="88.038409"/>
     <use style="fill:#0040ff;stroke:#0040ff;" x="228.738352" xlink:href="#ma166e429d1" y="85.312289"/>
     <use style="fill:#0040ff;stroke:#0040ff;" x="240.816274" xlink:href="#ma166e429d1" y="100.320066"/>
     <use style="fill:#0040ff;stroke:#0040ff;" x="252.894196" xlink:href="#ma166e429d1" y="91.6075"/>
     <use style="fill:#0040ff;stroke:#0040ff;" x="264.972119" xlink:href="#ma166e429d1" y="73.11"/>
     <use style="fill:#0040ff;stroke:#0040ff;" x="277.050041" xlink:href="#ma166e429d1" y="73.555365"/>
     <use style="fill:#0040ff;stroke:#0040ff;" x="289.127963" xlink:href="#ma166e429d1" y="66.469098"/>
     <use style="fill:#0040ff;stroke:#0040ff;" x="301.205885" xlink:href="#ma166e429d1" y="61.723925"/>
     <use style="fill:#0040ff;stroke:#0040ff;" x="313.283807" xlink:href="#ma166e429d1" y="71.451035"/>
    </g>
   </g>
   <g id="line2d_118">
    <path clip-path="url(#p065c89cac7)" d="M 59.647443 154.993567 
L 71.725365 116.232115 
L 83.803287 103.6875 
L 95.881209 126.442849 
L 107.959131 105.441048 
L 120.037054 105.441048 
L 132.114976 82.5475 
L 144.192898 94.094559 
L 156.27082 95.76 
L 168.348742 93.333214 
L 180.426664 88.293518 
L 192.504586 83.554167 
L 204.582508 108.629318 
L 216.66043 104.239378 
L 228.738352 96.118386 
L 240.816274 105.38625 
L 252.894196 96.039895 
L 264.972119 92.00264 
L 277.050041 86.618831 
L 289.127963 91.513125 
L 301.205885 87.422303 
L 313.283807 74.547813 
" style="fill:none;stroke:#ffb800;stroke-linecap:square;stroke-width:2;"/>
    <defs>
     <path d="M 0 3 
C 0.795609 3 1.55874 2.683901 2.12132 2.12132 
C 2.683901 1.55874 3 0.795609 3 0 
C 3 -0.795609 2.683901 -1.55874 2.12132 -2.12132 
C 1.55874 -2.683901 0.795609 -3 0 -3 
C -0.795609 -3 -1.55874 -2.683901 -2.12132 -2.12132 
C -2.683901 -1.55874 -3 -0.795609 -3 0 
C -3 0.795609 -2.683901 1.55874 -2.12132 2.12132 
C -1.55874 2.683901 -0.795609 3 0 3 
z
" id="mc91a0b6bc4" style="stroke:#ffb800;"/>
    </defs>
    <g clip-path="url(#p065c89cac7)">
     <use style="fill:#ffb800;stroke:#ffb800;" x="59.647443" xlink:href="#mc91a0b6bc4" y="154.993567"/>
     <use style="fill:#ffb800;stroke:#ffb800;" x="71.725365" xlink:href="#mc91a0b6bc4" y="116.232115"/>
     <use style="fill:#ffb800;stroke:#ffb800;" x="83.803287" xlink:href="#mc91a0b6bc4" y="103.6875"/>
     <use style="fill:#ffb800;stroke:#ffb800;" x="95.881209" xlink:href="#mc91a0b6bc4" y="126.442849"/>
     <use style="fill:#ffb800;stroke:#ffb800;" x="107.959131" xlink:href="#mc91a0b6bc4" y="105.441048"/>
     <use style="fill:#ffb800;stroke:#ffb800;" x="120.037054" xlink:href="#mc91a0b6bc4" y="105.441048"/>
     <use style="fill:#ffb800;stroke:#ffb800;" x="132.114976" xlink:href="#mc91a0b6bc4" y="82.5475"/>
     <use style="fill:#ffb800;stroke:#ffb800;" x="144.192898" xlink:href="#mc91a0b6bc4" y="94.094559"/>
     <use style="fill:#ffb800;stroke:#ffb800;" x="156.27082" xlink:href="#mc91a0b6bc4" y="95.76"/>
     <use style="fill:#ffb800;stroke:#ffb800;" x="168.348742" xlink:href="#mc91a0b6bc4" y="93.333214"/>
     <use style="fill:#ffb800;stroke:#ffb800;" x="180.426664" xlink:href="#mc91a0b6bc4" y="88.293518"/>
     <use style="fill:#ffb800;stroke:#ffb800;" x="192.504586" xlink:href="#mc91a0b6bc4" y="83.554167"/>
     <use style="fill:#ffb800;stroke:#ffb800;" x="204.582508" xlink:href="#mc91a0b6bc4" y="108.629318"/>
     <use style="fill:#ffb800;stroke:#ffb800;" x="216.66043" xlink:href="#mc91a0b6bc4" y="104.239378"/>
     <use style="fill:#ffb800;stroke:#ffb800;" x="228.738352" xlink:href="#mc91a0b6bc4" y="96.118386"/>
     <use style="fill:#ffb800;stroke:#ffb800;" x="240.816274" xlink:href="#mc91a0b6bc4" y="105.38625"/>
     <use style="fill:#ffb800;stroke:#ffb800;" x="252.894196" xlink:href="#mc91a0b6bc4" y="96.039895"/>
     <use style="fill:#ffb800;stroke:#ffb800;" x="264.972119" xlink:href="#mc91a0b6bc4" y="92.00264"/>
     <use style="fill:#ffb800;stroke:#ffb800;" x="277.050041" xlink:href="#mc91a0b6bc4" y="86.618831"/>
     <use style="fill:#ffb800;stroke:#ffb800;" x="289.127963" xlink:href="#mc91a0b6bc4" y="91.513125"/>
     <use style="fill:#ffb800;stroke:#ffb800;" x="301.205885" xlink:href="#mc91a0b6bc4" y="87.422303"/>
     <use style="fill:#ffb800;stroke:#ffb800;" x="313.283807" xlink:href="#mc91a0b6bc4" y="74.547813"/>
    </g>
   </g>
   <g id="patch_3">
    <path d="M 46.965625 158.0475 
L 46.965625 22.1475 
" style="fill:none;stroke:#000000;stroke-linecap:square;stroke-linejoin:miter;stroke-width:0.8;"/>
   </g>
   <g id="patch_4">
    <path d="M 325.965625 158.0475 
L 325.965625 22.1475 
" style="fill:none;stroke:#000000;stroke-linecap:square;stroke-linejoin:miter;stroke-width:0.8;"/>
   </g>
   <g id="patch_5">
    <path d="M 46.965625 158.0475 
L 325.965625 158.0475 
" style="fill:none;stroke:#000000;stroke-linecap:square;stroke-linejoin:miter;stroke-width:0.8;"/>
   </g>
   <g id="patch_6">
    <path d="M 46.965625 22.1475 
L 325.965625 22.1475 
" style="fill:none;stroke:#000000;stroke-linecap:square;stroke-linejoin:miter;stroke-width:0.8;"/>
   </g>
   <g id="text_14">
    <!-- CNN + PCEN + augmentation -->
    <defs>
     <path d="M 70.515625 19.28125 
Q 67.28125 9.078125 59.6875 3.828125 
Q 52.09375 -1.421875 40.484375 -1.421875 
Q 33.34375 -1.421875 27.234375 1.015625 
Q 21.140625 3.46875 16.40625 8.203125 
Q 10.9375 13.671875 8.265625 20.625 
Q 5.609375 27.59375 5.609375 36.375 
Q 5.609375 53.375 15.421875 63.796875 
Q 25.25 74.21875 41.3125 74.21875 
Q 47.265625 74.21875 54 72.65625 
Q 60.75 71.09375 68.5 67.921875 
L 68.5 51.125 
L 62.984375 51.125 
Q 61.1875 60.296875 55.734375 64.640625 
Q 50.296875 69 40.484375 69 
Q 28.8125 69 22.796875 60.71875 
Q 16.796875 52.4375 16.796875 36.375 
Q 16.796875 20.359375 22.796875 12.078125 
Q 28.8125 3.8125 40.484375 3.8125 
Q 48.640625 3.8125 53.90625 7.6875 
Q 59.1875 11.578125 61.53125 19.28125 
z
" id="DejaVuSerif-67"/>
     <path d="M 4.890625 0 
L 4.890625 5.171875 
L 14.703125 5.171875 
L 14.703125 67.671875 
L 4.890625 67.671875 
L 4.890625 72.90625 
L 23.578125 72.90625 
L 67.28125 15.375 
L 67.28125 67.671875 
L 57.515625 67.671875 
L 57.515625 72.90625 
L 83.109375 72.90625 
L 83.109375 67.671875 
L 73.296875 67.671875 
L 73.296875 -1.421875 
L 67.390625 -1.421875 
L 20.703125 60.015625 
L 20.703125 5.171875 
L 30.515625 5.171875 
L 30.515625 0 
z
" id="DejaVuSerif-78"/>
     <path d="M 45.796875 62.703125 
L 45.796875 35.296875 
L 73.1875 35.296875 
L 73.1875 27.390625 
L 45.796875 27.390625 
L 45.796875 0 
L 37.984375 0 
L 37.984375 27.390625 
L 10.59375 27.390625 
L 10.59375 35.296875 
L 37.984375 35.296875 
L 37.984375 62.703125 
z
" id="DejaVuSerif-43"/>
     <path d="M 24.703125 37.109375 
L 37.59375 37.109375 
Q 44.875 37.109375 48.671875 41.03125 
Q 52.484375 44.96875 52.484375 52.390625 
Q 52.484375 59.859375 48.671875 63.765625 
Q 44.875 67.671875 37.59375 67.671875 
L 24.703125 67.671875 
z
M 5.515625 0 
L 5.515625 5.171875 
L 14.796875 5.171875 
L 14.796875 67.671875 
L 5.515625 67.671875 
L 5.515625 72.90625 
L 39.984375 72.90625 
Q 50.921875 72.90625 57.3125 67.359375 
Q 63.71875 61.8125 63.71875 52.390625 
Q 63.71875 43.015625 57.3125 37.453125 
Q 50.921875 31.890625 39.984375 31.890625 
L 24.703125 31.890625 
L 24.703125 5.171875 
L 35.984375 5.171875 
L 35.984375 0 
z
" id="DejaVuSerif-80"/>
     <path d="M 5.515625 0 
L 5.515625 5.171875 
L 14.796875 5.171875 
L 14.796875 67.671875 
L 5.515625 67.671875 
L 5.515625 72.90625 
L 64.203125 72.90625 
L 64.203125 56.6875 
L 58.203125 56.6875 
L 58.203125 66.890625 
L 24.703125 66.890625 
L 24.703125 42.484375 
L 48.578125 42.484375 
L 48.578125 51.609375 
L 54.59375 51.609375 
L 54.59375 27.390625 
L 48.578125 27.390625 
L 48.578125 36.53125 
L 24.703125 36.53125 
L 24.703125 6 
L 58.984375 6 
L 58.984375 16.21875 
L 64.984375 16.21875 
L 64.984375 0 
z
" id="DejaVuSerif-69"/>
     <path d="M 52.484375 46.6875 
L 52.484375 1.125 
Q 52.484375 -10.0625 46.328125 -16.140625 
Q 40.1875 -22.21875 28.8125 -22.21875 
Q 23.6875 -22.21875 19 -21.28125 
Q 14.3125 -20.359375 10.015625 -18.5 
L 10.015625 -7.625 
L 14.703125 -7.625 
Q 15.578125 -12.703125 18.84375 -15.046875 
Q 22.125 -17.390625 28.21875 -17.390625 
Q 36.140625 -17.390625 39.8125 -12.921875 
Q 43.5 -8.453125 43.5 1.125 
L 43.5 8.109375 
Q 40.875 3.21875 36.796875 0.890625 
Q 32.71875 -1.421875 26.703125 -1.421875 
Q 17.140625 -1.421875 11.0625 6.171875 
Q 4.984375 13.765625 4.984375 25.984375 
Q 4.984375 38.1875 11.03125 45.75 
Q 17.09375 53.328125 26.703125 53.328125 
Q 32.71875 53.328125 36.796875 51 
Q 40.875 48.6875 43.5 43.796875 
L 43.5 51.90625 
L 61.078125 51.90625 
L 61.078125 46.6875 
z
M 43.5 28.515625 
Q 43.5 37.84375 39.90625 42.765625 
Q 36.328125 47.703125 29.5 47.703125 
Q 22.5625 47.703125 19.015625 42.234375 
Q 15.484375 36.765625 15.484375 25.984375 
Q 15.484375 15.234375 19.015625 9.71875 
Q 22.5625 4.203125 29.5 4.203125 
Q 36.328125 4.203125 39.90625 9.109375 
Q 43.5 14.015625 43.5 23.390625 
z
" id="DejaVuSerif-103"/>
     <path d="M 4.109375 0 
L 4.109375 5.171875 
L 12.203125 5.171875 
L 12.203125 46.6875 
L 3.609375 46.6875 
L 3.609375 51.90625 
L 21.1875 51.90625 
L 21.1875 42.671875 
Q 23.6875 47.953125 27.65625 50.640625 
Q 31.640625 53.328125 36.921875 53.328125 
Q 45.515625 53.328125 49.5625 48.390625 
Q 53.609375 43.453125 53.609375 33.015625 
L 53.609375 5.171875 
L 61.625 5.171875 
L 61.625 0 
L 36.8125 0 
L 36.8125 5.171875 
L 44.578125 5.171875 
L 44.578125 30.171875 
Q 44.578125 39.703125 42.234375 43.234375 
Q 39.890625 46.78125 33.984375 46.78125 
Q 27.734375 46.78125 24.453125 42.203125 
Q 21.1875 37.640625 21.1875 28.90625 
L 21.1875 5.171875 
L 29 5.171875 
L 29 0 
z
" id="DejaVuSerif-110"/>
    </defs>
    <g transform="translate(93.25 16.1475)scale(0.12 -0.12)">
     <use xlink:href="#DejaVuSerif-67"/>
     <use x="76.513672" xlink:href="#DejaVuSerif-78"/>
     <use x="164.013672" xlink:href="#DejaVuSerif-78"/>
     <use x="251.513672" xlink:href="#DejaVuSerif-32"/>
     <use x="283.300781" xlink:href="#DejaVuSerif-43"/>
     <use x="367.089844" xlink:href="#DejaVuSerif-32"/>
     <use x="398.876953" xlink:href="#DejaVuSerif-80"/>
     <use x="466.162109" xlink:href="#DejaVuSerif-67"/>
     <use x="542.675781" xlink:href="#DejaVuSerif-69"/>
     <use x="615.673828" xlink:href="#DejaVuSerif-78"/>
     <use x="703.173828" xlink:href="#DejaVuSerif-32"/>
     <use x="734.960938" xlink:href="#DejaVuSerif-43"/>
     <use x="818.75" xlink:href="#DejaVuSerif-32"/>
     <use x="850.537109" xlink:href="#DejaVuSerif-97"/>
     <use x="910.15625" xlink:href="#DejaVuSerif-117"/>
     <use x="974.560547" xlink:href="#DejaVuSerif-103"/>
     <use x="1038.574219" xlink:href="#DejaVuSerif-109"/>
     <use x="1133.398438" xlink:href="#DejaVuSerif-101"/>
     <use x="1192.578125" xlink:href="#DejaVuSerif-110"/>
     <use x="1256.982422" xlink:href="#DejaVuSerif-116"/>
     <use x="1297.167969" xlink:href="#DejaVuSerif-97"/>
     <use x="1356.787109" xlink:href="#DejaVuSerif-116"/>
     <use x="1396.972656" xlink:href="#DejaVuSerif-105"/>
     <use x="1428.955078" xlink:href="#DejaVuSerif-111"/>
     <use x="1489.160156" xlink:href="#DejaVuSerif-110"/>
    </g>
   </g>
   <g id="legend_1">
    <g id="patch_7">
     <path d="M 111.926563 153.0475 
L 318.965625 153.0475 
Q 320.965625 153.0475 320.965625 151.0475 
L 320.965625 122.69125 
Q 320.965625 120.69125 318.965625 120.69125 
L 111.926563 120.69125 
Q 109.926563 120.69125 109.926563 122.69125 
L 109.926563 151.0475 
Q 109.926563 153.0475 111.926563 153.0475 
z
" style="fill:#ffffff;opacity:0.8;stroke:#cccccc;stroke-linejoin:miter;"/>
    </g>
    <g id="line2d_119">
     <path d="M 113.926563 128.789687 
L 133.926562 128.789687 
" style="fill:none;stroke:#0040ff;stroke-linecap:square;stroke-width:2;"/>
    </g>
    <g id="line2d_120">
     <g>
      <use style="fill:#0040ff;stroke:#0040ff;" x="123.926563" xlink:href="#ma166e429d1" y="128.789687"/>
     </g>
    </g>
    <g id="text_15">
     <!-- Thrushes (0-5 kHz) -->
     <defs>
      <path d="M 19.09375 0 
L 19.09375 5.171875 
L 28.421875 5.171875 
L 28.421875 67.09375 
L 6.984375 67.09375 
L 6.984375 55.71875 
L 0.984375 55.71875 
L 0.984375 72.90625 
L 65.71875 72.90625 
L 65.71875 55.71875 
L 59.71875 55.71875 
L 59.71875 67.09375 
L 38.28125 67.09375 
L 38.28125 5.171875 
L 47.609375 5.171875 
L 47.609375 0 
z
" id="DejaVuSerif-84"/>
      <path d="M 4.390625 30.609375 
L 29.390625 30.609375 
L 29.390625 23 
L 4.390625 23 
z
" id="DejaVuSerif-45"/>
      <path d="M 50.296875 72.90625 
L 50.296875 64.890625 
L 16.890625 64.890625 
L 16.890625 44 
Q 19.4375 45.75 22.828125 46.625 
Q 26.21875 47.515625 30.421875 47.515625 
Q 42.234375 47.515625 49.0625 40.96875 
Q 55.90625 34.421875 55.90625 23.09375 
Q 55.90625 11.53125 49 5.046875 
Q 42.09375 -1.421875 29.59375 -1.421875 
Q 24.5625 -1.421875 19.28125 -0.1875 
Q 14.015625 1.03125 8.5 3.515625 
L 8.5 17.671875 
L 14.015625 17.671875 
Q 14.453125 10.75 18.421875 7.078125 
Q 22.40625 3.421875 29.59375 3.421875 
Q 37.3125 3.421875 41.453125 8.5 
Q 45.609375 13.578125 45.609375 23.09375 
Q 45.609375 32.5625 41.484375 37.609375 
Q 37.359375 42.671875 29.59375 42.671875 
Q 25.203125 42.671875 21.84375 41.109375 
Q 18.5 39.546875 15.921875 36.28125 
L 11.71875 36.28125 
L 11.71875 72.90625 
z
" id="DejaVuSerif-53"/>
      <path d="M 28.609375 0 
L 3.421875 0 
L 3.421875 5.171875 
L 11.53125 5.171875 
L 11.53125 70.796875 
L 2.875 70.796875 
L 2.875 75.984375 
L 20.515625 75.984375 
L 20.515625 26.515625 
L 42.390625 46.6875 
L 34.90625 46.6875 
L 34.90625 51.90625 
L 58.40625 51.90625 
L 58.40625 46.6875 
L 49.515625 46.6875 
L 34.078125 32.421875 
L 53.8125 5.171875 
L 61.28125 5.171875 
L 61.28125 0 
L 35.6875 0 
L 35.6875 5.171875 
L 43.109375 5.171875 
L 27.59375 26.515625 
L 20.515625 19.921875 
L 20.515625 5.171875 
L 28.609375 5.171875 
z
" id="DejaVuSerif-107"/>
      <path d="M 5.515625 0 
L 5.515625 5.171875 
L 14.796875 5.171875 
L 14.796875 67.671875 
L 5.515625 67.671875 
L 5.515625 72.90625 
L 33.984375 72.90625 
L 33.984375 67.671875 
L 24.703125 67.671875 
L 24.703125 42.484375 
L 62.5 42.484375 
L 62.5 67.671875 
L 53.21875 67.671875 
L 53.21875 72.90625 
L 81.6875 72.90625 
L 81.6875 67.671875 
L 72.40625 67.671875 
L 72.40625 5.171875 
L 81.6875 5.171875 
L 81.6875 0 
L 53.21875 0 
L 53.21875 5.171875 
L 62.5 5.171875 
L 62.5 36.53125 
L 24.703125 36.53125 
L 24.703125 5.171875 
L 33.984375 5.171875 
L 33.984375 0 
z
" id="DejaVuSerif-72"/>
      <path d="M 4 0 
L 4 4.203125 
L 36.53125 46.6875 
L 10.796875 46.6875 
L 10.796875 37.703125 
L 5.609375 37.703125 
L 5.609375 51.90625 
L 48.09375 51.90625 
L 48.09375 47.703125 
L 15.578125 5.171875 
L 43.796875 5.171875 
L 43.796875 14.59375 
L 49.03125 14.59375 
L 49.03125 0 
z
" id="DejaVuSerif-122"/>
     </defs>
     <g transform="translate(141.926562 132.289687)scale(0.1 -0.1)">
      <use xlink:href="#DejaVuSerif-84"/>
      <use x="66.699219" xlink:href="#DejaVuSerif-104"/>
      <use x="131.103516" xlink:href="#DejaVuSerif-114"/>
      <use x="178.90625" xlink:href="#DejaVuSerif-117"/>
      <use x="243.310547" xlink:href="#DejaVuSerif-115"/>
      <use x="294.628906" xlink:href="#DejaVuSerif-104"/>
      <use x="359.033203" xlink:href="#DejaVuSerif-101"/>
      <use x="418.212891" xlink:href="#DejaVuSerif-115"/>
      <use x="469.53125" xlink:href="#DejaVuSerif-32"/>
      <use x="501.318359" xlink:href="#DejaVuSerif-40"/>
      <use x="540.332031" xlink:href="#DejaVuSerif-48"/>
      <use x="603.955078" xlink:href="#DejaVuSerif-45"/>
      <use x="637.744141" xlink:href="#DejaVuSerif-53"/>
      <use x="701.367188" xlink:href="#DejaVuSerif-32"/>
      <use x="733.154297" xlink:href="#DejaVuSerif-107"/>
      <use x="793.75" xlink:href="#DejaVuSerif-72"/>
      <use x="880.957031" xlink:href="#DejaVuSerif-122"/>
      <use x="933.642578" xlink:href="#DejaVuSerif-41"/>
     </g>
    </g>
    <g id="line2d_121">
     <path d="M 113.926563 143.467812 
L 133.926562 143.467812 
" style="fill:none;stroke:#ffb800;stroke-linecap:square;stroke-width:2;"/>
    </g>
    <g id="line2d_122">
     <g>
      <use style="fill:#ffb800;stroke:#ffb800;" x="123.926563" xlink:href="#mc91a0b6bc4" y="143.467812"/>
     </g>
    </g>
    <g id="text_16">
     <!-- Warblers and sparrows (5-10 kHz) -->
     <defs>
      <path d="M 76.21875 0 
L 68.21875 0 
L 51.515625 59.28125 
L 34.8125 0 
L 26.8125 0 
L 7.71875 67.671875 
L 0.484375 67.671875 
L 0.484375 72.90625 
L 27.09375 72.90625 
L 27.09375 67.671875 
L 18.015625 67.671875 
L 33.203125 13.8125 
L 49.8125 72.90625 
L 57.71875 72.90625 
L 74.609375 13.1875 
L 89.890625 67.671875 
L 81.5 67.671875 
L 81.5 72.90625 
L 102.484375 72.90625 
L 102.484375 67.671875 
L 95.3125 67.671875 
z
" id="DejaVuSerif-87"/>
      <path d="M 11.53125 5.171875 
L 11.53125 70.796875 
L 2.875 70.796875 
L 2.875 75.984375 
L 20.515625 75.984375 
L 20.515625 43.796875 
Q 23.140625 48.6875 27.21875 51 
Q 31.296875 53.328125 37.3125 53.328125 
Q 46.875 53.328125 52.921875 45.75 
Q 58.984375 38.1875 58.984375 25.984375 
Q 58.984375 13.765625 52.921875 6.171875 
Q 46.875 -1.421875 37.3125 -1.421875 
Q 31.296875 -1.421875 27.21875 0.890625 
Q 23.140625 3.21875 20.515625 8.109375 
L 20.515625 0 
L 2.875 0 
L 2.875 5.171875 
z
M 20.515625 23.390625 
Q 20.515625 14.015625 24.09375 9.109375 
Q 27.6875 4.203125 34.515625 4.203125 
Q 41.40625 4.203125 44.9375 9.71875 
Q 48.484375 15.234375 48.484375 25.984375 
Q 48.484375 36.765625 44.9375 42.234375 
Q 41.40625 47.703125 34.515625 47.703125 
Q 27.6875 47.703125 24.09375 42.765625 
Q 20.515625 37.84375 20.515625 28.515625 
z
" id="DejaVuSerif-98"/>
      <path d="M 52.484375 5.171875 
L 61.078125 5.171875 
L 61.078125 0 
L 43.5 0 
L 43.5 8.109375 
Q 40.875 3.21875 36.796875 0.890625 
Q 32.71875 -1.421875 26.703125 -1.421875 
Q 17.140625 -1.421875 11.0625 6.171875 
Q 4.984375 13.765625 4.984375 25.984375 
Q 4.984375 38.1875 11.03125 45.75 
Q 17.09375 53.328125 26.703125 53.328125 
Q 32.71875 53.328125 36.796875 51 
Q 40.875 48.6875 43.5 43.796875 
L 43.5 70.796875 
L 35.015625 70.796875 
L 35.015625 75.984375 
L 52.484375 75.984375 
z
M 43.5 23.390625 
L 43.5 28.515625 
Q 43.5 37.84375 39.90625 42.765625 
Q 36.328125 47.703125 29.5 47.703125 
Q 22.5625 47.703125 19.015625 42.234375 
Q 15.484375 36.765625 15.484375 25.984375 
Q 15.484375 15.234375 19.015625 9.71875 
Q 22.5625 4.203125 29.5 4.203125 
Q 36.328125 4.203125 39.90625 9.109375 
Q 43.5 14.015625 43.5 23.390625 
z
" id="DejaVuSerif-100"/>
      <path d="M 20.515625 28.515625 
L 20.515625 23.390625 
Q 20.515625 14.015625 24.09375 9.109375 
Q 27.6875 4.203125 34.515625 4.203125 
Q 41.40625 4.203125 44.9375 9.71875 
Q 48.484375 15.234375 48.484375 25.984375 
Q 48.484375 36.765625 44.9375 42.234375 
Q 41.40625 47.703125 34.515625 47.703125 
Q 27.6875 47.703125 24.09375 42.765625 
Q 20.515625 37.84375 20.515625 28.515625 
z
M 11.53125 46.6875 
L 2.875 46.6875 
L 2.875 51.90625 
L 20.515625 51.90625 
L 20.515625 43.796875 
Q 23.140625 48.6875 27.21875 51 
Q 31.296875 53.328125 37.3125 53.328125 
Q 46.875 53.328125 52.921875 45.75 
Q 58.984375 38.1875 58.984375 25.984375 
Q 58.984375 13.765625 52.921875 6.171875 
Q 46.875 -1.421875 37.3125 -1.421875 
Q 31.296875 -1.421875 27.21875 0.890625 
Q 23.140625 3.21875 20.515625 8.109375 
L 20.515625 -15.578125 
L 29 -15.578125 
L 29 -20.796875 
L 2.875 -20.796875 
L 2.875 -15.578125 
L 11.53125 -15.578125 
z
" id="DejaVuSerif-112"/>
      <path d="M 48 51.90625 
L 61.28125 11.375 
L 73 46.6875 
L 65.484375 46.6875 
L 65.484375 51.90625 
L 84.28125 51.90625 
L 84.28125 46.6875 
L 78.515625 46.6875 
L 63.09375 0 
L 55.609375 0 
L 42.828125 38.8125 
L 29.984375 0 
L 22.796875 0 
L 7.421875 46.6875 
L 1.609375 46.6875 
L 1.609375 51.90625 
L 25.09375 51.90625 
L 25.09375 46.6875 
L 16.703125 46.6875 
L 28.328125 11.375 
L 41.703125 51.90625 
z
" id="DejaVuSerif-119"/>
     </defs>
     <g transform="translate(141.926562 146.967812)scale(0.1 -0.1)">
      <use xlink:href="#DejaVuSerif-87"/>
      <use x="102.658203" xlink:href="#DejaVuSerif-97"/>
      <use x="162.277344" xlink:href="#DejaVuSerif-114"/>
      <use x="210.080078" xlink:href="#DejaVuSerif-98"/>
      <use x="274.09375" xlink:href="#DejaVuSerif-108"/>
      <use x="306.076172" xlink:href="#DejaVuSerif-101"/>
      <use x="365.255859" xlink:href="#DejaVuSerif-114"/>
      <use x="413.058594" xlink:href="#DejaVuSerif-115"/>
      <use x="464.376953" xlink:href="#DejaVuSerif-32"/>
      <use x="496.164062" xlink:href="#DejaVuSerif-97"/>
      <use x="555.783203" xlink:href="#DejaVuSerif-110"/>
      <use x="620.1875" xlink:href="#DejaVuSerif-100"/>
      <use x="684.201172" xlink:href="#DejaVuSerif-32"/>
      <use x="715.988281" xlink:href="#DejaVuSerif-115"/>
      <use x="767.306641" xlink:href="#DejaVuSerif-112"/>
      <use x="831.320312" xlink:href="#DejaVuSerif-97"/>
      <use x="890.939453" xlink:href="#DejaVuSerif-114"/>
      <use x="938.742188" xlink:href="#DejaVuSerif-114"/>
      <use x="986.544922" xlink:href="#DejaVuSerif-111"/>
      <use x="1046.75" xlink:href="#DejaVuSerif-119"/>
      <use x="1132.345703" xlink:href="#DejaVuSerif-115"/>
      <use x="1183.664062" xlink:href="#DejaVuSerif-32"/>
      <use x="1215.451172" xlink:href="#DejaVuSerif-40"/>
      <use x="1254.464844" xlink:href="#DejaVuSerif-53"/>
      <use x="1318.087891" xlink:href="#DejaVuSerif-45"/>
      <use x="1351.876953" xlink:href="#DejaVuSerif-49"/>
      <use x="1415.5" xlink:href="#DejaVuSerif-48"/>
      <use x="1479.123047" xlink:href="#DejaVuSerif-32"/>
      <use x="1510.910156" xlink:href="#DejaVuSerif-107"/>
      <use x="1571.505859" xlink:href="#DejaVuSerif-72"/>
      <use x="1658.712891" xlink:href="#DejaVuSerif-122"/>
      <use x="1711.398438" xlink:href="#DejaVuSerif-41"/>
     </g>
    </g>
   </g>
  </g>
 </g>
 <defs>
  <clipPath id="p065c89cac7">
   <rect height="135.9" width="279" x="46.965625" y="22.1475"/>
  </clipPath>
 </defs>
</svg>
