<?xml version="1.0" encoding="utf-8" standalone="no"?>
<!DOCTYPE svg PUBLIC "-//W3C//DTD SVG 1.1//EN"
  "http://www.w3.org/Graphics/SVG/1.1/DTD/svg11.dtd">
<!-- Created with matplotlib (http://matplotlib.org/) -->
<svg height="432pt" version="1.1" viewBox="0 0 576 432" width="576pt" xmlns="http://www.w3.org/2000/svg" xmlns:xlink="http://www.w3.org/1999/xlink">
 <defs>
  <style type="text/css">
*{stroke-linecap:butt;stroke-linejoin:round;}
  </style>
 </defs>
 <g id="figure_1">
  <g id="patch_1">
   <path d="M 0 432 
L 576 432 
L 576 0 
L 0 0 
z
" style="fill:#ffffff;"/>
  </g>
  <g id="axes_1">
   <g id="patch_2">
    <path d="M 72 378 
L 518.4 378 
L 518.4 51.84 
L 72 51.84 
z
" style="fill:#ffffff;"/>
   </g>
   <g id="matplotlib.axis_1">
    <g id="xtick_1">
     <g id="line2d_1">
      <defs>
       <path d="M 0 0 
L 0 3.5 
" id="me93f58a2f7" style="stroke:#000000;stroke-width:0.8;"/>
      </defs>
      <g>
       <use style="stroke:#000000;stroke-width:0.8;" x="92.290909" xlink:href="#me93f58a2f7" y="378"/>
      </g>
     </g>
     <g id="text_1">
      <!-- 0 -->
      <defs>
       <path d="M 31.78125 66.40625 
Q 24.171875 66.40625 20.328125 58.90625 
Q 16.5 51.421875 16.5 36.375 
Q 16.5 21.390625 20.328125 13.890625 
Q 24.171875 6.390625 31.78125 6.390625 
Q 39.453125 6.390625 43.28125 13.890625 
Q 47.125 21.390625 47.125 36.375 
Q 47.125 51.421875 43.28125 58.90625 
Q 39.453125 66.40625 31.78125 66.40625 
M 31.78125 74.21875 
Q 44.046875 74.21875 50.515625 64.515625 
Q 56.984375 54.828125 56.984375 36.375 
Q 56.984375 17.96875 50.515625 8.265625 
Q 44.046875 -1.421875 31.78125 -1.421875 
Q 19.53125 -1.421875 13.0625 8.265625 
Q 6.59375 17.96875 6.59375 36.375 
Q 6.59375 54.828125 13.0625 64.515625 
Q 19.53125 74.21875 31.78125 74.21875 
" id="DejaVuSans-30"/>
      </defs>
      <g transform="translate(89.109659 392.598437)scale(0.1 -0.1)">
       <use xlink:href="#DejaVuSans-30"/>
      </g>
     </g>
    </g>
    <g id="xtick_2">
     <g id="line2d_2">
      <g>
       <use style="stroke:#000000;stroke-width:0.8;" x="173.454545" xlink:href="#me93f58a2f7" y="378"/>
      </g>
     </g>
     <g id="text_2">
      <!-- 20 -->
      <defs>
       <path d="M 19.1875 8.296875 
L 53.609375 8.296875 
L 53.609375 0 
L 7.328125 0 
L 7.328125 8.296875 
Q 12.9375 14.109375 22.625 23.890625 
Q 32.328125 33.6875 34.8125 36.53125 
Q 39.546875 41.84375 41.421875 45.53125 
Q 43.3125 49.21875 43.3125 52.78125 
Q 43.3125 58.59375 39.234375 62.25 
Q 35.15625 65.921875 28.609375 65.921875 
Q 23.96875 65.921875 18.8125 64.3125 
Q 13.671875 62.703125 7.8125 59.421875 
L 7.8125 69.390625 
Q 13.765625 71.78125 18.9375 73 
Q 24.125 74.21875 28.421875 74.21875 
Q 39.75 74.21875 46.484375 68.546875 
Q 53.21875 62.890625 53.21875 53.421875 
Q 53.21875 48.921875 51.53125 44.890625 
Q 49.859375 40.875 45.40625 35.40625 
Q 44.1875 33.984375 37.640625 27.21875 
Q 31.109375 20.453125 19.1875 8.296875 
" id="DejaVuSans-32"/>
      </defs>
      <g transform="translate(167.092045 392.598437)scale(0.1 -0.1)">
       <use xlink:href="#DejaVuSans-32"/>
       <use x="63.623047" xlink:href="#DejaVuSans-30"/>
      </g>
     </g>
    </g>
    <g id="xtick_3">
     <g id="line2d_3">
      <g>
       <use style="stroke:#000000;stroke-width:0.8;" x="254.618182" xlink:href="#me93f58a2f7" y="378"/>
      </g>
     </g>
     <g id="text_3">
      <!-- 40 -->
      <defs>
       <path d="M 37.796875 64.3125 
L 12.890625 25.390625 
L 37.796875 25.390625 
z
M 35.203125 72.90625 
L 47.609375 72.90625 
L 47.609375 25.390625 
L 58.015625 25.390625 
L 58.015625 17.1875 
L 47.609375 17.1875 
L 47.609375 0 
L 37.796875 0 
L 37.796875 17.1875 
L 4.890625 17.1875 
L 4.890625 26.703125 
z
" id="DejaVuSans-34"/>
      </defs>
      <g transform="translate(248.255682 392.598437)scale(0.1 -0.1)">
       <use xlink:href="#DejaVuSans-34"/>
       <use x="63.623047" xlink:href="#DejaVuSans-30"/>
      </g>
     </g>
    </g>
    <g id="xtick_4">
     <g id="line2d_4">
      <g>
       <use style="stroke:#000000;stroke-width:0.8;" x="335.781818" xlink:href="#me93f58a2f7" y="378"/>
      </g>
     </g>
     <g id="text_4">
      <!-- 60 -->
      <defs>
       <path d="M 33.015625 40.375 
Q 26.375 40.375 22.484375 35.828125 
Q 18.609375 31.296875 18.609375 23.390625 
Q 18.609375 15.53125 22.484375 10.953125 
Q 26.375 6.390625 33.015625 6.390625 
Q 39.65625 6.390625 43.53125 10.953125 
Q 47.40625 15.53125 47.40625 23.390625 
Q 47.40625 31.296875 43.53125 35.828125 
Q 39.65625 40.375 33.015625 40.375 
M 52.59375 71.296875 
L 52.59375 62.3125 
Q 48.875 64.0625 45.09375 64.984375 
Q 41.3125 65.921875 37.59375 65.921875 
Q 27.828125 65.921875 22.671875 59.328125 
Q 17.53125 52.734375 16.796875 39.40625 
Q 19.671875 43.65625 24.015625 45.921875 
Q 28.375 48.1875 33.59375 48.1875 
Q 44.578125 48.1875 50.953125 41.515625 
Q 57.328125 34.859375 57.328125 23.390625 
Q 57.328125 12.15625 50.6875 5.359375 
Q 44.046875 -1.421875 33.015625 -1.421875 
Q 20.359375 -1.421875 13.671875 8.265625 
Q 6.984375 17.96875 6.984375 36.375 
Q 6.984375 53.65625 15.1875 63.9375 
Q 23.390625 74.21875 37.203125 74.21875 
Q 40.921875 74.21875 44.703125 73.484375 
Q 48.484375 72.75 52.59375 71.296875 
" id="DejaVuSans-36"/>
      </defs>
      <g transform="translate(329.419318 392.598437)scale(0.1 -0.1)">
       <use xlink:href="#DejaVuSans-36"/>
       <use x="63.623047" xlink:href="#DejaVuSans-30"/>
      </g>
     </g>
    </g>
    <g id="xtick_5">
     <g id="line2d_5">
      <g>
       <use style="stroke:#000000;stroke-width:0.8;" x="416.945455" xlink:href="#me93f58a2f7" y="378"/>
      </g>
     </g>
     <g id="text_5">
      <!-- 80 -->
      <defs>
       <path d="M 31.78125 34.625 
Q 24.75 34.625 20.71875 30.859375 
Q 16.703125 27.09375 16.703125 20.515625 
Q 16.703125 13.921875 20.71875 10.15625 
Q 24.75 6.390625 31.78125 6.390625 
Q 38.8125 6.390625 42.859375 10.171875 
Q 46.921875 13.96875 46.921875 20.515625 
Q 46.921875 27.09375 42.890625 30.859375 
Q 38.875 34.625 31.78125 34.625 
M 21.921875 38.8125 
Q 15.578125 40.375 12.03125 44.71875 
Q 8.5 49.078125 8.5 55.328125 
Q 8.5 64.0625 14.71875 69.140625 
Q 20.953125 74.21875 31.78125 74.21875 
Q 42.671875 74.21875 48.875 69.140625 
Q 55.078125 64.0625 55.078125 55.328125 
Q 55.078125 49.078125 51.53125 44.71875 
Q 48 40.375 41.703125 38.8125 
Q 48.828125 37.15625 52.796875 32.3125 
Q 56.78125 27.484375 56.78125 20.515625 
Q 56.78125 9.90625 50.3125 4.234375 
Q 43.84375 -1.421875 31.78125 -1.421875 
Q 19.734375 -1.421875 13.25 4.234375 
Q 6.78125 9.90625 6.78125 20.515625 
Q 6.78125 27.484375 10.78125 32.3125 
Q 14.796875 37.15625 21.921875 38.8125 
M 18.3125 54.390625 
Q 18.3125 48.734375 21.84375 45.5625 
Q 25.390625 42.390625 31.78125 42.390625 
Q 38.140625 42.390625 41.71875 45.5625 
Q 45.3125 48.734375 45.3125 54.390625 
Q 45.3125 60.0625 41.71875 63.234375 
Q 38.140625 66.40625 31.78125 66.40625 
Q 25.390625 66.40625 21.84375 63.234375 
Q 18.3125 60.0625 18.3125 54.390625 
" id="DejaVuSans-38"/>
      </defs>
      <g transform="translate(410.582955 392.598437)scale(0.1 -0.1)">
       <use xlink:href="#DejaVuSans-38"/>
       <use x="63.623047" xlink:href="#DejaVuSans-30"/>
      </g>
     </g>
    </g>
    <g id="xtick_6">
     <g id="line2d_6">
      <g>
       <use style="stroke:#000000;stroke-width:0.8;" x="498.109091" xlink:href="#me93f58a2f7" y="378"/>
      </g>
     </g>
     <g id="text_6">
      <!-- 100 -->
      <defs>
       <path d="M 12.40625 8.296875 
L 28.515625 8.296875 
L 28.515625 63.921875 
L 10.984375 60.40625 
L 10.984375 69.390625 
L 28.421875 72.90625 
L 38.28125 72.90625 
L 38.28125 8.296875 
L 54.390625 8.296875 
L 54.390625 0 
L 12.40625 0 
z
" id="DejaVuSans-31"/>
      </defs>
      <g transform="translate(488.565341 392.598437)scale(0.1 -0.1)">
       <use xlink:href="#DejaVuSans-31"/>
       <use x="63.623047" xlink:href="#DejaVuSans-30"/>
       <use x="127.246094" xlink:href="#DejaVuSans-30"/>
      </g>
     </g>
    </g>
   </g>
   <g id="matplotlib.axis_2">
    <g id="ytick_1">
     <g id="line2d_7">
      <defs>
       <path d="M 0 0 
L -3.5 0 
" id="m010a6efb9b" style="stroke:#000000;stroke-width:0.8;"/>
      </defs>
      <g>
       <use style="stroke:#000000;stroke-width:0.8;" x="72" xlink:href="#m010a6efb9b" y="363.174545"/>
      </g>
     </g>
     <g id="text_7">
      <!-- 0 -->
      <g transform="translate(58.6375 366.973764)scale(0.1 -0.1)">
       <use xlink:href="#DejaVuSans-30"/>
      </g>
     </g>
    </g>
    <g id="ytick_2">
     <g id="line2d_8">
      <g>
       <use style="stroke:#000000;stroke-width:0.8;" x="72" xlink:href="#m010a6efb9b" y="303.872727"/>
      </g>
     </g>
     <g id="text_8">
      <!-- 20 -->
      <g transform="translate(52.275 307.671946)scale(0.1 -0.1)">
       <use xlink:href="#DejaVuSans-32"/>
       <use x="63.623047" xlink:href="#DejaVuSans-30"/>
      </g>
     </g>
    </g>
    <g id="ytick_3">
     <g id="line2d_9">
      <g>
       <use style="stroke:#000000;stroke-width:0.8;" x="72" xlink:href="#m010a6efb9b" y="244.570909"/>
      </g>
     </g>
     <g id="text_9">
      <!-- 40 -->
      <g transform="translate(52.275 248.370128)scale(0.1 -0.1)">
       <use xlink:href="#DejaVuSans-34"/>
       <use x="63.623047" xlink:href="#DejaVuSans-30"/>
      </g>
     </g>
    </g>
    <g id="ytick_4">
     <g id="line2d_10">
      <g>
       <use style="stroke:#000000;stroke-width:0.8;" x="72" xlink:href="#m010a6efb9b" y="185.269091"/>
      </g>
     </g>
     <g id="text_10">
      <!-- 60 -->
      <g transform="translate(52.275 189.06831)scale(0.1 -0.1)">
       <use xlink:href="#DejaVuSans-36"/>
       <use x="63.623047" xlink:href="#DejaVuSans-30"/>
      </g>
     </g>
    </g>
    <g id="ytick_5">
     <g id="line2d_11">
      <g>
       <use style="stroke:#000000;stroke-width:0.8;" x="72" xlink:href="#m010a6efb9b" y="125.967273"/>
      </g>
     </g>
     <g id="text_11">
      <!-- 80 -->
      <g transform="translate(52.275 129.766491)scale(0.1 -0.1)">
       <use xlink:href="#DejaVuSans-38"/>
       <use x="63.623047" xlink:href="#DejaVuSans-30"/>
      </g>
     </g>
    </g>
    <g id="ytick_6">
     <g id="line2d_12">
      <g>
       <use style="stroke:#000000;stroke-width:0.8;" x="72" xlink:href="#m010a6efb9b" y="66.665455"/>
      </g>
     </g>
     <g id="text_12">
      <!-- 100 -->
      <g transform="translate(45.9125 70.464673)scale(0.1 -0.1)">
       <use xlink:href="#DejaVuSans-31"/>
       <use x="63.623047" xlink:href="#DejaVuSans-30"/>
       <use x="127.246094" xlink:href="#DejaVuSans-30"/>
      </g>
     </g>
    </g>
   </g>
   <g id="line2d_13">
    <path clip-path="url(#p7b6a8cd9a1)" d="M 92.290909 66.665455 
L 92.290909 66.665455 
L 92.290909 66.665455 
L 92.290909 66.665455 
L 92.290909 66.665455 
L 92.290909 363.174545 
L 92.290909 363.174545 
L 92.290909 363.174545 
L 92.290909 363.174545 
L 92.325583 357.87974 
L 101.652743 353.20475 
L 108.899497 343.415523 
L 109.176884 343.279268 
L 109.454272 343.18653 
L 109.592966 343.244853 
L 109.696986 343.259164 
L 109.905027 343.645618 
L 109.9397 343.227 
L 109.9397 343.433129 
L 110.009047 343.878042 
L 110.182415 343.529105 
L 110.217088 343.836183 
L 110.63317 343.631397 
L 110.702517 343.739127 
L 111.014578 343.600596 
L 111.083925 343.737205 
L 111.153272 352.8737 
L 111.187945 343.867801 
L 111.465333 343.762976 
L 111.53468 343.898155 
L 111.985435 343.708854 
L 112.228149 343.723008 
L 112.297496 343.853739 
L 112.505537 343.958805 
L 112.678904 344.023914 
L 112.817598 344.065751 
L 113.094985 344.075731 
L 113.129659 344.325173 
L 113.407047 344.36279 
L 113.788455 344.265305 
L 113.892475 344.373002 
L 113.892475 344.648303 
L 114.031169 344.983626 
L 114.169863 344.664728 
L 114.585944 344.794583 
L 114.967352 344.706265 
L 115.14072 344.811657 
L 115.452781 344.895838 
L 115.522128 345.116088 
L 115.522128 345.360603 
L 115.660821 345.534231 
L 115.938209 345.777849 
L 116.111576 345.421212 
L 116.388964 345.78435 
L 117.013086 345.659137 
L 117.741229 345.556342 
L 118.087964 345.66361 
L 118.261331 345.901052 
L 118.400025 346.138734 
L 119.024147 346.046464 
L 119.613596 345.976756 
L 120.133698 345.899874 
L 121.035208 345.771116 
L 121.694004 345.740091 
L 122.387473 345.835066 
L 123.323656 345.776287 
L 124.46788 345.71845 
L 125.334717 345.793984 
L 125.577431 346.151118 
L 125.820145 346.586504 
L 126.374921 346.806351 
L 127.345778 347.005684 
L 128.004573 347.253142 
L 128.698043 347.575841 
L 129.252818 347.946241 
L 131.090511 348.027608 
L 131.645287 348.4535 
L 133.725694 348.331702 
L 135.286 348.526871 
L 135.736755 349.003363 
L 137.539775 349.165481 
L 139.065407 350.932304 
L 139.412142 349.287657 
L 140.001591 349.823001 
L 140.140285 350.29583 
L 140.174958 349.667072 
L 140.417672 349.08841 
L 141.145815 349.864746 
L 141.457876 348.245917 
L 141.561896 350.053203 
L 141.70059 350.205686 
L 142.081998 350.167059 
L 142.948835 347.501616 
L 145.029243 346.895657 
L 147.595079 346.527286 
L 149.190058 346.619429 
L 150.507649 348.060126 
L 150.646343 346.834506 
L 150.81971 347.477279 
L 151.755894 347.935459 
L 152.102628 348.356393 
L 160.944361 348.613831 
L 174.397664 349.144782 
L 176.027316 350.358067 
L 187.538905 349.520176 
L 498.109091 363.174545 
L 498.109091 363.174545 
L 498.109091 363.174545 
L 498.109091 363.174545 
L 498.109091 363.174545 
" style="fill:none;stroke:#1f77b4;stroke-linecap:square;stroke-width:1.5;"/>
    <defs>
     <path d="M 0 3 
C 0.795609 3 1.55874 2.683901 2.12132 2.12132 
C 2.683901 1.55874 3 0.795609 3 0 
C 3 -0.795609 2.683901 -1.55874 2.12132 -2.12132 
C 1.55874 -2.683901 0.795609 -3 0 -3 
C -0.795609 -3 -1.55874 -2.683901 -2.12132 -2.12132 
C -2.683901 -1.55874 -3 -0.795609 -3 0 
C -3 0.795609 -2.683901 1.55874 -2.12132 2.12132 
C -1.55874 2.683901 -0.795609 3 0 3 
z
" id="m3f2863e6fe" style="stroke:#1f77b4;"/>
    </defs>
    <g clip-path="url(#p7b6a8cd9a1)">
     <use style="fill:#1f77b4;stroke:#1f77b4;" x="92.290909" xlink:href="#m3f2863e6fe" y="66.665455"/>
     <use style="fill:#1f77b4;stroke:#1f77b4;" x="92.290909" xlink:href="#m3f2863e6fe" y="66.665455"/>
     <use style="fill:#1f77b4;stroke:#1f77b4;" x="92.290909" xlink:href="#m3f2863e6fe" y="66.665455"/>
     <use style="fill:#1f77b4;stroke:#1f77b4;" x="92.290909" xlink:href="#m3f2863e6fe" y="66.665455"/>
     <use style="fill:#1f77b4;stroke:#1f77b4;" x="92.290909" xlink:href="#m3f2863e6fe" y="66.665455"/>
     <use style="fill:#1f77b4;stroke:#1f77b4;" x="92.290909" xlink:href="#m3f2863e6fe" y="363.174545"/>
     <use style="fill:#1f77b4;stroke:#1f77b4;" x="92.290909" xlink:href="#m3f2863e6fe" y="363.174545"/>
     <use style="fill:#1f77b4;stroke:#1f77b4;" x="92.290909" xlink:href="#m3f2863e6fe" y="363.174545"/>
     <use style="fill:#1f77b4;stroke:#1f77b4;" x="92.290909" xlink:href="#m3f2863e6fe" y="363.174545"/>
     <use style="fill:#1f77b4;stroke:#1f77b4;" x="92.325583" xlink:href="#m3f2863e6fe" y="357.87974"/>
     <use style="fill:#1f77b4;stroke:#1f77b4;" x="101.652743" xlink:href="#m3f2863e6fe" y="353.20475"/>
     <use style="fill:#1f77b4;stroke:#1f77b4;" x="108.899497" xlink:href="#m3f2863e6fe" y="343.415523"/>
     <use style="fill:#1f77b4;stroke:#1f77b4;" x="109.176884" xlink:href="#m3f2863e6fe" y="343.279268"/>
     <use style="fill:#1f77b4;stroke:#1f77b4;" x="109.454272" xlink:href="#m3f2863e6fe" y="343.18653"/>
     <use style="fill:#1f77b4;stroke:#1f77b4;" x="109.592966" xlink:href="#m3f2863e6fe" y="343.244853"/>
     <use style="fill:#1f77b4;stroke:#1f77b4;" x="109.696986" xlink:href="#m3f2863e6fe" y="343.259164"/>
     <use style="fill:#1f77b4;stroke:#1f77b4;" x="109.905027" xlink:href="#m3f2863e6fe" y="343.645618"/>
     <use style="fill:#1f77b4;stroke:#1f77b4;" x="109.9397" xlink:href="#m3f2863e6fe" y="343.227"/>
     <use style="fill:#1f77b4;stroke:#1f77b4;" x="109.9397" xlink:href="#m3f2863e6fe" y="343.433129"/>
     <use style="fill:#1f77b4;stroke:#1f77b4;" x="110.009047" xlink:href="#m3f2863e6fe" y="343.878042"/>
     <use style="fill:#1f77b4;stroke:#1f77b4;" x="110.182415" xlink:href="#m3f2863e6fe" y="343.529105"/>
     <use style="fill:#1f77b4;stroke:#1f77b4;" x="110.217088" xlink:href="#m3f2863e6fe" y="343.836183"/>
     <use style="fill:#1f77b4;stroke:#1f77b4;" x="110.63317" xlink:href="#m3f2863e6fe" y="343.631397"/>
     <use style="fill:#1f77b4;stroke:#1f77b4;" x="110.702517" xlink:href="#m3f2863e6fe" y="343.739127"/>
     <use style="fill:#1f77b4;stroke:#1f77b4;" x="111.014578" xlink:href="#m3f2863e6fe" y="343.600596"/>
     <use style="fill:#1f77b4;stroke:#1f77b4;" x="111.083925" xlink:href="#m3f2863e6fe" y="343.737205"/>
     <use style="fill:#1f77b4;stroke:#1f77b4;" x="111.153272" xlink:href="#m3f2863e6fe" y="352.8737"/>
     <use style="fill:#1f77b4;stroke:#1f77b4;" x="111.187945" xlink:href="#m3f2863e6fe" y="343.867801"/>
     <use style="fill:#1f77b4;stroke:#1f77b4;" x="111.465333" xlink:href="#m3f2863e6fe" y="343.762976"/>
     <use style="fill:#1f77b4;stroke:#1f77b4;" x="111.53468" xlink:href="#m3f2863e6fe" y="343.898155"/>
     <use style="fill:#1f77b4;stroke:#1f77b4;" x="111.985435" xlink:href="#m3f2863e6fe" y="343.708854"/>
     <use style="fill:#1f77b4;stroke:#1f77b4;" x="112.228149" xlink:href="#m3f2863e6fe" y="343.723008"/>
     <use style="fill:#1f77b4;stroke:#1f77b4;" x="112.297496" xlink:href="#m3f2863e6fe" y="343.853739"/>
     <use style="fill:#1f77b4;stroke:#1f77b4;" x="112.505537" xlink:href="#m3f2863e6fe" y="343.958805"/>
     <use style="fill:#1f77b4;stroke:#1f77b4;" x="112.678904" xlink:href="#m3f2863e6fe" y="344.023914"/>
     <use style="fill:#1f77b4;stroke:#1f77b4;" x="112.817598" xlink:href="#m3f2863e6fe" y="344.065751"/>
     <use style="fill:#1f77b4;stroke:#1f77b4;" x="113.094985" xlink:href="#m3f2863e6fe" y="344.075731"/>
     <use style="fill:#1f77b4;stroke:#1f77b4;" x="113.129659" xlink:href="#m3f2863e6fe" y="344.325173"/>
     <use style="fill:#1f77b4;stroke:#1f77b4;" x="113.407047" xlink:href="#m3f2863e6fe" y="344.36279"/>
     <use style="fill:#1f77b4;stroke:#1f77b4;" x="113.788455" xlink:href="#m3f2863e6fe" y="344.265305"/>
     <use style="fill:#1f77b4;stroke:#1f77b4;" x="113.892475" xlink:href="#m3f2863e6fe" y="344.373002"/>
     <use style="fill:#1f77b4;stroke:#1f77b4;" x="113.892475" xlink:href="#m3f2863e6fe" y="344.648303"/>
     <use style="fill:#1f77b4;stroke:#1f77b4;" x="114.031169" xlink:href="#m3f2863e6fe" y="344.983626"/>
     <use style="fill:#1f77b4;stroke:#1f77b4;" x="114.169863" xlink:href="#m3f2863e6fe" y="344.664728"/>
     <use style="fill:#1f77b4;stroke:#1f77b4;" x="114.585944" xlink:href="#m3f2863e6fe" y="344.794583"/>
     <use style="fill:#1f77b4;stroke:#1f77b4;" x="114.967352" xlink:href="#m3f2863e6fe" y="344.706265"/>
     <use style="fill:#1f77b4;stroke:#1f77b4;" x="115.14072" xlink:href="#m3f2863e6fe" y="344.811657"/>
     <use style="fill:#1f77b4;stroke:#1f77b4;" x="115.452781" xlink:href="#m3f2863e6fe" y="344.895838"/>
     <use style="fill:#1f77b4;stroke:#1f77b4;" x="115.522128" xlink:href="#m3f2863e6fe" y="345.116088"/>
     <use style="fill:#1f77b4;stroke:#1f77b4;" x="115.522128" xlink:href="#m3f2863e6fe" y="345.360603"/>
     <use style="fill:#1f77b4;stroke:#1f77b4;" x="115.660821" xlink:href="#m3f2863e6fe" y="345.534231"/>
     <use style="fill:#1f77b4;stroke:#1f77b4;" x="115.938209" xlink:href="#m3f2863e6fe" y="345.777849"/>
     <use style="fill:#1f77b4;stroke:#1f77b4;" x="116.111576" xlink:href="#m3f2863e6fe" y="345.421212"/>
     <use style="fill:#1f77b4;stroke:#1f77b4;" x="116.388964" xlink:href="#m3f2863e6fe" y="345.78435"/>
     <use style="fill:#1f77b4;stroke:#1f77b4;" x="117.013086" xlink:href="#m3f2863e6fe" y="345.659137"/>
     <use style="fill:#1f77b4;stroke:#1f77b4;" x="117.741229" xlink:href="#m3f2863e6fe" y="345.556342"/>
     <use style="fill:#1f77b4;stroke:#1f77b4;" x="118.087964" xlink:href="#m3f2863e6fe" y="345.66361"/>
     <use style="fill:#1f77b4;stroke:#1f77b4;" x="118.261331" xlink:href="#m3f2863e6fe" y="345.901052"/>
     <use style="fill:#1f77b4;stroke:#1f77b4;" x="118.400025" xlink:href="#m3f2863e6fe" y="346.138734"/>
     <use style="fill:#1f77b4;stroke:#1f77b4;" x="119.024147" xlink:href="#m3f2863e6fe" y="346.046464"/>
     <use style="fill:#1f77b4;stroke:#1f77b4;" x="119.613596" xlink:href="#m3f2863e6fe" y="345.976756"/>
     <use style="fill:#1f77b4;stroke:#1f77b4;" x="120.133698" xlink:href="#m3f2863e6fe" y="345.899874"/>
     <use style="fill:#1f77b4;stroke:#1f77b4;" x="121.035208" xlink:href="#m3f2863e6fe" y="345.771116"/>
     <use style="fill:#1f77b4;stroke:#1f77b4;" x="121.694004" xlink:href="#m3f2863e6fe" y="345.740091"/>
     <use style="fill:#1f77b4;stroke:#1f77b4;" x="122.387473" xlink:href="#m3f2863e6fe" y="345.835066"/>
     <use style="fill:#1f77b4;stroke:#1f77b4;" x="123.323656" xlink:href="#m3f2863e6fe" y="345.776287"/>
     <use style="fill:#1f77b4;stroke:#1f77b4;" x="124.46788" xlink:href="#m3f2863e6fe" y="345.71845"/>
     <use style="fill:#1f77b4;stroke:#1f77b4;" x="125.334717" xlink:href="#m3f2863e6fe" y="345.793984"/>
     <use style="fill:#1f77b4;stroke:#1f77b4;" x="125.577431" xlink:href="#m3f2863e6fe" y="346.151118"/>
     <use style="fill:#1f77b4;stroke:#1f77b4;" x="125.820145" xlink:href="#m3f2863e6fe" y="346.586504"/>
     <use style="fill:#1f77b4;stroke:#1f77b4;" x="126.374921" xlink:href="#m3f2863e6fe" y="346.806351"/>
     <use style="fill:#1f77b4;stroke:#1f77b4;" x="127.345778" xlink:href="#m3f2863e6fe" y="347.005684"/>
     <use style="fill:#1f77b4;stroke:#1f77b4;" x="128.004573" xlink:href="#m3f2863e6fe" y="347.253142"/>
     <use style="fill:#1f77b4;stroke:#1f77b4;" x="128.698043" xlink:href="#m3f2863e6fe" y="347.575841"/>
     <use style="fill:#1f77b4;stroke:#1f77b4;" x="129.252818" xlink:href="#m3f2863e6fe" y="347.946241"/>
     <use style="fill:#1f77b4;stroke:#1f77b4;" x="131.090511" xlink:href="#m3f2863e6fe" y="348.027608"/>
     <use style="fill:#1f77b4;stroke:#1f77b4;" x="131.645287" xlink:href="#m3f2863e6fe" y="348.4535"/>
     <use style="fill:#1f77b4;stroke:#1f77b4;" x="133.725694" xlink:href="#m3f2863e6fe" y="348.331702"/>
     <use style="fill:#1f77b4;stroke:#1f77b4;" x="135.286" xlink:href="#m3f2863e6fe" y="348.526871"/>
     <use style="fill:#1f77b4;stroke:#1f77b4;" x="135.736755" xlink:href="#m3f2863e6fe" y="349.003363"/>
     <use style="fill:#1f77b4;stroke:#1f77b4;" x="137.539775" xlink:href="#m3f2863e6fe" y="349.165481"/>
     <use style="fill:#1f77b4;stroke:#1f77b4;" x="139.065407" xlink:href="#m3f2863e6fe" y="350.932304"/>
     <use style="fill:#1f77b4;stroke:#1f77b4;" x="139.412142" xlink:href="#m3f2863e6fe" y="349.287657"/>
     <use style="fill:#1f77b4;stroke:#1f77b4;" x="140.001591" xlink:href="#m3f2863e6fe" y="349.823001"/>
     <use style="fill:#1f77b4;stroke:#1f77b4;" x="140.140285" xlink:href="#m3f2863e6fe" y="350.29583"/>
     <use style="fill:#1f77b4;stroke:#1f77b4;" x="140.174958" xlink:href="#m3f2863e6fe" y="349.667072"/>
     <use style="fill:#1f77b4;stroke:#1f77b4;" x="140.417672" xlink:href="#m3f2863e6fe" y="349.08841"/>
     <use style="fill:#1f77b4;stroke:#1f77b4;" x="141.145815" xlink:href="#m3f2863e6fe" y="349.864746"/>
     <use style="fill:#1f77b4;stroke:#1f77b4;" x="141.457876" xlink:href="#m3f2863e6fe" y="348.245917"/>
     <use style="fill:#1f77b4;stroke:#1f77b4;" x="141.561896" xlink:href="#m3f2863e6fe" y="350.053203"/>
     <use style="fill:#1f77b4;stroke:#1f77b4;" x="141.70059" xlink:href="#m3f2863e6fe" y="350.205686"/>
     <use style="fill:#1f77b4;stroke:#1f77b4;" x="142.081998" xlink:href="#m3f2863e6fe" y="350.167059"/>
     <use style="fill:#1f77b4;stroke:#1f77b4;" x="142.948835" xlink:href="#m3f2863e6fe" y="347.501616"/>
     <use style="fill:#1f77b4;stroke:#1f77b4;" x="145.029243" xlink:href="#m3f2863e6fe" y="346.895657"/>
     <use style="fill:#1f77b4;stroke:#1f77b4;" x="147.595079" xlink:href="#m3f2863e6fe" y="346.527286"/>
     <use style="fill:#1f77b4;stroke:#1f77b4;" x="149.190058" xlink:href="#m3f2863e6fe" y="346.619429"/>
     <use style="fill:#1f77b4;stroke:#1f77b4;" x="150.507649" xlink:href="#m3f2863e6fe" y="348.060126"/>
     <use style="fill:#1f77b4;stroke:#1f77b4;" x="150.646343" xlink:href="#m3f2863e6fe" y="346.834506"/>
     <use style="fill:#1f77b4;stroke:#1f77b4;" x="150.81971" xlink:href="#m3f2863e6fe" y="347.477279"/>
     <use style="fill:#1f77b4;stroke:#1f77b4;" x="151.755894" xlink:href="#m3f2863e6fe" y="347.935459"/>
     <use style="fill:#1f77b4;stroke:#1f77b4;" x="152.102628" xlink:href="#m3f2863e6fe" y="348.356393"/>
     <use style="fill:#1f77b4;stroke:#1f77b4;" x="160.944361" xlink:href="#m3f2863e6fe" y="348.613831"/>
     <use style="fill:#1f77b4;stroke:#1f77b4;" x="174.397664" xlink:href="#m3f2863e6fe" y="349.144782"/>
     <use style="fill:#1f77b4;stroke:#1f77b4;" x="176.027316" xlink:href="#m3f2863e6fe" y="350.358067"/>
     <use style="fill:#1f77b4;stroke:#1f77b4;" x="187.538905" xlink:href="#m3f2863e6fe" y="349.520176"/>
     <use style="fill:#1f77b4;stroke:#1f77b4;" x="498.109091" xlink:href="#m3f2863e6fe" y="363.174545"/>
     <use style="fill:#1f77b4;stroke:#1f77b4;" x="498.109091" xlink:href="#m3f2863e6fe" y="363.174545"/>
     <use style="fill:#1f77b4;stroke:#1f77b4;" x="498.109091" xlink:href="#m3f2863e6fe" y="363.174545"/>
     <use style="fill:#1f77b4;stroke:#1f77b4;" x="498.109091" xlink:href="#m3f2863e6fe" y="363.174545"/>
     <use style="fill:#1f77b4;stroke:#1f77b4;" x="498.109091" xlink:href="#m3f2863e6fe" y="363.174545"/>
    </g>
   </g>
   <g id="patch_3">
    <path d="M 72 378 
L 72 51.84 
" style="fill:none;stroke:#000000;stroke-linecap:square;stroke-linejoin:miter;stroke-width:0.8;"/>
   </g>
   <g id="patch_4">
    <path d="M 518.4 378 
L 518.4 51.84 
" style="fill:none;stroke:#000000;stroke-linecap:square;stroke-linejoin:miter;stroke-width:0.8;"/>
   </g>
   <g id="patch_5">
    <path d="M 72 378 
L 518.4 378 
" style="fill:none;stroke:#000000;stroke-linecap:square;stroke-linejoin:miter;stroke-width:0.8;"/>
   </g>
   <g id="patch_6">
    <path d="M 72 51.84 
L 518.4 51.84 
" style="fill:none;stroke:#000000;stroke-linecap:square;stroke-linejoin:miter;stroke-width:0.8;"/>
   </g>
  </g>
 </g>
 <defs>
  <clipPath id="p7b6a8cd9a1">
   <rect height="326.16" width="446.4" x="72" y="51.84"/>
  </clipPath>
 </defs>
</svg>
